<?xml version="1.0" encoding="utf-8"?>
<svg xmlns="http://www.w3.org/2000/svg" viewBox="784.5277 70.7432 639.5405 639.0577" width="639.54px" height="639.058px">
  <g transform="matrix(1, 0, 0, 1, -8.311792373657227, -9.974150657653695)">
    <path fill="none" opacity="1.000000" stroke="#000000" stroke-linecap="round" stroke-linejoin="round" stroke-width="13.500000" d="M 1224.38 407.275 C 1223.52 394.998 1223.12 382.705 1219.45 370.754 C 1214.79 355.602 1207.53 342.07 1196.92 330.244 C 1186.46 318.593 1174.31 309.488 1159.9 303.224 C 1142.42 295.622 1124.2 292.725 1105.39 294.872 C 1080.31 297.735 1058.41 307.932 1040.96 326.35 C 1024.66 343.55 1014.45 363.832 1011.82 387.769 C 1007.32 428.696 1021.59 461.668 1053.42 487.228 C 1067.43 498.478 1083.79 504.782 1101.39 507.715 C 1114.43 509.887 1127.53 509.115 1140.37 506.209 C 1168.87 499.752 1191.06 483.504 1207.17 459.631 C 1216.64 445.589 1222.01 429.446 1223.41 412.278 C 1223.53 410.761 1224.05 409.275 1224.38 407.775"/>
    <path fill="none" opacity="1.000000" stroke="#000000" stroke-linecap="round" stroke-linejoin="round" stroke-width="13.500000" d="M 1170.88 528.275 C 1176.38 541.275 1181.88 554.278 1187.38 567.275 C 1196.21 588.11 1205.07 608.934 1213.87 629.779 C 1218.58 640.927 1223 652.203 1227.95 663.243 C 1231.38 670.876 1233.91 678.872 1237.72 686.357 C 1238.56 688.009 1239.61 689.577 1240.38 691.275"/>
    <path fill="none" opacity="1.000000" stroke="#000000" stroke-linecap="round" stroke-linejoin="round" stroke-width="7.500000" d="M 1253.88 119.775 C 1243.21 141.775 1232.54 163.774 1221.88 185.776 C 1211.54 207.107 1201.23 228.448 1190.87 249.772 C 1186.58 258.624 1182.21 267.442 1177.88 276.275"/>
    <path fill="none" opacity="1.000000" stroke="#000000" stroke-linecap="round" stroke-linejoin="round" stroke-width="13.500000" d="M 1069.38 559.775 C 1065.59 562.249 1064.98 566.708 1064.08 570.325 C 1060.06 586.37 1054.41 601.901 1049.74 617.733 C 1041.93 644.221 1033.03 670.386 1025.12 696.846 C 1024.11 700.201 1021.76 703.429 1022.38 707.275"/>
    <path fill="none" opacity="1.000000" stroke="#000000" stroke-linecap="round" stroke-linejoin="round" stroke-width="13.500000" d="M 941.543 418.577 C 930.876 420.077 920.203 421.532 909.545 423.09 C 898.536 424.7 887.588 426.907 876.528 427.917 C 867.981 428.698 859.6 430.457 851.053 431.194 C 842.839 431.903 834.72 433.649 826.539 434.804 C 820.39 435.672 814.207 436.309 808.044 437.084 C 804.372 437.546 800.709 438.077 797.043 438.577"/>
    <path fill="none" opacity="1.000000" stroke="#000000" stroke-linecap="round" stroke-linejoin="round" stroke-width="7.500000" d="M 945.88 131.775 C 957.152 151.073 969.839 169.469 981.901 188.262 C 999.155 215.147 1016.48 241.984 1033.94 268.738 C 1037.18 273.7 1042.34 277.432 1043.38 283.775"/>
    <path fill="none" opacity="1.000000" stroke="#000000" stroke-linecap="round" stroke-linejoin="round" stroke-width="13.500000" d="M 983.38 434.775 C 974.214 437.442 965.001 439.96 955.889 442.802 C 921.368 453.569 886.889 464.468 852.377 475.264 C 837.232 480.001 822.047 484.609 806.88 489.275"/>
    <path fill="none" opacity="1.000000" stroke="#000000" stroke-linecap="round" stroke-linejoin="round" stroke-width="7.500000" d="M 1288.88 140.775 C 1276.93 160.462 1263.91 179.461 1251.4 198.79 C 1240.13 216.22 1229.14 233.834 1217.85 251.254 C 1210.86 262.036 1203.55 272.609 1196.38 283.276"/>
    <path fill="none" opacity="1.000000" stroke="#000000" stroke-linecap="round" stroke-linejoin="round" stroke-width="13.500000" d="M 1033.88 542.275 C 1034.63 544.455 1033.72 546.46 1032.83 548.253 C 1020.57 573.12 1008.16 597.914 995.9 622.785 C 987.135 640.57 978.581 658.459 969.841 676.256 C 968.626 678.73 966.881 680.942 965.381 683.276"/>
    <path fill="none" opacity="1.000000" stroke="#000000" stroke-linecap="round" stroke-linejoin="round" stroke-width="13.500000" d="M 945.38 363.275 C 935.238 359.745 924.708 357.631 914.377 354.788 C 888.416 347.644 862.216 341.409 836.327 333.961 C 827.116 331.312 817.722 329.075 808.374 326.802 C 806.92 326.448 805.38 326.442 803.88 326.275"/>
    <path fill="none" opacity="1.000000" stroke="#000000" stroke-linecap="round" stroke-linejoin="round" stroke-width="7.500000" d="M 910.88 156.775 C 914.132 162.68 919.18 167.147 923.44 172.225 C 942.135 194.508 960.99 216.658 979.898 238.76 C 995.645 257.168 1011.55 275.442 1027.38 293.775"/>
    <path fill="none" opacity="1.000000" stroke="#000000" stroke-linecap="round" stroke-linejoin="round" stroke-width="13.500000" d="M 986.38 354.775 C 976.348 352.953 966.94 349.035 957.422 345.658 C 935.215 337.777 913.081 329.679 890.932 321.634 C 869.92 314.002 848.873 306.462 827.914 298.686 C 823.675 297.113 819.016 296.316 815.38 293.275"/>
    <path fill="none" opacity="1.000000" stroke="#000000" stroke-linecap="round" stroke-linejoin="round" stroke-width="13.500000" d="M 1153.38 534.275 C 1154.19 541.776 1156.53 548.948 1158.16 556.268 C 1162.98 577.789 1167.96 599.277 1172.88 620.775 C 1176.2 635.278 1179.5 649.786 1182.89 664.272 C 1185.83 676.788 1189.01 689.248 1191.78 701.799 C 1192.33 704.33 1193.98 706.288 1194.38 708.775"/>
    <path fill="none" opacity="1.000000" stroke="#000000" stroke-linecap="round" stroke-linejoin="round" stroke-width="7.500000" d="M 884.88 182.275 C 896.037 193.796 907.942 204.551 919.325 215.832 C 950.223 246.455 982.211 275.939 1013.38 306.275"/>
    <path fill="none" opacity="1.000000" stroke="#000000" stroke-linecap="round" stroke-linejoin="round" stroke-width="13.500000" d="M 1204.88 535.775 C 1204.96 539.332 1207.2 542.027 1208.95 544.727 C 1227.17 572.806 1245.57 600.758 1263.87 628.784 C 1271.78 640.901 1279.55 653.109 1287.38 665.276"/>
    <path fill="none" opacity="1.000000" stroke="#000000" stroke-linecap="round" stroke-linejoin="round" stroke-width="7.500000" d="M 1341.38 187.276 C 1325.88 201.942 1310.39 216.62 1294.88 231.273 C 1274.22 250.784 1253.68 270.419 1232.78 289.669 C 1227.92 294.147 1223.19 298.75 1218.38 303.275"/>
    <path fill="none" opacity="1.000000" stroke="#000000" stroke-linecap="round" stroke-linejoin="round" stroke-width="13.500000" d="M 1235.88 470.275 C 1237.38 471.609 1238.68 473.338 1240.42 474.203 C 1246.22 477.101 1251.04 481.125 1254.84 486.306 C 1257.17 489.484 1260.48 490.683 1263.78 492.455 C 1275.04 498.486 1285.88 505.27 1296.88 511.777 C 1317.72 524.106 1338.54 536.45 1359.38 548.772 C 1367.04 553.296 1374.71 557.775 1382.38 562.275"/>
    <path fill="none" opacity="1.000000" stroke="#000000" stroke-linecap="round" stroke-linejoin="round" stroke-width="13.500000" d="M 1242.38 460.275 C 1254.25 466.558 1266.23 472.33 1279.3 476.073 C 1285.84 477.949 1292.01 481.85 1298.35 484.851 C 1324.5 497.246 1350.94 509.005 1377.38 520.784 C 1384.73 524.062 1392.05 527.442 1399.38 530.775"/>
    <path fill="none" opacity="1.000000" stroke="#000000" stroke-linecap="round" stroke-linejoin="round" stroke-width="13.500000" d="M 1210.38 502.275 C 1210.24 504.263 1211.31 505.837 1212.42 507.247 C 1214.8 510.281 1217.18 513.217 1219.03 516.696 C 1220.54 519.545 1224.2 520.557 1226.49 523.182 C 1239.43 538.042 1252.74 552.588 1265.88 567.281 C 1282.4 585.759 1298.95 604.214 1315.32 622.829 C 1318.44 626.38 1321.55 629.925 1324.88 633.275"/>
    <path fill="none" opacity="1.000000" stroke="#000000" stroke-linecap="round" stroke-linejoin="round" stroke-width="13.500000" d="M 1107.38 262.775 C 1114.55 262.608 1122 261.505 1128.83 262.618 C 1143.27 264.972 1157.75 267.819 1171.4 273.728 C 1198.77 285.577 1219.88 304.541 1235.29 329.829 C 1242.26 341.26 1246.74 353.896 1250.35 366.784 C 1250.91 368.782 1249.46 369.851 1247.89 370.792 C 1242.61 373.964 1239.63 378.887 1239.01 384.789 C 1238.51 389.585 1241.64 393.719 1245.48 395.579 C 1253.82 399.63 1255.4 406.04 1254.43 414.281 C 1253.33 423.613 1252.11 433.088 1248.61 441.666 C 1245.08 450.311 1242.38 459.425 1237.05 467.386 C 1235.41 469.822 1233.76 470.583 1231.38 470.739 C 1228.89 470.902 1226.38 470.765 1223.88 470.777 C 1211.96 470.836 1205.59 480.444 1210.43 491.255 C 1211.59 493.86 1212.59 496.438 1212.92 499.077 C 1214.1 499.658 1215.48 499.971 1216.34 500.815 C 1221.94 506.326 1229.22 509.065 1235.94 512.661 C 1238.51 514.035 1238.64 516.769 1240.8 518.38 C 1249.16 524.623 1257.23 531.256 1265.38 537.78 C 1283.05 551.933 1300.69 566.142 1318.39 580.263 C 1329.34 588.996 1340.38 597.609 1351.38 606.275"/>
    <path fill="none" opacity="1.000000" stroke="#000000" stroke-linecap="round" stroke-linejoin="round" stroke-width="13.500000" d="M 1432.38 390.275 C 1412.71 390.442 1393 389.853 1373.39 390.981 C 1352.37 392.19 1331.38 391.322 1310.38 391.704 C 1307.35 391.759 1304.49 394.072 1301.38 392.275"/>
    <path fill="none" opacity="1.000000" stroke="#000000" stroke-linecap="round" stroke-linejoin="round" stroke-width="13.500000" d="M 1386.38 249.275 C 1359.88 265.442 1333.42 281.668 1306.86 297.747 C 1295.98 304.336 1285.4 311.61 1274.19 317.418 C 1262.59 323.434 1251.29 330.301 1238.88 334.775"/>
    <path fill="none" opacity="1.000000" stroke="#000000" stroke-linecap="round" stroke-linejoin="round" stroke-width="7.500000" d="M 1015.88 527.775 C 1010.48 530.924 1007.23 536.203 1003.46 540.837 C 988.771 558.853 974.364 577.096 959.885 595.279 C 945.697 613.096 931.547 630.942 917.38 648.775 C 916.716 649.611 916.047 650.442 915.38 651.275"/>
    <path fill="none" opacity="1.000000" stroke="#000000" stroke-linecap="round" stroke-linejoin="round" stroke-width="7.500000" d="M 1014.88 495.275 C 1005.61 504.84 995.57 513.624 986.08 522.97 C 978.83 530.11 970.972 536.868 963.433 543.832 C 947.759 558.311 932.54 573.282 916.827 587.717 C 905.447 598.172 894.293 608.842 883.38 619.775"/>
    <path fill="none" opacity="1.000000" stroke="#000000" stroke-linecap="round" stroke-linejoin="round" stroke-width="13.500000" d="M 1322.88 420.775 C 1323.07 421.956 1322.78 422.538 1321.39 422.822 C 1310.71 425 1305.64 432.274 1306.91 443.772 C 1307.77 451.548 1316.72 458.418 1324.88 457.814 C 1335.05 457.062 1341.81 448.838 1342.02 440.279 C 1342.23 431.415 1333.2 421.169 1324.88 422.753 C 1324.41 422.842 1323.88 422.609 1323.38 422.525"/>
    <path fill="none" opacity="1.000000" stroke="#000000" stroke-linecap="round" stroke-linejoin="round" stroke-width="13.500000" d="M 816.38 394.525 C 856.38 394.609 896.38 394.687 936.38 394.796 C 937.714 394.8 939.047 395.109 940.38 395.275"/>
    <path fill="none" opacity="1.000000" stroke="#000000" stroke-linecap="round" stroke-linejoin="round" stroke-width="13.500000" d="M 1090.88 85.775 C 1090.49 97.53 1092.69 109.098 1093.43 120.772 C 1094.02 130.121 1095.11 139.444 1096.04 148.76 C 1097.28 161.265 1097.79 173.847 1099.78 186.292 C 1100.46 190.545 1100.32 194.943 1100.75 199.289 C 1102.41 215.923 1103.14 232.659 1105.17 249.24 C 1105.67 253.36 1102.61 258.163 1106.83 261.833 C 1107.11 262.077 1106.87 263.073 1106.43 263.805 C 1097.28 278.988 1077.6 285.205 1062.03 274.555 C 1059.15 272.587 1056.55 269.407 1053.8 266.863 C 1048.09 261.585 1043.28 262.989 1040.38 270.274 C 1039.91 271.453 1039.38 272.609 1038.88 273.775"/>
    <path fill="none" opacity="1.000000" stroke="#000000" stroke-linecap="round" stroke-linejoin="round" stroke-width="13.500000" d="M 1254.88 403.275 C 1258.81 400.829 1263.19 402.046 1267.38 401.786 C 1275.61 401.277 1282.72 398.647 1287.9 391.794 C 1293.36 384.592 1290.14 376.68 1284.82 372.86 C 1276.6 366.96 1267.36 365.255 1257.36 367.681 C 1255.35 368.168 1252.99 368.218 1250.88 367.275"/>
    <path fill="none" opacity="1.000000" stroke="#000000" stroke-linecap="round" stroke-linejoin="round" stroke-width="13.500000" d="M 834.38 252.275 C 841.598 257.847 849.976 261.399 857.88 265.776 C 871.715 273.44 885.316 281.568 899.438 288.662 C 918.047 298.01 935.822 308.852 954.341 318.352 C 967.212 324.954 979.714 332.275 992.38 339.275"/>
    <path fill="none" opacity="1.000000" stroke="#000000" stroke-linecap="round" stroke-linejoin="round" stroke-width="13.500000" d="M 1274.38 318.775 C 1274.88 319.942 1275.11 321.35 1275.92 322.239 C 1286.66 334.081 1289.41 349.618 1294.6 363.876 C 1297.83 372.724 1299.28 382.46 1300.47 391.827 C 1301.3 398.329 1299.54 405.459 1298.72 412.256 C 1297.41 423.046 1295.53 433.795 1292.42 444.288 C 1289.24 455.038 1285.43 465.538 1280.88 475.775"/>
    <path fill="none" opacity="1.000000" stroke="#000000" stroke-linecap="round" stroke-linejoin="round" stroke-width="13.500000" d="M 1061.88 275.275 C 1061.47 276.97 1060.55 278.446 1060.31 280.266 C 1059.53 286.094 1054.91 289.061 1049.99 286.091 C 1045.44 283.348 1042.4 284.614 1038.87 287.258 C 1025.41 297.336 1013.35 308.813 1003.92 322.803 C 998.111 331.422 992.998 340.503 989.433 350.295 C 984.386 364.156 981.536 378.409 980.663 393.263 C 979.864 406.868 981.205 420.197 984.151 433.214 C 986.51 443.638 990.786 453.644 995.709 463.362 C 1001.33 474.464 1008.77 484.159 1016.48 493.697 C 1020.08 498.155 1024.71 501.775 1028.88 505.775"/>
    <path fill="none" opacity="1.000000" stroke="#000000" stroke-linecap="round" stroke-linejoin="round" stroke-width="7.500000" d="M 858.88 214.275 C 869.653 223.828 881.516 231.984 892.902 240.747 C 901.961 247.72 911.422 254.183 920.328 261.34 C 931.747 270.517 943.906 278.68 955.44 287.7 C 967.172 296.875 979.377 305.447 991.383 314.273 C 995.036 316.958 998.714 319.609 1002.38 322.275"/>
    <path fill="none" opacity="1.000000" stroke="#000000" stroke-linecap="round" stroke-linejoin="round" stroke-width="13.500000" d="M 1136.38 85.775 C 1136.01 100.28 1135.2 114.769 1134.7 129.269 C 1134.16 144.935 1133.57 160.62 1132.64 176.261 C 1132.17 184.112 1132.4 191.955 1131.84 199.773 C 1130.67 216.089 1130.1 232.419 1129.7 248.771 C 1129.59 253.059 1128.9 257.418 1128.88 261.775"/>
    <path fill="none" opacity="1.000000" stroke="#000000" stroke-linecap="round" stroke-linejoin="round" stroke-width="13.500000" d="M 1135.88 564.775 C 1134.4 564.629 1133.63 565.272 1133.89 566.773 C 1135.34 575.047 1135.32 583.437 1136.02 591.763 C 1137.11 604.594 1137.08 617.488 1138.75 630.293 C 1139.56 636.541 1139.28 642.941 1139.73 649.286 C 1141.14 668.924 1141.72 688.62 1143.03 708.265 C 1143.26 711.745 1143.85 715.247 1143.88 718.775"/>
    <path fill="none" opacity="1.000000" stroke="#000000" stroke-linecap="round" stroke-linejoin="round" stroke-width="13.500000" d="M 1102.88 563.275 C 1099.32 564.726 1097.76 568.428 1094.46 570.402 C 1085.78 575.582 1078.65 572.068 1073.75 565.371 C 1068.13 557.695 1070.82 549.721 1071.47 541.783 C 1071.73 538.604 1073.5 535.608 1073.38 532.275 C 1073.37 531.776 1073.22 530.906 1073.4 530.829 C 1078.82 528.518 1081.6 522.794 1087.33 520.632 C 1093.22 518.407 1100.67 521.829 1103.88 528.275 C 1105.21 530.944 1106.43 533.681 1107.95 536.235 C 1108.45 537.084 1109.36 537.981 1108.83 538.738 C 1105.07 544.064 1108.18 550.773 1105.01 556.349 C 1103.06 559.785 1104.34 563.855 1104.59 567.794 C 1105.08 575.39 1105.92 583.168 1103.94 590.791 C 1103.53 592.352 1103.87 594.109 1103.88 595.775 C 1104.03 612.452 1103.83 629.12 1102.92 645.778 C 1102.83 647.426 1102.41 649.189 1103.38 650.775"/>
    <path fill="none" opacity="1.000000" stroke="#000000" stroke-linecap="round" stroke-linejoin="round" stroke-width="7.500000" d="M 1103.88 256.775 C 1097.12 253.267 1090.12 251.622 1082.37 252.692 C 1070.96 254.267 1063.06 260.83 1060.38 271.775"/>
    <path fill="none" opacity="1.000000" stroke="#000000" stroke-linecap="round" stroke-linejoin="round" stroke-width="13.500000" d="M 1258.88 491.775 C 1258.71 492.942 1258.31 494.131 1258.42 495.272 C 1259.46 506.531 1252.65 510.807 1243.88 511.725 C 1241.76 511.946 1239.64 511.83 1237.88 513.275"/>
    <path fill="none" opacity="1.000000" stroke="#000000" stroke-linecap="round" stroke-linejoin="round" stroke-width="13.500000" d="M 954.054 344.775 C 951.747 348.442 951.712 352.772 950.562 356.777 C 950.182 358.097 950.316 360.151 949.482 360.655 C 945.43 363.103 946.213 367.535 945.793 370.806 C 944.218 383.064 941.381 395.374 942.773 407.75 C 943.561 414.76 943.509 422.041 946.423 428.832 C 947.492 431.323 946.549 434.411 947.343 437.333 C 948.053 439.948 948.938 442.206 950.554 444.275"/>
    <path fill="none" opacity="1.000000" stroke="#000000" stroke-linecap="round" stroke-linejoin="round" stroke-width="13.500000" d="M 1016.88 528.275 C 1017.78 530.006 1017.76 531.88 1017.93 533.771 C 1018.52 540.223 1022.95 542.554 1029.4 541.948 C 1039.15 541.031 1041.13 532.506 1045.72 526.649 C 1047.24 524.703 1048.7 522.642 1050.46 520.487 C 1049.43 518.365 1048.79 515.956 1048.83 513.275 C 1048.94 505.533 1043.78 501.453 1036.44 503.952 C 1034.08 504.755 1031.6 504.719 1029.49 506.17 C 1025.67 513.477 1019.67 519.825 1016.38 527.775"/>
    <path fill="none" opacity="1.000000" stroke="#000000" stroke-linecap="round" stroke-linejoin="round" stroke-width="13.500000" d="M 1212.38 499.775 C 1209.55 503.525 1206.83 500.912 1203.85 499.855 C 1199.85 498.433 1195.71 497.341 1191.83 500.718 C 1190.32 502.028 1189.61 503.468 1188.72 505.191 C 1186.53 509.427 1187.47 514.312 1188.4 517.632 C 1189.67 522.205 1194.34 525.985 1198.03 529.621 C 1198.9 530.476 1200.49 531.265 1201.32 532.325 C 1204.03 535.824 1207.3 535.674 1210.88 534.266 C 1214.76 532.737 1217.47 530.452 1218.04 525.795 C 1218.32 523.499 1217.46 520.804 1219.38 518.775"/>
    <path fill="none" opacity="1.000000" stroke="#000000" stroke-linecap="round" stroke-linejoin="round" stroke-width="13.500000" d="M 1104.88 650.775 C 1101.86 650.596 1102.93 652.896 1102.92 654.276 C 1102.65 676.11 1101.38 697.929 1101.88 719.775"/>
    <path fill="none" opacity="1.000000" stroke="#000000" stroke-linecap="round" stroke-linejoin="round" stroke-width="10.000000" d="M 1187.88 518.775 C 1177.2 524.198 1166.53 529.594 1154.9 532.83 C 1150.27 534.117 1145.5 534.691 1140.91 535.902 C 1130.47 538.663 1119.9 537.458 1109.38 537.775"/>
    <path fill="none" opacity="1.000000" stroke="#000000" stroke-linecap="round" stroke-linejoin="round" stroke-width="13.500000" d="M 1050.88 520.775 C 1058.04 524.502 1065.34 527.889 1072.88 530.775"/>
    <path fill="none" opacity="1.000000" stroke="#000000" stroke-linecap="round" stroke-linejoin="round" stroke-width="13.500000" d="M 1132.38 538.775 C 1133.05 547.442 1133.71 556.109 1134.38 564.775"/>
    <path fill="none" opacity="1.000000" stroke="#000000" stroke-linecap="round" stroke-linejoin="round" stroke-width="7.500000" d="M 986.38 524.275 C 992.214 529.442 998.047 534.609 1003.88 539.775"/>
    <path fill="none" opacity="1.000000" stroke="#000000" stroke-linecap="round" stroke-linejoin="round" stroke-width="13.500000" d="M 795.38 393.775 C 801.311 395.368 807.462 392.554 813.403 394.714 C 814.637 395.163 816.259 394.957 815.88 392.775"/>
    <path fill="none" opacity="1.000000" stroke="#000000" stroke-linecap="round" stroke-linejoin="round" stroke-width="13.500000" d="M 1084.39 82.395 C 1077.09 80.962 1069.93 83.029 1062.92 84.125 C 1049.08 86.289 1035.35 89.33 1021.88 93.363 C 1008.62 97.332 995.53 101.874 982.95 107.542 C 967.18 114.654 951.877 122.867 937.42 132.444 C 921.36 143.082 906.372 155.051 892.298 168.3 C 868.994 190.238 849.716 215.17 833.875 242.888 C 820.442 266.393 810.577 291.302 803.243 317.354 C 799.984 328.931 797.273 340.626 795.58 352.422 C 792.397 374.605 792.56 396.994 793.249 419.399 C 793.691 433.774 795.703 447.845 798.376 461.897 C 801.805 479.915 807.252 497.294 813.782 514.435 C 821.132 533.731 830.455 551.969 841.449 569.356 C 849.474 582.05 858.663 593.887 868.137 605.597 C 877.276 616.895 887.632 626.865 898.041 636.732 C 912.344 650.291 928.525 661.58 945.339 671.973 C 962.06 682.307 979.62 690.83 997.93 697.794 C 1007.67 701.502 1017.75 704.304 1027.79 707.228 C 1040.86 711.035 1054.07 713.99 1067.42 715.623 C 1079.64 717.117 1092 718.124 1104.38 718.647 C 1114.29 719.066 1124.11 718.259 1133.87 717.651 C 1154.87 716.344 1175.67 712.868 1195.85 706.789 C 1214.15 701.277 1232.3 695.161 1249.39 686.387 C 1270.08 675.758 1290 664.036 1308.04 649.076 C 1318.07 640.761 1328.24 632.619 1337.32 623.325 C 1362.09 597.957 1382.68 569.538 1397.87 537.387 C 1405.15 521.993 1411.63 506.293 1416.45 489.911 C 1420.85 474.936 1424.54 459.769 1426.64 444.361 C 1427.76 436.143 1428.47 427.745 1429.16 419.417 C 1430.08 408.211 1429.75 397.055 1429.76 385.895 C 1429.76 377.395 1428.96 368.838 1427.79 360.409 C 1426.19 348.854 1424.61 337.208 1421.7 325.944 C 1418.33 312.906 1414.71 299.915 1409.63 287.299 C 1405.29 276.54 1401.24 265.646 1395.78 255.455 C 1387.43 239.882 1378.58 224.656 1368.17 210.194 C 1356.23 193.609 1342.46 178.917 1327.79 165.002 C 1313.88 151.811 1298.56 140.21 1282.35 129.964 C 1259.78 115.698 1235.81 104.167 1210.37 95.954 C 1194.35 90.781 1177.98 86.652 1161.37 84.008 C 1137.7 80.242 1113.77 80.611 1089.89 80.864 C 1088.01 80.884 1086.58 81.989 1084.89 82.395" style="stroke-width: 9;"/>
  </g>
</svg>
