<?xml version="1.0" encoding="utf-8"?>
<svg xmlns="http://www.w3.org/2000/svg" viewBox="56.3931 78.4039 636.9667 638.0455" width="636.967px" height="638.045px">
  <g transform="matrix(1, 0, 0, 1, 39.896602630615234, 16.623584747314567)">
    <path fill="none" opacity="1.000000" stroke="#000000" stroke-linecap="round" stroke-linejoin="round" stroke-width="13.500000" d="M 308.044 63.458 C 300.743 62.025 293.591 64.092 286.58 65.188 C 272.74 67.352 259.01 70.393 245.535 74.426 C 232.276 78.395 219.184 82.937 206.611 88.605 C 190.833 95.717 175.534 103.93 161.077 113.507 C 145.017 124.145 130.029 136.114 115.955 149.363 C 92.651 171.301 73.373 196.233 57.532 223.951 C 44.099 247.456 34.234 272.365 26.9 298.417 C 23.641 309.994 20.93 321.689 19.237 333.485 C 16.054 355.668 16.217 378.057 16.906 400.462 C 17.348 414.837 19.36 428.908 22.033 442.96 C 25.462 460.978 30.909 478.357 37.439 495.498 C 44.789 514.794 54.112 533.032 65.106 550.419 C 73.131 563.113 82.32 574.95 91.794 586.66 C 100.933 597.958 111.289 607.928 121.698 617.795 C 136.001 631.354 152.182 642.643 168.996 653.036 C 185.714 663.37 203.28 671.893 221.583 678.857 C 231.325 682.565 241.41 685.367 251.447 688.291 C 264.517 692.098 277.726 695.053 291.078 696.686 C 303.296 698.18 315.653 699.187 328.034 699.71 C 337.951 700.129 347.768 699.322 357.529 698.714 C 378.523 697.407 399.331 693.931 419.512 687.852 C 437.811 682.34 455.956 676.224 473.04 667.45 C 493.736 656.821 513.651 645.099 531.695 630.139 C 541.723 621.824 551.895 613.682 560.973 604.388 C 585.748 579.02 606.332 550.601 621.527 518.45 C 628.803 503.056 635.282 487.356 640.1 470.974 C 644.503 455.999 648.197 440.832 650.295 425.424 C 651.413 417.206 652.127 408.808 652.814 400.48 C 653.739 389.274 653.401 378.118 653.411 366.958 C 653.418 358.458 652.617 349.901 651.446 341.472 C 649.84 329.917 648.267 318.271 645.355 307.007 C 641.985 293.969 638.364 280.978 633.282 268.362 C 628.948 257.603 624.896 246.709 619.431 236.518 C 611.08 220.945 602.231 205.719 591.823 191.257 C 579.886 174.672 566.11 159.98 551.443 146.065 C 537.538 132.874 522.211 121.273 506.001 111.027 C 483.43 96.761 459.466 85.23 434.025 77.017 C 418.004 71.844 401.641 67.715 385.026 65.071 C 361.361 61.305 337.432 61.674 313.544 61.927 C 311.666 61.947 310.239 63.052 308.544 63.458"/>
    <path fill="none" opacity="1.000000" stroke="#000000" stroke-linecap="round" stroke-linejoin="round" stroke-width="13.500000" d="M 292.044 512.458 C 290.749 525.035 286.892 537.093 284.41 549.431 C 281.303 564.877 277.14 580.108 273.563 595.462 C 269.647 612.276 265.985 629.15 262.011 645.95 C 258.699 659.955 256.169 674.146 252.044 687.958"/>
    <path fill="none" opacity="1.000000" stroke="#000000" stroke-linecap="round" stroke-linejoin="round" stroke-width="13.500000" d="M 273.044 506.458 C 263.211 530.958 253.82 555.648 243.414 579.902 C 233.868 602.153 225.063 624.705 215.448 646.916 C 212.043 654.783 209.592 663.093 205.044 670.458"/>
    <path fill="none" opacity="1.000000" stroke="#000000" stroke-linecap="round" stroke-linejoin="round" stroke-width="7.500000" d="M 190.044 98.458 C 198.211 114.458 206.526 130.384 214.511 146.474 C 228.131 173.915 241.659 201.402 254.974 228.992 C 258.958 237.246 263.621 245.206 266.544 253.958"/>
    <path fill="none" opacity="1.000000" stroke="#000000" stroke-linecap="round" stroke-linejoin="round" stroke-width="7.500000" d="M 376.544 536.458 C 380.817 541.704 381.582 548.317 383.535 554.461 C 389.893 574.453 396.233 594.451 402.538 614.46 C 409.232 635.701 415.867 656.961 422.56 678.203 C 423.28 680.489 424.211 682.708 425.044 684.958"/>
    <path fill="none" opacity="1.000000" stroke="#000000" stroke-linecap="round" stroke-linejoin="round" stroke-width="13.500000" d="M 504.044 402.458 C 513.211 403.624 522.389 404.711 531.541 405.981 C 540.389 407.208 549.174 409.036 558.055 409.84 C 566.597 410.613 575.04 411.997 583.538 413.009 C 592.066 414.025 600.529 415.579 609.05 416.664 C 614.559 417.366 620.064 418.009 625.56 418.857 C 633.499 420.083 641.544 420.624 649.544 421.458"/>
    <path fill="none" opacity="1.000000" stroke="#000000" stroke-linecap="round" stroke-linejoin="round" stroke-width="7.500000" d="M 155.044 119.458 C 167.878 138.958 180.723 158.45 193.542 177.96 C 211.386 205.119 229.216 232.288 247.031 259.467 C 247.969 260.898 248.711 262.458 249.544 263.958"/>
    <path fill="none" opacity="1.000000" stroke="#000000" stroke-linecap="round" stroke-linejoin="round" stroke-width="7.500000" d="M 398.544 498.458 C 402.878 504.958 408.799 510.931 411.169 518.082 C 414.656 528.597 419.791 538.164 424.615 547.923 C 443.442 586.008 462.544 623.958 481.544 661.958"/>
    <path fill="none" opacity="1.000000" stroke="#000000" stroke-linecap="round" stroke-linejoin="round" stroke-width="13.500000" d="M 462.044 413.958 C 471.044 416.624 480.047 419.283 489.044 421.96 C 504.712 426.62 520.357 431.362 536.05 435.94 C 556.862 442.012 577.805 447.656 598.512 454.064 C 612.318 458.336 626.205 462.31 640.044 466.458"/>
    <path fill="none" opacity="1.000000" stroke="#000000" stroke-linecap="round" stroke-linejoin="round" stroke-width="7.500000" d="M 500.044 109.458 C 474.878 148.124 449.712 186.792 424.543 225.457 C 419.55 233.128 414.864 241.029 409.417 248.363 C 406.453 252.353 403.371 256.087 402.044 260.958"/>
    <path fill="none" opacity="1.000000" stroke="#000000" stroke-linecap="round" stroke-linejoin="round" stroke-width="13.500000" d="M 643.044 302.458 C 634.42 303.245 626.349 306.356 618.055 308.5 C 593.358 314.883 568.692 321.386 544.052 327.985 C 529.678 331.835 515.378 335.958 501.044 339.958"/>
    <path fill="none" opacity="1.000000" stroke="#000000" stroke-linecap="round" stroke-linejoin="round" stroke-width="7.500000" d="M 535.044 134.458 C 512.544 160.624 489.987 186.742 467.564 212.974 C 450.966 232.391 434.544 251.958 418.044 271.458"/>
    <path fill="none" opacity="1.000000" stroke="#000000" stroke-linecap="round" stroke-linejoin="round" stroke-width="7.500000" d="M 561.044 158.958 C 549.544 170.124 538.047 181.293 526.544 192.457 C 509.713 208.793 492.953 225.203 476.022 241.434 C 461.298 255.548 446.378 269.458 431.544 283.458"/>
    <path fill="none" opacity="1.000000" stroke="#000000" stroke-linecap="round" stroke-linejoin="round" stroke-width="7.500000" d="M 256.044 498.458 C 251.872 503.44 247.355 508.063 242.707 512.624 C 239.173 516.092 237.359 521.209 234.661 525.531 C 219.017 550.598 202.513 575.104 186.548 599.96 C 177.029 614.781 167.544 629.624 158.044 644.458"/>
    <path fill="none" opacity="1.000000" stroke="#000000" stroke-linecap="round" stroke-linejoin="round" stroke-width="13.500000" d="M 354.544 62.958 C 353.64 73.467 352.69 83.975 351.757 94.477 C 351.286 99.769 350.722 105.116 350.378 110.447 C 349.752 120.13 349.212 129.849 347.635 139.473 C 346.964 143.567 347.274 147.78 346.708 151.98 C 345.506 160.908 345.305 169.966 344.522 178.956 C 343.446 191.297 342.072 203.614 341.103 215.962 C 340.622 222.103 338.749 228.149 340.429 234.488 C 341.423 238.239 338.389 240.888 334.544 240.459 C 322.348 239.096 310.412 241.092 298.554 243.504 C 287.805 245.69 277.458 249.386 267.599 254.073 C 257.684 258.787 248.635 265.071 240.038 271.95 C 226.181 283.039 215.392 296.87 206.791 312.097 C 201.235 321.932 197.161 332.773 194.547 343.958 C 194.197 345.455 193.878 346.958 193.544 348.458"/>
    <path fill="none" opacity="1.000000" stroke="#000000" stroke-linecap="round" stroke-linejoin="round" stroke-width="13.500000" d="M 632.544 268.958 C 621.467 275.097 609.249 278.422 597.497 282.832 C 574.157 291.591 550.528 299.578 527.056 307.99 C 521.146 310.108 515.487 312.993 509.489 314.771 C 507.194 315.45 505.618 316.482 504.044 317.958"/>
    <path fill="none" opacity="1.000000" stroke="#000000" stroke-linecap="round" stroke-linejoin="round" stroke-width="13.500000" d="M 208.544 448.958 C 207.562 450.873 205.888 451.961 204.059 452.983 C 198.479 456.101 193.51 459.906 190.019 465.442 C 187.033 470.177 181.306 470.689 176.961 473.32 C 147.621 491.084 118.038 508.447 88.548 525.964 C 79.357 531.423 70.211 536.958 61.044 542.458"/>
    <path fill="none" opacity="1.000000" stroke="#000000" stroke-linecap="round" stroke-linejoin="round" stroke-width="7.500000" d="M 103.044 166.458 C 144.044 204.458 185.044 242.458 226.044 280.458"/>
    <path fill="none" opacity="1.000000" stroke="#000000" stroke-linecap="round" stroke-linejoin="round" stroke-width="13.500000" d="M 203.044 439.458 C 193.711 443.624 184.588 448.37 175.004 451.846 C 149.11 461.238 124.783 474.131 99.667 485.235 C 82.172 492.97 64.502 500.492 47.534 509.438 C 46.614 509.923 45.544 510.124 44.544 510.458"/>
    <path fill="none" opacity="1.000000" stroke="#000000" stroke-linecap="round" stroke-linejoin="round" stroke-width="7.500000" d="M 256.544 497.708 C 258.825 493.919 257.584 482.595 254.544 479.458 C 251.42 476.234 247.211 476.552 240.982 478.785 C 236.981 480.22 234.403 482.291 232.493 485.931 C 229.7 491.252 225.321 495.255 221.168 499.577 C 200.141 521.458 180.825 544.893 160.557 567.469 C 146.992 582.578 133.544 597.791 120.044 612.958"/>
    <path fill="none" opacity="1.000000" stroke="#000000" stroke-linecap="round" stroke-linejoin="round" stroke-width="7.500000" d="M 208.044 491.958 C 206.818 495.818 203.259 497.612 200.479 499.878 C 176.593 519.35 152.539 538.618 128.547 557.961 C 117.199 567.11 105.878 576.291 94.544 585.458"/>
    <path fill="none" opacity="1.000000" stroke="#000000" stroke-linecap="round" stroke-linejoin="round" stroke-width="7.500000" d="M 205.544 312.958 C 196.544 308.458 187.652 303.724 178.52 299.511 C 163.593 292.624 150.185 283.167 136.073 274.91 C 116.461 263.434 97.036 251.639 77.549 239.95 C 70.686 235.833 63.878 231.624 57.044 227.458"/>
    <path fill="none" opacity="1.000000" stroke="#000000" stroke-linecap="round" stroke-linejoin="round" stroke-width="7.500000" d="M 418.044 482.958 C 419.638 488.954 425.384 492.23 427.635 497.922 C 430.876 506.119 438.513 511.021 443.678 517.857 C 455.252 533.178 467.6 547.914 479.53 562.969 C 493.093 580.086 506.545 597.291 520.044 614.458 C 523.713 619.123 527.378 623.791 531.044 628.458"/>
    <path fill="none" opacity="1.000000" stroke="#000000" stroke-linecap="round" stroke-linejoin="round" stroke-width="13.500000" d="M 313.044 516.958 C 312.473 529.475 312.119 541.994 310.661 554.471 C 309.948 560.575 309.919 566.826 309.784 572.963 C 309.59 581.816 308.687 590.617 308.354 599.451 C 307.947 610.281 307.027 621.112 306.386 631.948 C 305.765 642.448 304.836 652.925 304.449 663.454 C 304.039 674.637 302.878 685.791 302.044 696.958"/>
    <path fill="none" opacity="1.000000" stroke="#000000" stroke-linecap="round" stroke-linejoin="round" stroke-width="7.500000" d="M 431.044 471.458 C 442.655 482.172 454.324 492.784 465.373 504.138 C 470.347 509.25 476.174 513.985 481.521 518.983 C 496.421 532.911 511.194 546.976 526.05 560.951 C 536.186 570.485 546.406 579.928 556.523 589.48 C 558.834 591.661 560.878 594.124 563.044 596.458"/>
    <path fill="none" opacity="1.000000" stroke="#000000" stroke-linecap="round" stroke-linejoin="round" stroke-width="13.500000" d="M 613.044 228.458 C 594.184 239.516 574.845 249.698 555.577 260.019 C 534.931 271.08 514.553 282.64 494.041 293.952 C 480.391 301.481 466.711 308.958 453.044 316.458"/>
    <path fill="none" opacity="1.000000" stroke="#000000" stroke-linecap="round" stroke-linejoin="round" stroke-width="13.500000" d="M 383.544 252.458 C 384.044 254.124 384.785 255.76 385.002 257.463 C 385.895 264.464 390.873 265.292 394.974 263.311 C 399.705 261.026 402.81 261.851 407.171 264.769 C 421.406 274.294 433.394 286.448 442.652 300.222 C 455.2 318.891 463.008 340.11 465.041 362.958 C 466.434 378.61 465.658 394.147 462.019 409.452 C 455.306 437.684 440.641 461.215 419.617 481.035 C 416.785 483.705 414.181 482.571 411.564 481.885 C 404.311 479.982 400.624 482.15 399 489.448 C 398.372 492.271 398.795 495.257 397.319 497.916 C 393.412 498.319 390.221 501.012 386.603 502.591 C 383.409 503.985 380.207 505.455 377.067 507.003 C 373.229 508.893 370.252 508.604 367.465 505.019 C 365.905 503.011 363.726 501.315 361.512 500.013 C 353.412 495.25 345.698 498.386 341.07 508.47 C 339.979 510.848 339.792 513.665 337.544 515.458"/>
    <path fill="none" opacity="1.000000" stroke="#000000" stroke-linecap="round" stroke-linejoin="round" stroke-width="7.500000" d="M 590.044 192.458 C 541.378 228.124 492.711 263.791 444.044 299.458"/>
    <path fill="none" opacity="1.000000" stroke="#000000" stroke-linecap="round" stroke-linejoin="round" stroke-width="13.500000" d="M 310.294 102.458 C 310.306 113.64 311.41 124.774 311.717 135.953 C 312.157 151.953 313.022 167.953 313.72 183.95 C 314.338 198.116 315.167 212.277 315.576 226.457 C 315.706 230.963 316.211 235.458 316.544 239.958"/>
    <path fill="none" opacity="1.000000" stroke="#000000" stroke-linecap="round" stroke-linejoin="round" stroke-width="13.500000" d="M 186.044 469.958 C 187.185 472.05 186.465 474.299 186.5 476.459 C 186.624 484.021 192.365 489.841 200.045 489.953 C 202.425 489.987 204.861 489.688 207.037 490.97 C 208.548 491.86 209.681 491.204 211.067 490.503 C 218.239 486.874 224.932 482.451 231.468 477.849 C 234.203 475.922 234.309 471.921 235.38 468.899 C 238.876 459.034 234.431 449.968 221.544 448.963 C 221.047 448.924 220.544 448.958 220.044 448.958 C 208.333 448.942 208.018 449.007 203.611 438.43 C 198.554 426.296 193.179 414.216 191.54 400.958 C 191.066 397.122 190.564 393.288 190.04 389.458 C 189.364 384.525 190.678 380.755 195.507 378.382 C 198.27 377.024 200.472 374.631 201.997 371.931 C 204.247 367.945 205.823 363.996 202.626 359.401 C 198.773 353.861 195.09 348.832 187.559 347.846 C 178.369 346.643 169.675 346.688 161.496 351.881 C 158.534 353.761 156.206 355.98 154.557 358.965 C 150.894 365.594 153.397 373.521 161.087 377.883 C 168.15 381.89 175.661 384.508 184.064 382.023 C 186.065 381.431 187.833 382.956 189.544 383.958"/>
    <path fill="none" opacity="1.000000" stroke="#000000" stroke-linecap="round" stroke-linejoin="round" stroke-width="7.500000" d="M 170.044 296.958 C 168.196 302.223 163.818 305.912 161.494 310.934 C 154.148 326.803 149.609 343.566 145.617 360.475 C 142.786 372.464 145.187 384.542 146.699 396.438 C 148.298 409.032 151.141 421.476 155.574 433.447 C 158.249 440.672 161.211 447.791 164.044 454.958"/>
    <path fill="none" opacity="1.000000" stroke="#000000" stroke-linecap="round" stroke-linejoin="round" stroke-width="13.500000" d="M 624.544 368.958 C 624.833 372.171 622.351 370.891 621.044 370.901 C 609.378 370.998 597.711 370.893 586.045 370.975 C 572.877 371.067 559.711 371.292 546.544 371.457 C 542.207 371.512 537.879 370.753 533.511 371.821 C 532.383 372.097 529.415 373.55 529.544 369.958"/>
    <path fill="none" opacity="1.000000" stroke="#000000" stroke-linecap="round" stroke-linejoin="round" stroke-width="7.500000" d="M 339.044 240.958 C 346.947 256.034 364.186 259.37 375.591 255.597 C 378.453 254.65 380.517 252.46 383.515 251.821 C 384.953 251.515 384.859 249.578 384.595 247.95 C 383.124 238.896 377.049 234.353 369.053 231.434 C 359.18 227.83 349.854 228.565 341.044 234.458"/>
    <path fill="none" opacity="1.000000" stroke="#000000" stroke-linecap="round" stroke-linejoin="round" stroke-width="13.500000" d="M 258.544 497.458 C 263.52 500.335 268.571 503.868 273.676 505.56 C 284.242 509.063 294.825 512.873 306.016 514.637 C 315.055 516.062 324.032 516.012 333.042 515.839 C 336.763 515.767 338.337 517.491 338.452 520.461 C 338.689 526.53 340.816 532.137 341.987 537.969 C 342.283 539.446 342.335 541.257 343.584 541.878 C 348.382 544.262 350.542 550.518 356.547 550.918 C 364.754 551.464 366.985 550.615 372.62 542.51 C 378.232 534.439 375.546 526.225 373.998 517.966 C 373.436 514.97 371.717 512.142 373.044 508.958"/>
    <path fill="none" opacity="1.000000" stroke="#000000" stroke-linecap="round" stroke-linejoin="round" stroke-width="13.500000" d="M 342.544 542.458 C 342.211 543.791 341.552 545.135 341.595 546.456 C 341.995 558.788 340.696 571.139 342.431 583.474 C 343.121 588.377 342.592 593.458 342.536 598.458 C 342.307 618.967 344.296 639.441 343.519 659.957 C 343.462 661.444 344.052 662.647 344.484 663.977 C 344.956 665.43 344.109 666.189 342.544 665.958"/>
    <path fill="none" opacity="1.000000" stroke="#000000" stroke-linecap="round" stroke-linejoin="round" stroke-width="13.500000" d="M 56.044 369.708 C 70.711 369.791 85.378 369.835 100.044 369.969 C 114.382 370.1 128.693 371.401 143.044 370.958"/>
    <path fill="none" opacity="1.000000" stroke="#000000" stroke-linecap="round" stroke-linejoin="round" stroke-width="13.500000" d="M 308.544 63.958 C 308.655 74.798 310.223 85.598 309.49 96.454 C 309.394 97.883 310.247 98.789 310.512 99.965 C 310.852 101.474 310.109 102.189 308.544 101.958"/>
    <path fill="none" opacity="1.000000" stroke="#000000" stroke-linecap="round" stroke-linejoin="round" stroke-width="13.500000" d="M 55.544 367.958 C 55.833 371.171 53.302 370.005 52.052 369.884 C 40.566 368.769 29.054 368.978 17.544 368.958"/>
    <path fill="none" opacity="1.000000" stroke="#000000" stroke-linecap="round" stroke-linejoin="round" stroke-width="13.500000" d="M 510.544 319.458 C 508.516 319.294 506.479 321.055 504.425 318.556 C 502.909 316.713 500.617 318.143 498.517 318.88 C 485.738 323.369 472.878 327.627 460.04 331.945 C 459.741 332.046 459.378 331.958 459.044 331.958"/>
    <path fill="none" opacity="1.000000" stroke="#000000" stroke-linecap="round" stroke-linejoin="round" stroke-width="13.500000" d="M 493.544 321.958 C 495.917 325.247 496.253 329.312 497.356 333.014 C 498.119 335.577 498.415 338.04 500.516 339.988 C 502.836 342.139 502.02 345.504 502.265 347.985 C 503.432 359.796 506.757 371.535 505.363 383.437 C 504.522 390.627 504.327 398.033 501.628 404.99 C 500.806 407.107 501.739 409.588 501.137 411.981 C 500.136 415.963 498.642 419.716 497.044 423.458"/>
    <path fill="none" opacity="1.000000" stroke="#000000" stroke-linecap="round" stroke-linejoin="round" stroke-width="13.500000" d="M 524.044 242.458 C 530.219 250.17 535.419 258.539 540.544 266.958"/>
    <path fill="none" opacity="1.000000" stroke="#000000" stroke-linecap="round" stroke-linejoin="round" stroke-width="13.500000" d="M 225.544 496.958 C 226.846 499.466 227.146 502.219 227.557 504.956 C 228.213 509.334 231.698 512.686 236.047 512.907 C 237.808 512.997 239.459 513.22 241.044 513.958"/>
    <path fill="none" opacity="1.000000" stroke="#000000" stroke-linecap="round" stroke-linejoin="round" stroke-width="13.500000" d="M 344.294 666.458 C 344.378 673.624 344.421 680.792 344.561 687.957 C 344.63 691.459 344.878 694.958 345.044 698.458"/>
    <path fill="none" opacity="1.000000" stroke="#000000" stroke-linecap="round" stroke-linejoin="round" stroke-width="13.500000" d="M 431.544 506.458 C 430.806 508.044 430.73 509.741 430.475 511.447 C 429.383 518.751 424.614 521.69 417.566 519.39 C 415.837 518.826 414.219 519.048 412.544 518.958"/>
    <path fill="none" opacity="1.000000" stroke="#000000" stroke-linecap="round" stroke-linejoin="round" stroke-width="7.500000" d="M 465.044 505.958 C 459.378 511.291 453.711 516.624 448.044 521.958"/>
    <path fill="none" opacity="1.000000" stroke="#000000" stroke-linecap="round" stroke-linejoin="round" stroke-width="7.500000" d="M 406.544 250.958 C 406.044 249.791 405.444 248.656 405.061 247.452 C 402.947 240.805 398.043 238.964 392.573 242.997 C 390.11 244.813 388.51 247.696 385.544 248.958"/>
    <path fill="none" opacity="1.000000" stroke="#000000" stroke-linecap="round" stroke-linejoin="round" stroke-width="13.500000" d="M 529.044 371.708 C 521.544 371.791 514.044 371.874 506.544 371.958"/>
    <path fill="none" opacity="1.000000" stroke="#000000" stroke-linecap="round" stroke-linejoin="round" stroke-width="13.500000" d="M 652.544 370.458 C 643.369 369.613 634.223 371.926 625.044 370.708"/>
    <path fill="none" opacity="1.000000" stroke="#000000" stroke-linecap="round" stroke-linejoin="round" stroke-width="13.500000" d="M 116.544 402.958 C 113.878 404.291 110.883 405.216 108.609 407.039 C 103.072 411.479 101.574 417.76 102.631 424.444 C 103.675 431.043 109.912 436.962 116.551 437.912 C 130.834 439.957 137.937 431.257 138.271 420.949 C 138.573 411.611 131.518 403.418 121.544 402.967 C 120.047 402.9 118.544 402.958 117.044 402.958"/>
    <path fill="none" opacity="1.000000" stroke="#000000" stroke-linecap="round" stroke-linejoin="round" stroke-width="13.500000" d="M 434.436 384.069 C 433.576 371.792 433.176 359.499 429.506 347.548 C 424.846 332.396 417.586 318.864 406.976 307.038 C 396.516 295.387 384.366 286.282 369.956 280.018 C 352.476 272.416 334.256 269.519 315.446 271.666 C 290.368 274.529 268.468 284.726 251.018 303.144 C 234.718 320.344 224.508 340.626 221.878 364.563 C 217.378 405.49 231.648 438.462 263.478 464.022 C 277.488 475.272 293.846 481.576 311.446 484.509 C 324.486 486.681 337.586 485.909 350.426 483.003 C 378.926 476.546 401.116 460.298 417.226 436.425 C 426.696 422.383 432.066 406.24 433.466 389.072 C 433.586 387.555 434.106 386.069 434.436 384.569" style="stroke-width: 9;"/>
  </g>
</svg>
