<?xml version="1.0" encoding="utf-8"?>
<!-- Generator: Adobe Illustrator 27.7.0, SVG Export Plug-In . SVG Version: 6.00 Build 0)  -->
<svg version="1.1"
	 id="svg47" xmlns:svg="http://www.w3.org/2000/svg" xmlns:sodipodi="http://sodipodi.sourceforge.net/DTD/sodipodi-0.dtd" xmlns:inkscape="http://www.inkscape.org/namespaces/inkscape" inkscape:version="1.4.2 (ebf0e940d0, 2025-05-08)" sodipodi:docname="left_test.svg"
	 xmlns="http://www.w3.org/2000/svg" xmlns:xlink="http://www.w3.org/1999/xlink" x="0px" y="0px" viewBox="0 0 639.5 639.1"
	 style="enable-background:new 0 0 639.5 639.1;" xml:space="preserve">
<style type="text/css">
	.st0{fill:none;stroke:#000000;stroke-width:3;stroke-linecap:round;stroke-linejoin:round;}
	.st1{fill-rule:evenodd;clip-rule:evenodd;fill:none;}
	.st2{clip-path:url(#SVGID_00000166649924078590448020000014913132799281034146_);fill-rule:evenodd;clip-rule:evenodd;fill:none;}
</style>
<defs>
	<inkscape:path-effect  effect="spiro" id="path-effect58" is_visible="true" lpeversion="1"></inkscape:path-effect>
	<inkscape:path-effect  effect="spiro" id="path-effect58-3" is_visible="true" lpeversion="1"></inkscape:path-effect>
</defs>
<sodipodi:namedview  bordercolor="#000000" borderopacity="0.25" id="namedview47" inkscape:current-layer="region" inkscape:cx="191.78037" inkscape:cy="313.23078" inkscape:deskcolor="#d1d1d1" inkscape:pagecheckerboard="0" inkscape:pageopacity="0.0" inkscape:showpageshadow="2" inkscape:window-height="1012" inkscape:window-maximized="1" inkscape:window-width="1920" inkscape:window-x="2240" inkscape:window-y="40" inkscape:zoom="4.7632612" pagecolor="#ffffff" showguides="false">
	<sodipodi:guide  id="guide47" inkscape:locked="false" orientation="1,0" position="321.62866,644.09626"></sodipodi:guide>
	<sodipodi:guide  id="guide48" inkscape:locked="false" orientation="0,-1" position="-141.07993,319.10897"></sodipodi:guide>
	<sodipodi:guide  id="guide49" inkscape:locked="false" orientation="1,0" position="217.49823,617.22393"></sodipodi:guide>
	<sodipodi:guide  id="guide50" inkscape:locked="false" orientation="1,0" position="188.10658,601.26848"></sodipodi:guide>
</sodipodi:namedview>
<g id="g47" transform="translate(-7.3117924,-8.9741507)">
	<path id="path1" class="st0" d="M439.9,336.5c-0.9-12.3-1.3-24.6-4.9-36.5c-4.7-15.2-11.9-28.7-22.5-40.5
		c-10.5-11.7-22.6-20.8-37-27c-17.5-7.6-35.7-10.5-54.5-8.4c-25.1,2.9-47,13.1-64.4,31.5c-16.3,17.2-26.5,37.5-29.1,61.4
		c-4.5,40.9,9.8,73.9,41.6,99.5c14,11.2,30.4,17.6,48,20.5c13,2.2,26.1,1.4,39-1.5c28.5-6.5,50.7-22.7,66.8-46.6
		c9.5-14,14.8-30.2,16.2-47.4c0.1-1.5,0.6-3,1-4.5"/>
	<path id="path2" class="st0" d="M386.4,457.5c5.5,13,11,26,16.5,39c8.8,20.8,17.7,41.7,26.5,62.5c4.7,11.1,9.1,22.4,14.1,33.5
		c3.4,7.6,6,15.6,9.8,23.1c0.8,1.7,1.9,3.2,2.7,4.9"/>
	<path id="path3" class="st0" d="M469.4,49c-10.7,22-21.3,44-32,66c-10.3,21.3-20.7,42.7-31,64c-4.3,8.9-8.7,17.7-13,26.5"/>
	<path id="path4" class="st0" d="M284.9,489c-3.8,2.5-4.4,6.9-5.3,10.5c-4,16-9.7,31.6-14.3,47.4c-7.8,26.5-16.7,52.7-24.6,79.1
		c-1,3.4-3.4,6.6-2.7,10.4"/>
	<path id="path5" class="st0" d="M157,347.8c-10.7,1.5-21.3,3-32,4.5c-11,1.6-22,3.8-33,4.8c-8.5,0.8-16.9,2.5-25.5,3.3
		c-8.2,0.7-16.3,2.5-24.5,3.6c-6.1,0.9-12.3,1.5-18.5,2.3c-3.7,0.5-7.3,1-11,1.5"/>
	<path id="path6" class="st0" d="M161.4,61c11.3,19.3,24,37.7,36,56.5c17.3,26.9,34.6,53.7,52,80.5c3.2,5,8.4,8.7,9.4,15"/>
	<path id="path7" class="st0" d="M198.9,364c-9.2,2.7-18.4,5.2-27.5,8c-34.5,10.8-69,21.7-103.5,32.5c-15.1,4.7-30.3,9.3-45.5,14"/>
	<path id="path8" class="st0" d="M504.4,70c-11.9,19.7-25,38.7-37.5,58c-11.3,17.4-22.3,35-33.6,52.5c-7,10.8-14.3,21.4-21.5,32"/>
	<path id="path9" class="st0" d="M249.4,471.5c0.8,2.2-0.2,4.2-1.1,6c-12.3,24.9-24.7,49.7-36.9,74.5c-8.8,17.8-17.3,35.7-26.1,53.5
		c-1.2,2.5-3,4.7-4.5,7"/>
	<path id="path10" class="st0" d="M160.9,292.5c-10.1-3.5-20.7-5.6-31-8.5c-26-7.1-52.2-13.4-78-20.8c-9.2-2.6-18.6-4.9-28-7.2
		c-1.5-0.4-3-0.4-4.5-0.5"/>
	<path id="path11" class="st0" d="M126.4,86c3.3,5.9,8.3,10.4,12.6,15.4c18.7,22.3,37.5,44.4,56.5,66.5c15.7,18.4,31.7,36.7,47.5,55
		"/>
	<path id="path12" class="st0" d="M201.9,284c-10-1.8-19.4-5.7-29-9.1c-22.2-7.9-44.3-16-66.5-24c-21-7.6-42.1-15.2-63-22.9
		c-4.2-1.6-8.9-2.4-12.5-5.4"/>
	<path id="path13" class="st0" d="M368.9,463.5c0.8,7.5,3.2,14.7,4.8,22c4.8,21.5,9.8,43,14.7,64.5c3.3,14.5,6.6,29,10,43.5
		c2.9,12.5,6.1,25,8.9,37.5c0.6,2.5,2.2,4.5,2.6,7"/>
	<path id="path14" class="st0" d="M100.4,111.5c11.2,11.5,23.1,22.3,34.4,33.6c30.9,30.6,62.9,60.1,94.1,90.4"/>
	<path id="path15" class="st0" d="M420.4,465c0.1,3.6,2.3,6.3,4.1,9c18.2,28.1,36.6,56,54.9,84.1c7.9,12.1,15.7,24.3,23.5,36.5"/>
	<path id="path16" class="st0" d="M556.9,116.5c-15.5,14.7-31,29.3-46.5,44c-20.7,19.5-41.2,39.1-62.1,58.4
		c-4.9,4.5-9.6,9.1-14.4,13.6"/>
	<path id="path17" class="st0" d="M451.4,399.5c1.5,1.3,2.8,3.1,4.5,3.9c5.8,2.9,10.6,6.9,14.4,12.1c2.3,3.2,5.6,4.4,8.9,6.1
		c11.3,6,22.1,12.8,33.1,19.3c20.8,12.3,41.7,24.7,62.5,37c7.7,4.5,15.3,9,23,13.5"/>
	<path id="path18" class="st0" d="M457.9,389.5c11.9,6.3,23.8,12.1,36.9,15.8c6.5,1.9,12.7,5.8,19.1,8.8
		c26.2,12.4,52.6,24.2,79,35.9c7.3,3.3,14.7,6.7,22,10"/>
	<path id="path19" class="st0" d="M425.9,431.5c-0.1,2,0.9,3.6,2,5c2.4,3,4.8,6,6.6,9.4c1.5,2.8,5.2,3.9,7.5,6.5
		c12.9,14.9,26.2,29.4,39.4,44.1c16.5,18.5,33.1,36.9,49.4,55.5c3.1,3.6,6.2,7.1,9.6,10.4"/>
	<path id="path20" class="st0" d="M322.9,192c7.2-0.2,14.6-1.3,21.4-0.2c14.4,2.4,28.9,5.2,42.6,11.1c27.4,11.8,48.5,30.8,63.9,56.1
		c7,11.4,11.4,24.1,15.1,37c0.6,2-0.9,3.1-2.5,4c-5.3,3.2-8.3,8.1-8.9,14c-0.5,4.8,2.6,8.9,6.5,10.8c8.3,4.1,9.9,10.5,8.9,18.7
		c-1.1,9.3-2.3,18.8-5.8,27.4c-3.5,8.6-6.2,17.8-11.6,25.7c-1.6,2.4-3.3,3.2-5.7,3.4c-2.5,0.2-5,0-7.5,0
		c-11.9,0.1-18.3,9.7-13.4,20.5c1.2,2.6,2.2,5.2,2.5,7.8c1.2,0.6,2.6,0.9,3.4,1.7c5.6,5.5,12.9,8.2,19.6,11.8
		c2.6,1.4,2.7,4.1,4.9,5.7c8.4,6.2,16.4,12.9,24.6,19.4c17.7,14.2,35.3,28.4,53,42.5c10.9,8.7,22,17.3,33,26"/>
	<path id="path21" class="st0" d="M647.9,319.5c-19.7,0.2-39.4-0.4-59,0.7c-21,1.2-42,0.3-63,0.7c-3,0.1-5.9,2.4-9,0.6"/>
	<path id="path22" class="st0" d="M601.9,178.5c-26.5,16.2-53,32.4-79.5,48.5c-10.9,6.6-21.5,13.9-32.7,19.7
		c-11.6,6-22.9,12.9-35.3,17.4"/>
	<path id="path23" class="st0" d="M231.4,457c-5.4,3.1-8.7,8.4-12.4,13.1c-14.7,18-29.1,36.3-43.6,54.4
		c-14.2,17.8-28.3,35.7-42.5,53.5c-0.7,0.8-1.3,1.7-2,2.5"/>
	<path id="path24" class="st0" d="M230.4,424.5c-9.3,9.6-19.3,18.3-28.8,27.7c-7.2,7.1-15.1,13.9-22.6,20.9
		c-15.7,14.5-30.9,29.5-46.6,43.9c-11.4,10.5-22.5,21.1-33.4,32.1"/>
	<path id="path25" class="st0" d="M538.4,350c0.2,1.2-0.1,1.8-1.5,2c-10.7,2.2-15.8,9.5-14.5,21c0.9,7.8,9.8,14.6,18,14
		c10.2-0.8,16.9-9,17.1-17.5c0.2-8.9-8.8-19.1-17.1-17.5c-0.5,0.1-1-0.1-1.5-0.2"/>
	<path id="path26" class="st0" d="M31.9,323.8c40,0.1,80,0.2,120,0.3c1.3,0,2.7,0.3,4,0.5"/>
	<path id="path27" class="st0" d="M306.4,15c-0.4,11.8,1.8,23.3,2.6,35c0.6,9.3,1.7,18.7,2.6,28c1.2,12.5,1.8,25.1,3.7,37.5
		c0.7,4.3,0.5,8.7,1,13c1.7,16.6,2.4,33.4,4.4,50c0.5,4.1-2.6,8.9,1.7,12.6c0.3,0.2,0,1.2-0.4,2c-9.2,15.2-28.8,21.4-44.4,10.8
		c-2.9-2-5.5-5.1-8.2-7.7c-5.7-5.3-10.5-3.9-13.4,3.4c-0.5,1.2-1,2.3-1.5,3.5"/>
	<path id="path28" class="st0" d="M470.4,332.5c3.9-2.4,8.3-1.2,12.5-1.5c8.2-0.5,15.3-3.1,20.5-10c5.5-7.2,2.2-15.1-3.1-18.9
		c-8.2-5.9-17.5-7.6-27.5-5.2c-2,0.5-4.4,0.5-6.5-0.4"/>
	<path id="path29" class="st0" d="M49.9,181.5c7.2,5.6,15.6,9.1,23.5,13.5c13.8,7.7,27.4,15.8,41.6,22.9
		c18.6,9.3,36.4,20.2,54.9,29.7c12.9,6.6,25.4,13.9,38,20.9"/>
	<path id="path30" class="st0" d="M489.9,248c0.5,1.2,0.7,2.6,1.5,3.5c10.7,11.8,13.5,27.4,18.7,41.6c3.2,8.8,4.7,18.6,5.9,28
		c0.8,6.5-0.9,13.6-1.8,20.4c-1.3,10.8-3.2,21.5-6.3,32c-3.2,10.8-7,21.2-11.5,31.5"/>
	<path id="path31" class="st0" d="M277.4,204.5c-0.4,1.7-1.3,3.2-1.6,5c-0.8,5.8-5.4,8.8-10.3,5.8c-4.6-2.7-7.6-1.5-11.1,1.2
		c-13.5,10.1-25.5,21.6-35,35.5c-5.8,8.6-10.9,17.7-14.5,27.5c-5,13.9-7.9,28.1-8.8,43c-0.8,13.6,0.5,26.9,3.5,40
		c2.4,10.4,6.6,20.4,11.6,30.1c5.6,11.1,13.1,20.8,20.8,30.3c3.6,4.5,8.2,8.1,12.4,12.1"/>
	<path id="path32" class="st0" d="M74.4,143.5c10.8,9.6,22.6,17.7,34,26.5c9.1,7,18.5,13.4,27.4,20.6c11.4,9.2,23.6,17.3,35.1,26.4
		c11.7,9.2,23.9,17.7,35.9,26.6c3.7,2.7,7.3,5.3,11,8"/>
	<path id="path33" class="st0" d="M351.9,15c-0.4,14.5-1.2,29-1.7,43.5c-0.5,15.7-1.1,31.4-2.1,47c-0.5,7.9-0.2,15.7-0.8,23.5
		c-1.2,16.3-1.7,32.6-2.1,49c-0.1,4.3-0.8,8.6-0.8,13"/>
	<path id="path34" class="st0" d="M351.4,494c-1.5-0.1-2.2,0.5-2,2c1.4,8.3,1.4,16.7,2.1,25c1.1,12.8,1.1,25.7,2.7,38.5
		c0.8,6.2,0.5,12.6,1,19c1.4,19.6,2,39.3,3.3,59c0.2,3.5,0.8,7,0.8,10.5"/>
	<path id="path35" class="st0" d="M318.4,492.5c-3.6,1.5-5.1,5.2-8.4,7.1c-8.7,5.2-15.8,1.7-20.7-5c-5.6-7.7-2.9-15.7-2.3-23.6
		c0.3-3.2,2-6.2,1.9-9.5c0-0.5-0.2-1.4,0-1.4c5.4-2.3,8.2-8,13.9-10.2c5.9-2.2,13.3,1.2,16.6,7.6c1.3,2.7,2.6,5.4,4.1,8
		c0.5,0.8,1.4,1.7,0.9,2.5c-3.8,5.3-0.7,12-3.8,17.6c-1.9,3.4-0.7,7.5-0.4,11.4c0.5,7.6,1.3,15.4-0.7,23c-0.4,1.6-0.1,3.3-0.1,5
		c0.2,16.7-0.1,33.3-1,50c-0.1,1.6-0.5,3.4,0.5,5"/>
	<path id="path36" class="st0" d="M319.4,186c-6.8-3.5-13.8-5.2-21.5-4.1c-11.4,1.6-19.3,8.1-22,19.1"/>
	<path id="path37" class="st0" d="M474.4,421c-0.2,1.2-0.6,2.4-0.5,3.5c1,11.3-5.8,15.5-14.5,16.5c-2.1,0.2-4.2,0.1-6,1.6"/>
	<path id="path38" class="st0" d="M169.5,274c-2.3,3.7-2.3,8-3.5,12c-0.4,1.3-0.2,3.4-1.1,3.9c-4.1,2.4-3.3,6.9-3.7,10.2
		c-1.6,12.3-4.4,24.6-3,36.9c0.8,7,0.7,14.3,3.7,21.1c1.1,2.5,0.1,5.6,0.9,8.5c0.7,2.6,1.6,4.9,3.2,6.9"/>
	<path id="path39" class="st0" d="M232.4,457.5c0.9,1.7,0.9,3.6,1,5.5c0.6,6.5,5,8.8,11.5,8.2c9.8-0.9,11.7-9.4,16.3-15.3
		c1.5-1.9,3-4,4.7-6.2c-1-2.1-1.7-4.5-1.6-7.2c0.1-7.7-5.1-11.8-12.4-9.3c-2.4,0.8-4.8,0.8-6.9,2.2c-3.8,7.3-9.8,13.7-13.1,21.6"/>
	<path id="path40" class="st0" d="M427.9,429c-2.8,3.8-5.6,1.1-8.5,0.1c-4-1.4-8.1-2.5-12,0.9c-1.5,1.3-2.2,2.8-3.1,4.5
		c-2.2,4.2-1.2,9.1-0.3,12.4c1.3,4.6,5.9,8.4,9.6,12c0.9,0.9,2.5,1.6,3.3,2.7c2.7,3.5,6,3.3,9.6,1.9c3.9-1.5,6.6-3.8,7.2-8.5
		c0.3-2.3-0.6-5,1.3-7"/>
	<path id="path41" class="st0" d="M320.4,580c-3-0.2-1.9,2.1-2,3.5c-0.3,21.8-1.5,43.7-1,65.5"/>
	<path id="path42" class="st0" d="M403.4,448c-10.7,5.4-21.3,10.8-33,14.1c-4.6,1.3-9.4,1.9-14,3.1c-10.4,2.8-21,1.6-31.5,1.9"/>
	<path id="path43" class="st0" d="M266.4,450c7.2,3.7,14.5,7.1,22,10"/>
	<path id="path44" class="st0" d="M347.9,468c0.7,8.7,1.3,17.3,2,26"/>
	<path id="path45" class="st0" d="M201.9,453.5c5.8,5.2,11.7,10.3,17.5,15.5"/>
	<path id="path46" class="st0" d="M10.9,323c5.9,1.6,12.1-1.2,18,0.9c1.2,0.4,2.9,0.2,2.5-1.9"/>
	<path id="path47" class="st0" d="M299.9,11.7c-7.3-1.4-14.5,0.6-21.5,1.7c-13.8,2.2-27.6,5.2-41,9.2c-13.3,4-26.3,8.5-38.9,14.2
		c-15.8,7.1-31.1,15.3-45.5,24.9c-16.1,10.6-31,22.6-45.1,35.9c-23.3,21.9-42.6,46.9-58.4,74.6c-13.4,23.5-23.3,48.4-30.6,74.5
		c-3.3,11.6-6,23.3-7.7,35.1c-3.2,22.2-3,44.6-2.3,67c0.4,14.4,2.5,28.4,5.1,42.5c3.4,18,8.9,35.4,15.4,52.5
		c7.3,19.3,16.7,37.5,27.7,54.9c8,12.7,17.2,24.5,26.7,36.2c9.1,11.3,19.5,21.3,29.9,31.1c14.3,13.6,30.5,24.8,47.3,35.2
		c16.7,10.3,34.3,18.9,52.6,25.8c9.7,3.7,19.8,6.5,29.9,9.4c13.1,3.8,26.3,6.8,39.6,8.4c12.2,1.5,24.6,2.5,37,3
		c9.9,0.4,19.7-0.4,29.5-1c21-1.3,41.8-4.8,62-10.9c18.3-5.5,36.4-11.6,53.5-20.4c20.7-10.6,40.6-22.4,58.7-37.3
		c10-8.3,20.2-16.5,29.3-25.8c24.8-25.4,45.4-53.8,60.6-85.9c7.3-15.4,13.8-31.1,18.6-47.5c4.4-15,8.1-30.1,10.2-45.5
		c1.1-8.2,1.8-16.6,2.5-24.9c0.9-11.2,0.6-22.4,0.6-33.5c0-8.5-0.8-17.1-2-25.5c-1.6-11.6-3.2-23.2-6.1-34.5c-3.4-13-7-26-12.1-38.6
		c-4.3-10.8-8.4-21.7-13.8-31.8c-8.3-15.6-17.2-30.8-27.6-45.3c-11.9-16.6-25.7-31.3-40.4-45.2c-13.9-13.2-29.2-24.8-45.4-35
		c-22.6-14.3-46.5-25.8-72-34c-16-5.2-32.4-9.3-49-11.9c-23.7-3.8-47.6-3.4-71.5-3.1c-1.9,0-3.3,1.1-5,1.5"/>
</g>
<g id="region" inkscape:label="region">
	<path id="path49" inkscape:label="frontalsinus" class="st1" d="M118.2,73.6l117.6,140.1l14.8-10.7L151.4,49.9L118.2,73.6z"/>
	<path id="path50" inkscape:label="Hypothalmus" class="st1" d="M299.9,2.4l15.4,179.9l20.2-1.2l8.9-177.5L299.9,2.4z"/>
	<path id="path52" inkscape:label="Medulla" class="st1" d="M463.8,36.8l35,20.8l-95.6,147.6l-16.3-9.5L463.8,36.8z"/>
	<path id="path51" inkscape:label="Midbrain / Hindbrain" class="st1" d="M346.2,2.4l0,0.6c-0.4,0-0.6,0-0.6,0l0.6,0.2l-7.7,178
		l48.7,14.8l77.8-160.3l-10.8-3v0C405.9,7.7,360.8,3.7,348.7,3.1c0,0,0,0,0,0L346.2,2.4z"/>
	<path id="path53" inkscape:label="Ear" class="st1" d="M499.4,58.5l-0.3,0.5c-0.2-0.1-0.3-0.2-0.3-0.2l0.3,0.2l-95,147.6l21.7,17.8
		l127-120l0.4,0.3c-0.1-0.1-0.2-0.3-0.3-0.4l1.2-1.1l-6.2-5.1c-16.3-18.8-37.6-32.6-45.7-37.5c0,0,0,0,0,0L499.4,58.5z"/>
	<path id="path54" inkscape:label="Neck / Shoulder" class="st1" d="M553.1,105.4L424.9,225.1l22,29.7l8.4-4.9
		c15.1-7.2,50.3-25.5,109.2-63.1l-14.6,8.3l48.2-27.9l-0.7-1c-2.4-5.4-15-31.9-43.8-60.5l9.5,13.2L553.1,105.4z"/>
	<path id="path55" inkscape:label="Lung" class="st1" d="M597.7,168l-0.8,0.5c-0.1-0.1-0.1-0.2-0.1-0.2l0.1,0.2l-114.4,69.3l3,5
		l3,2.4l5,9.5l13.1,35.9l3,20.8l4.2,0.9l3-1.8l120.8-1.5l-0.6-2.2c-1.4-65.2-30.3-121.2-38.1-135.2c0,0,0,0,0,0L597.7,168z"/>
	<path id="path56" inkscape:label="Chest" class="st1" d="M636.3,311.2l-0.1,0.6l-127.5,1.8l-0.1,0.4l-6.7,48.3
		c0,0-7.7,20.2-11.7,29.7c0,0,0,0,0,0l-0.8,3.2l118.8,55.2l0.3-1.5C642.2,383.2,636.3,311.2,636.3,311.2L636.3,311.2z M531.8,344.3
		c3.6,0,7.1,1.3,10,3.5c3.2,2.5,5.4,6.3,6,10.4s-0.4,8.3-2.8,11.7s-6,5.8-10,6.6c-1.5,0.3-3,0.4-4.5,0.3c-4-0.3-7.9-2.1-10.7-5.1
		c-2.8-2.9-4.4-6.9-4.4-11s1.5-8.1,4.2-11c2.7-3,6.6-4.9,10.6-5.3C530.8,344.4,531.3,344.3,531.8,344.3L531.8,344.3z"/>
	
		<path id="path58" inkscape:label="Breast" inkscape:original-d="m 1314.7916,415.14712 c -1.5835,-10.68841 0.2969,21.37682 0.2969,32.36213 0,10.98531 2.969,-0.19793 4.4535,-0.2969 1.4845,-0.099 -3.1669,-21.37682 -4.7504,-32.06523 z" inkscape:path-effect="#path-effect58-3" class="st1" d="
		M530.3,344.3c-4,0.4-7.9,2.3-10.6,5.3c-2.7,3-4.2,7-4.2,11c0,4,1.6,8,4.4,11c2.8,2.9,6.7,4.8,10.7,5.1c1.5,0.1,3,0,4.5-0.3
		c4-0.8,7.7-3.2,10-6.6c2.3-3.4,3.3-7.6,2.7-11.7c-0.6-4.1-2.8-7.8-6-10.4S534.4,343.9,530.3,344.3L530.3,344.3z"/>
	<path id="path59" inkscape:label="Arm" class="st1" d="M450.1,381.5l159.1,70.7l-16.3,30.6l-127.7-74.2c0,0-7.4-9.5-9.2-10.4
		s-11.3-8.6-11.3-8.6L450.1,381.5z"/>
	<path id="path60" inkscape:label="Spleen" class="st1" d="M467.6,410.9l122.6,72.7l-29.1,42.5l-112.2-88.5l-2.7-4.2l14-3.3l5.9-5.3
		L467.6,410.9z"/>
	<path id="path61" inkscape:label="Liver" class="st1" d="M443.6,390.1l-16.3,1.2l-10.4,8.9l5,19.6l23.8,14.3l17.8-5.6l4.5-17.5
		L443.6,390.1z"/>
	<path id="path62" inkscape:label="Dlaphragm" class="st1" d="M422.2,420.1l22.3,13.7l3.6,4.8l111.3,88.8l-24.6,26.1L433.5,441.8
		l-5.3-5l-10.4-13.4L422.2,420.1z"/>
	<path id="path63" inkscape:label="Ovary/Testes" class="st1" d="M428.1,438.5l6.2,4.8l98.9,111.6l-37.1,28.5l-81.9-124.1v-3.9
		l9.8-2.1L428.1,438.5z"/>
	<path id="path64" inkscape:label="Pelvis" class="st1" d="M412.1,454.6l0.6,5.3l82.2,125.3l-46,24.9l-69.5-163.9l17.2-6.5l6.8,9.2
		L412.1,454.6z"/>
	<path id="path65" inkscape:label="Pancreas" class="st1" d="M403.8,419.8c0,0-14,5.3-4.5,21.4s18.4,14.8,24.9,10.4
		C430.8,447.1,425.5,416.8,403.8,419.8z"/>
	<path id="path66" inkscape:label="Abdominal Wall" class="st1" d="M361.3,453.4l41,174.6l45.1-16.9l-69.2-162.7L361.3,453.4z"/>
	<path id="path67" inkscape:label="Groin" class="st1" d="M340.8,457.8l11.6,179.6l49.6-10.4l-41-174L340.8,457.8z"/>
	<path id="path68" inkscape:label="Leg" class="st1" d="M339.1,458.1l12.8,180.2l-41,0.9l2.4-160.6l4.2-21.4L339.1,458.1z"/>
	<path id="path69" inkscape:label="Kidney" class="st1" d="M278.5,480.7l-3.3,3l-44.5,142.5l41,9.5l37.7,3.6l2.1-127.7l2.7-10.1
		l-1.8-18.7C312.3,482.8,288.6,508,278.5,480.7L278.5,480.7z"/>
	<path id="path70" inkscape:label="Adrenals" class="st1" d="M280.9,451.3l16.6-11l9.2,2.4l10.1,15.7l-5,25.8l-6.5,5.3l-12.8,4.2
		l-12.8-11L280.9,451.3z"/>
	<path id="path71" inkscape:label="Anus" class="st1" d="M258.3,442.1l22,9.8l-2.4,28.2l-4.2,3l-43.6,143.1l-55.2-22.3l68.3-138.9
		l-1.5-4.2l4.2-1.8L258.3,442.1z"/>
	<path id="path72" inkscape:label="Vagina/Penis" class="st1" d="M124.7,571.2l49.6,32.4l67.4-137.2l-0.3-4.2l-12.2-0.6l-4.5-13.1
		l-6.8,3.6L124.7,571.2z"/>
	<path id="path73" inkscape:label="Prostate/Uterus" class="st1" d="M238.7,425.5l11.9-1.2l5.3,3.3l2.4,14.5l-13.1,18.1l-13.7,1.5
		l-5-4.8l-1.2-10.7L238.7,425.5z"/>
	<path id="path74" inkscape:label="eye" class="st1" d="M236.6,215.5L117.3,74.8l-27,24.3l133.6,128.6L236.6,215.5z"/>
	<path id="path75" inkscape:label="Upper Jaw" class="st1" d="M62.6,130l150.2,113.4l10.7-14.8L90.3,99.5L62.6,130z"/>
	<path id="path76" inkscape:label="Nose" class="st1" d="M38.3,170.4L203.1,261l9.2-16.9L62.3,131.5L38.3,170.4z"/>
	<path id="path77" inkscape:label="Mouth L. Jaw" class="st1" d="M19.3,212.3l177.2,63.2l5-15.1L38.3,171L19.3,212.3z"/>
	<path id="path78" inkscape:label="Voice Box Tonsile" class="st1" d="M9.5,245.2L155,283.5l3.6-3l3.6-16.6L18.7,212.9L9.5,245.2z"
		/>
	<path id="path79" inkscape:label="Thyroid" class="st1" d="M0,313.8l150.8,1.5l3.9-31.5L15.1,246.7l-6.5-0.3L0,313.8z"/>
	<path id="path80" inkscape:label="throat" class="st1" d="M3.6,359.2l147.6-21.1l-1.2-22.3L0.3,314.7L3.6,359.2z"/>
	<path id="path81" inkscape:label="Scapula" class="st1" d="M2.7,359.8l10.7,50.5l143.7-45.7l-5-25.5L2.7,359.8z"/>
	<path id="path82" inkscape:label="back" class="st1" d="M14.3,410.3l178.7-54l11,31.2l20.8,26.7L90.6,540.7
		C90.6,540.7,33.6,485.4,14.3,410.3L14.3,410.3z"/>
	<path id="path83" inkscape:label="Bladder" class="st1" d="M193.9,445.1L90.3,541.8l32.4,29.4L212,459.3L193.9,445.1z"/>
	<path id="path84" inkscape:label="hip" class="st1" d="M223.6,414.8L193.9,443l18.4,17.8l25.2-33.3L223.6,414.8z"/>
	<path id="path85" inkscape:label="Bronchials" class="st1" d="M162.4,264.5l-3,15.7l-4.5,4.2l-3.3,33.8l1.2,24.9l6.2,21.4
		l33.3-10.1l-4.8-23.8l1.8-34.1l6.2-20.8L162.4,264.5z"/>
	<path id="path86" inkscape:label="forebrain" class="st1" d="M152.3,48.1l94.7,147l3.3-9.8l8.3-0.6l9.5,8.3c0,0,5.6-29.1,43.6-16
		L298.1,1.8C298.1,1.8,223,3.6,152.3,48.1L152.3,48.1z"/>
	<path id="path87" inkscape:label="P" class="st1" d="M247.3,194.8c0,0,3-22.9,22,0.6C269.3,195.4,262.5,223.9,247.3,194.8z"/>
	<path id="path90" inkscape:label="pituitary" class="st1" d="M294.7,172.8c-18.1-0.3-26.3,20.7-26.3,20.7
		c22.3,12,33.5,5.6,38.9-2.1l8-7.4l-3.2-3.6v0c0.2-0.9,0.3-1.4,0.3-1.4C305.6,174.7,299.8,172.9,294.7,172.8L294.7,172.8z"/>
	<path id="path91" inkscape:label="bronchials" class="st1" d="M483.1,239.6l-35.3,15.7l11.3,33l21.7-2.1l15.1,8.6l3.6,10.4
		l-5.9,12.5l-15.7,5.3l-10.7-0.9l-4.8,2.7l1.8,8.3l-3.6,18.4l-10.7,27.6l38,16.9C487.8,396.1,535,323,483.1,239.6L483.1,239.6z"/>
	<path id="path92" inkscape:label="heart" class="st1" d="M472.3,288c-3.9-0.3-8.5-0.3-13.6,0c0,0-26.7,19.3,1.2,31.2
		c0.1,0,0.1,0.1,0.2,0.1c0,0,0,0,0,0l2.8,4.4l30.6-6.2l5.9-13.4l-5-8.6l-0.3,0.2C490.9,291.7,484.2,288.7,472.3,288L472.3,288z"/>
	<path id="path94-5" inkscape:label="stomach" class="st1" d="M326.3,215.1c-59,0-106.9,47.7-106.9,106.4
		c0,58.8,47.8,106.4,106.9,106.4c59,0,106.9-47.7,106.9-106.4C433.1,262.7,385.3,215.1,326.3,215.1z M326,239.6
		c44.9,0,81.2,36.4,81.2,81.2c0,44.9-36.4,81.2-81.2,81.2c-44.9,0-81.2-36.4-81.2-81.2C244.8,275.9,281.2,239.6,326,239.6
		C326,239.6,326,239.6,326,239.6z"/>
	<g>
		<defs>
			<path id="SVGID_1_" d="M188.5,182.6v274.2h92.6c-0.3-0.3-0.6-0.6-0.6-1c0-0.6,0.2-1.1,0.4-1.7c-2.4-2.1-1.4-5.1,1.5-5
				c0.7,0,1.4,0.2,2.2,0.6c0.3-0.5,0.7-0.9,1-1.2c0.6-0.6,1.3-1.1,1.9-1.6c0.6-0.6,1.4-1,2.2-1.4c0.1-0.1,0.2-0.1,0.3-0.2
				c0.3-0.2,0.3-0.2,0.6-0.4c0.2-0.1,0.5-0.3,0.7-0.4c0.2-0.2,0.4-0.4,0.7-0.6c0.2-0.2,0.3-0.2,0.5-0.4c0.4-0.3,0.9-0.6,1.3-1
				c0.5-0.3,1-0.6,1.5-0.9c0.5-0.3,1.2-0.5,1.8-0.6c0.5-0.1,1.1-0.1,1.6-0.1c0.7,0,1.3,0,2,0c0.4,0,0.8,0,1.2,0c0.2,0,0.5,0,0.7,0.1
				c0.7,0.1,1.4,0.2,2.1,0.4c0.7,0.2,1.2,0.6,1.8,1.1c0.3,0.3,0.7,0.6,1,0.9c0.4,0.4,0.7,0.7,1,1.1c0.5,0.6,0.9,1.3,1.3,2
				c0.3,0.4,0.5,0.8,0.7,1.2c0.1,0.2,0.2,0.4,0.3,0.6c0.2,0.4,0.3,0.7,0.5,1.1c0.1,0.2,0.2,0.3,0.3,0.4c0.4,0.5,0.8,0.9,1.1,1.4
				c0.1,0.2,0.2,0.4,0.2,0.5c0.2,0.1,0.3,0.1,0.5,0.2c0.3,0.2,0.5,0.4,0.8,0.5c0.3,0.5,0.7,0.9,0.9,1.4c0.1,0.3,0.1,0.5,0.1,0.8
				c1.2,0.4,2,1.2,2.2,2h146v-32.3c0,0.1-0.1,0.1-0.1,0.2c-0.2,0.3-0.4,0.5-0.6,0.8c-1,1-2.1,1.7-3.5,2.1c-0.8,0.2-1.3,0.3-2.1,0.4
				c-1.5,0.2-3,0.3-4.6,0.3c-1.3,0-2.5-0.1-3.8,0c-1.3,0.1-2.6,0.4-3.9,0.7c-0.8,0.2-1.7,0.5-2.5,0.7c-0.2,0.1-0.5,0.2-0.7,0.2
				c-0.5,0-1.1-0.1-1.6-0.1c-0.4,0.3-0.9,0.6-1.3,0.9c-1.6,0.9-3,1.6-4.7,2.5c-1.9,1-3.9,1.9-5.8,2.8c-2.1,1-4.2,1.9-6.2,2.9
				c-1,0.5-2,1-3.1,1.2c-0.2,0-0.5,0-0.7,0.1c-1.9,0-2.9-1.1-4.2-2.2c-1.1-0.9-2.1-1.8-3.2-2.7c-0.6,1-1.2,2-2.2,2.8
				c-0.3,0.2-0.6,0.5-0.9,0.7c-1.4,0.9-3,1.3-4.7,1.2c-1.1-0.1-2.2-0.3-3.2-0.7c-1.4-0.6-2.8-1.3-3.7-2.7c-0.9-1.4-1.4-2.9-1.3-4.6
				c0.1-0.3,0.1-0.6,0.2-0.9c0.3-1.1,0.9-2.1,1.6-3.1c0.1-0.2,0.2-0.5,0.4-0.7c0.2-0.3,0.3-0.6,0.5-0.9c0.1-0.3,0.2-0.7,0.3-1.1
				c0-0.1,0.1-0.3,0.1-0.4c-0.1-1.1,0.3-2,1-2.7c0.1-0.1,0.2-0.2,0.4-0.3c0.1,0,0.1-0.1,0.2-0.1c0.9-0.7,1.6-1.3,2.7-1.6
				c0.1-0.1,0.2-0.1,0.4-0.2c0.1,0,0.2,0,0.3-0.1c0.5-0.1,1-0.1,1.5-0.1c0.5,0,1,0,1.5,0c0.5,0,1,0.2,1.6,0.3
				c0.6,0.1,1.1,0.2,1.7,0.3c0.6,0.1,1.1,0.1,1.7,0.2c0.6,0.1,1.3,0.1,1.9,0.2c0.3,0,0.7,0,1,0.1c0.3,0.1,0.4,0.1,0.6,0.3
				c0.5,0.2,0.9,0.5,1.3,0.8c0.1,0.1,0.2,0.2,0.3,0.3c0.2-0.1,0.3-0.1,0.5-0.1c0.9-0.2,0.7,0.2,0.3,0.7c0.5,0.3,1.1,0.7,1.5,1.1
				c0.2,0.4,0.6,0.7,0.7,1.1c0.8,2.1-0.2,3.7-1.8,4.9c-0.6,0.5-1.3,0.9-2,1.3c0.9,0.7,1.8,1.5,2.7,2.2c0.4,0.3,0.5,0.4,0.8,0.6
				c0.3-0.1,0.6-0.3,0.9-0.4c2.1-1,4.2-2,6.3-3c3.7-1.7,7.5-3.4,11-5.6c-0.4-1.2-0.9-2.3-1.4-3.5c-0.1-0.1-0.1-0.2-0.2-0.4
				c-1.9,1-3.8,1.9-5.9,2.1c-1.5,0-2.2,0.1-3.6-0.8c-1.5-1-1.8-2.7-1.8-4.3c0,0-0.1,0.1-0.1,0.1c-0.3,0.2-0.4,0.3-0.7,0.3
				c-0.6,0.1-1.1-0.1-1.5-0.5c-0.2-0.2-0.2-0.2-0.4-0.5c-0.2-0.3-0.3-0.5-0.5-0.8c-0.2-0.3-0.5-0.6-0.7-0.9
				c-0.3-0.4-0.5-0.8-0.7-1.3c-0.2-0.6-0.4-1.2-0.5-1.8c-0.2-0.6-0.3-1.2-0.4-1.7c-0.1-0.4-0.2-0.9-0.3-1.3
				c-0.1-0.5-0.2-0.9-0.4-1.4c0-0.1-0.1-0.2-0.1-0.3c-0.1-0.4-0.1-0.9-0.1-1.4c0-0.4,0-0.8,0-1.2c0-0.4,0-0.9,0.1-1.3
				c0.1-0.6,0.2-1.1,0.3-1.7c0.1-0.5,0.3-1.1,0.4-1.6c0-0.1,0.1-0.2,0.1-0.2c-0.6,0-1.3-0.3-1.2-1.1c0-0.1,0-0.2,0-0.2
				c0.1-0.4,0.2-0.9,0.4-1.3c0.1-0.1,0.1-0.2,0.2-0.2c0.3-0.3,0.6-0.5,1-0.7c0.3-0.1,0.5-0.3,0.8-0.4c0.2-0.2,0.5-0.4,0.7-0.6
				c0,0,0-0.1,0.1-0.1v0v0c0.1-0.2,0.2-0.4,0.2-0.6c0.1-0.2,0.1-0.4,0.1-0.6c0.1-0.5,0.3-0.9,0.7-1.2c0.1-0.1,0.2-0.1,0.3-0.2
				c0.5-0.3,1.1-0.5,1.7-0.8c0.2-0.1,0.4-0.2,0.7-0.2c0.3-0.1,0.7-0.2,1.1-0.2c0.7-0.1,1.4-0.2,2.1-0.4c0.9-0.2,1.7-0.4,2.6-0.4
				c0.2,0,0.3,0,0.5,0c0.6,0,1.3,0.2,1.8,0.5c0.2,0.1,0.4,0.2,0.6,0.3c0,0,0,0,0,0c0.7-0.3,1.4-0.6,2.2-0.8c0.7-0.1,1.5-0.1,2.2-0.2
				c0.7,0,1.5,0,2.2,0c0.9,0,1.8,0,2.7,0.1c0.1,0,0.1-0.1,0.2-0.1l0,0c0.4-0.4,0.8-0.5,1.2-0.6c0.6,0,1,0.4,0.8,1
				c0.9,0.3,1.7,0.6,2.4,1.3c0.8,0.7,1.5,1.5,2.2,2.2c0.9,0.9,1.8,1.8,2.7,2.6c1.1,1,2.1,1.9,3.3,2.8c0.9,0.7,1.8,1.3,2.8,2
				c1.1,0.7,2.2,1.5,3.1,2.4c1.3,1.3,2.5,2.7,2.8,4.5c0,0.3,0,0.6,0,0.9c0,0.3-0.1,0.6-0.1,0.9c0.1,0.1,0.2,0.2,0.2,0.3v-89.6
				c-0.5,0.3-1.1,0.5-1.6,0.7c0-0.1-0.1-0.2-0.1-0.2c-0.1,0-0.1-0.1-0.1-0.3c0-0.1,0-0.1-0.1-0.2c-0.2-0.3-0.4-0.5-0.6-0.8
				c-0.2,0-0.3,0.1-0.5,0.1c-0.2,0-0.4-0.5-0.6-1.1c-0.3-0.3-0.5-0.6-0.7-0.9c-0.2-0.2-0.4-0.5-0.6-0.7c-0.4-0.3-0.8-0.6-1.2-0.8
				c-0.4-0.3-0.8-0.5-1.2-0.9c-0.4-0.3-0.8-0.7-1.2-1c-0.5-0.4-1-0.7-1.5-1c-0.4-0.3-0.9-0.5-1.3-0.8c-0.5-0.3-0.9-0.7-1.3-1.1
				c-0.3-0.3-0.6-0.7-1-1c-0.4-0.4-0.7-0.7-1-1.1c-0.4-0.5-0.7-1.1-1-1.6c-0.3-0.5-0.5-1.1-0.7-1.7c-0.2-0.6-0.3-1.3-0.3-1.9
				c0-0.5-0.1-1-0.1-1.5c0-0.6,0.1-1.1,0.2-1.7c0.2-0.6,0.4-1.2,0.7-1.7c0.2-0.6,0.6-1.1,0.9-1.7c0.3-0.4,0.5-0.8,0.8-1.1
				c0.2-0.3,0.5-0.7,0.7-1c0.2-0.3,0.4-0.5,0.6-0.8c0.2-0.2,0.4-0.5,0.6-0.7c0.3-0.3,0.6-0.5,0.8-0.8c0.3-0.3,0.6-0.6,1-0.8
				c0.5-0.4,1.1-0.6,1.7-0.9c0.4-0.2,0.8-0.5,1.2-0.7c0.3-0.2,0.7-0.5,1-0.8c0.1-0.3,0.2-0.5,0.3-0.8c0.3-0.6,0.5-1,0.8-1.5
				c1.2-1.9,2.8-3,5.2-2.2c0,0,0.1,0,0.1,0V182.6H314.3c0.2,0.2,0.3,0.4,0.4,0.6c0.1,0.5-0.3,0.8-0.6,1c-0.4,0.2-0.7,0.3-1.1,0.5
				c0,0.1-0.1,0.2-0.1,0.3c-0.1,0.3-0.3,0.6-0.5,0.9c-0.2,0.4-0.4,0.7-0.6,1.1c-0.3,0.6-0.6,1.2-1,1.7c-0.3,0.4-0.7,0.8-1.1,1.2
				c-0.4,0.4-0.8,0.8-1.3,1.1c0,0-0.1,0.1-0.1,0.1c-0.1,0.1-0.2,0.3-0.3,0.4c-0.7,0.8-1.7,1.3-2.7,1.7c0,0-0.1,0.1-0.1,0.1
				c-0.1,0.1-0.5,0.4-0.6,0.5c-0.2,0.1-0.5,0.4-0.7,0.5c-0.2,0.1-0.4,0.2-0.6,0.3c-0.2,0.1-0.4,0.1-0.7,0.2
				c-0.4,0.4-0.9,0.7-1.3,1.1c-0.2,0.2-0.3,0.4-0.5,0.6c-0.3,0.3-0.6,0.6-1,0.8c-0.2,0.1-0.4,0.1-0.6,0.2c-0.2,0-0.3,0-0.5,0.1
				c-0.7,0.1-1.5,0.1-2.2,0.2c-0.1,0-0.3,0-0.4,0c-0.1,0-0.1,0-0.2,0c-0.1,0-0.1,0.1-0.2,0.1c-0.2,0.1-0.5,0.2-0.7,0.2
				c-0.6,0.1-1.2,0.2-1.8,0.3c-0.4,0.1-0.5,0.1-0.9,0.1c-0.5,0-1,0-1.6,0c-0.7,0-1.3,0-2,0c-0.8,0-1.6,0-2.4,0c-0.7,0-1.4,0-2.1,0
				c-0.7,0-1.5-0.1-2.2-0.2c-0.7-0.1-1.4-0.2-2.1-0.4c-0.7-0.2-1.5-0.4-2.2-0.7c-0.4-0.2-0.9-0.4-1.3-0.5c-0.7-0.2-1.4-0.3-2-0.5
				c-0.5-0.2-0.9-0.4-1.4-0.5c-0.4-0.1-0.9-0.1-1.4-0.1c-0.2,0-0.4,0-0.6,0c-0.6,0.9-1.2,1.7-2.1,2.4v0.2c0,0.6-0.2,1.2-0.5,1.7
				c-0.1,0.4-0.3,0.8-0.4,1.2c-0.1,0.4-0.3,0.9-0.4,1.3c-0.2,0.5-0.4,1-0.6,1.5c-0.2,0.3-0.4,0.7-0.7,1c-0.2,0.2-0.4,0.3-0.7,0.5
				c0,0-0.1,0.1-0.1,0.1c0,0.3,0,0.6,0,0.8c-0.1,0.2-0.3,0.3-0.5,0.4c-0.1,0.1-0.2,0.1-0.3,0.1c-0.3,0.1-0.6,0.1-0.8,0.2
				c-0.7,0.1-1.4,0.3-2.1,0.4c-0.4,0.1-0.9,0.2-1.3,0.2c-0.3,0-0.7,0.1-1.1,0.1c-0.2,0-0.4,0-0.6,0c-0.1,0-0.3,0-0.4-0.1
				c-0.4-0.1-1-0.4-1.3-0.7c-0.1-0.1-0.2-0.2-0.2-0.4c-0.1,0-0.2,0-0.4-0.1c-0.4-0.1-0.8-0.3-1.2-0.5c-0.2-0.1-0.3-0.1-0.4-0.2
				c-0.4-0.2-0.8-0.3-1.2-0.5c-0.2-0.1-0.4-0.2-0.6-0.3c-1.3-0.6-1.2-1.7-0.5-2c0,0,0-0.1,0-0.1c0,0,0-0.1,0.1-0.1
				c-0.9-0.4-1.7-0.8-2.4-1.4c-0.2-0.1-0.3-0.3-0.4-0.5c-0.8-0.2-1.6-0.5-2.3-0.8c-0.5-0.4-1-0.7-1.4-1.2c-0.8-1.2-0.6-2.8,0.1-4
				c0.4-0.6,0.8-0.9,1.3-1.2c0,0,0,0,0,0c-0.9-1.2-1.6-2.6-1.6-4.2c0-0.4,0.1-0.9,0.2-1.3c0.4-0.9,0.4-1.1,1-1.9
				c0.9-1.1,2.1-1.8,3.5-2.3c1-0.2,1.2-0.4,2.3-0.4c1.2,0,2.3,0.4,3.5,0.7c1.6,0.6,3.3,1.2,4.7,2.1c0.8,0.5,1.8,1,2.7,1.6
				c0.3,0,0.6,0,0.9,0h0.9c-1.7-1.3-1.3-3.8,1.5-4.8c0-0.1,0.1-0.2,0.1-0.2L188.5,182.6z M252.3,189.8c-0.1,0-0.1,0-0.2,0v0v0
				c0,0,0,0.1,0,0.1v0v0v0v0C252.2,189.8,252.2,189.8,252.3,189.8C252.3,189.8,252.3,189.8,252.3,189.8L252.3,189.8z M252.9,189.9
				L252.9,189.9C252.9,189.9,252.9,189.9,252.9,189.9L252.9,189.9L252.9,189.9z M252.9,189.9C252.9,189.9,253,190,252.9,189.9
				c0.1,0.1,0.3,0.2,0.4,0.2v0v0v0v0v0C253.1,190,253,189.9,252.9,189.9L252.9,189.9z M258.8,206.4
				C258.8,206.4,258.8,206.4,258.8,206.4L258.8,206.4L258.8,206.4L258.8,206.4L258.8,206.4L258.8,206.4L258.8,206.4L258.8,206.4
				L258.8,206.4C258.7,206.4,258.8,206.4,258.8,206.4L258.8,206.4C258.8,206.4,258.8,206.4,258.8,206.4L258.8,206.4z M453.8,296.8
				c0,0.1,0,0.1,0,0.2C453.8,296.9,453.8,296.9,453.8,296.8z M440.7,397.1c-0.1,0.1-0.1,0.2-0.2,0.3c-0.5,0.6-1,1.2-1.5,1.7
				c-0.3,0.3-0.6,0.6-0.9,0.9c-0.3,0.4-0.5,0.8-0.8,1.1c-0.4,0.6-0.8,1.1-1.2,1.7c-0.3,0.4-0.6,0.8-0.8,1.3c-0.3,0.5-0.6,1-0.9,1.4
				c-0.3,0.5-0.6,0.9-1,1.3c1.5,1.4,2.9,3,4,4.8c0.3,0.6,0.6,1.2,0.9,1.8c0.3,0,0.7,0,1,0.1c-0.2-1,0-1.7,0.3-2.8
				c0.6-1.7,1.2-3.3,2.6-4.5c1.2-1.1,2.5-1.5,4.2-1.5c0.6,0,1.1,0.3,1.7,0.5c0.4,0.2,0.8,0.4,1.2,0.7c1.3,0.9,2.5,2,3.4,3.3
				c0.2,0.2,0.3,0.5,0.4,0.7c0.6-0.3,1.2-0.5,1.8-0.7c0.5-0.1,0.9-0.2,1.4-0.3c-0.6-0.5-1.3-1-2-1.5c-1-0.7-2.1-1.4-3-2.1
				c-1.3-1-2.5-2.1-3.7-3.2c-0.9-0.9-1.9-1.8-2.8-2.7c-0.7-0.7-1.3-1.4-2.1-2.1c0,0-0.1-0.1-0.2-0.1v0v0v0v0v0v0v0v0v0v0
				c0,0,0,0,0,0v0v0v0c-0.1,0-0.3,0-0.4-0.1C441.6,397.1,441.1,397.1,440.7,397.1L440.7,397.1z M421.5,401.1
				C421.4,401.1,421.4,401.1,421.5,401.1C421.5,401.1,421.5,401.1,421.5,401.1C421.5,401.1,421.5,401.1,421.5,401.1L421.5,401.1z
				 M459.4,408.9c-0.2,0-0.4,0-0.6,0.1c0.4,0.1,0.9,0.2,1.3,0.3c0.1,0,0.1,0,0.2,0.1C460.2,409.1,459.9,408.9,459.4,408.9
				L459.4,408.9z M420.9,410.7c0,0.1,0,0.2,0.1,0.3C421,410.9,421,410.8,420.9,410.7C421,410.7,421,410.7,420.9,410.7L420.9,410.7z
				 M457.1,414.7c-0.1,0-0.2,0-0.3,0c-0.2,0.1-0.5,0.2-0.7,0.2c-0.5,0.2-1,0.5-1.4,0.8c0.1,1.5-0.1,2.9-0.9,4.2
				c-0.3,0.5-0.7,0.9-1.1,1.3c-0.7,0.5-1.1,0.8-1.5,1.1c0.5,0,1.1,0,1.6,0c1.2,0,2.4-0.1,3.6-0.3c0.7-0.1,1.3-0.1,1.9-0.5
				c0.7-0.7,0.9-1.7,1.3-2.6c0.1-0.4,0.3-0.8,0.3-1.2c0-0.6-0.2-1.1-0.3-1.7c0-0.1-0.1-0.3-0.1-0.4c-0.1-0.4,0-0.5-0.5-0.7
				c-0.5-0.2-1-0.4-1.6-0.4C457.2,414.7,457.2,414.7,457.1,414.7L457.1,414.7z M443.5,417.3c0.1,0.1,0.1,0.3,0.2,0.4
				c0.2,0,0.4,0,0.6,0.1c1.2,0,2.8,0.1,3.9-0.4c-0.4,0.1-0.8,0.2-1.1,0.3c-0.6,0-1.2,0.1-1.7,0C444.8,417.6,444.1,417.5,443.5,417.3
				L443.5,417.3z M429.8,418.3C429.8,418.4,429.8,418.4,429.8,418.3C429.8,418.4,429.8,418.4,429.8,418.3L429.8,418.3z M429.8,418.4
				C429.8,418.4,429.8,418.5,429.8,418.4c0,0.2,0,0.3,0.1,0.4l0,0c0,0,0-0.2,0-0.2C429.9,418.5,429.9,418.5,429.8,418.4L429.8,418.4
				z M248.6,424.3c0.7,0,1.3,0,1.9,0.2c0.4,0.1,0.7,0.2,1.1,0.4c0.3,0.1,0.3,0.2,0.6,0.4c0.4,0.3,0.8,0.6,1.2,0.9
				c0.3,0.2,0.7,0.5,0.9,0.8c0.2,0.3,0.2,0.4,0.3,0.8c0.1,0.4,0.1,0.8,0.2,1.2c0,0,0.1,0,0.1,0c0.3,0.1,0.6,0.3,0.8,0.5
				c0.3,0.4,0.6,0.9,0.7,1.5c0,0.1,0.1,0.3,0.1,0.4c0.1,0.7,0.1,1.3,0.2,2c0,0.6,0,1.2,0,1.7c0,0.4-0.2,0.7-0.4,1c0,0,0,0,0,0
				c0,0.2,0,0.4,0,0.6c0,0,0,0.1,0,0.1c0.6,0.6-0.1,1-0.9,1.7v0c-0.1,0-0.6-0.2-0.7-0.2c-0.5-0.2-0.9-0.4-1.3-0.7
				c-0.5-0.4-1-0.8-1.5-1.3c-0.5-0.4-1-0.9-1.5-1.3c-0.4-0.3-0.8-0.6-1.3-0.9c-0.5-0.4-1.1-0.7-1.7-1.1c-0.3,0.3-0.8,0.6-1.3,0.3
				c-0.7-0.4-0.6-0.9-0.5-1.5c-0.6-0.3-1.1-0.7-1.6-1.1c-0.6-0.4-1.2-0.8-1.7-1.3c-0.4-0.4-0.9-0.8-1.3-1.2
				c-0.2-0.2-0.5-0.3-0.7-0.5c-0.1-0.1-0.2-0.1-0.2-0.2c-0.1-0.2-0.2-0.3-0.2-0.5c0.1-0.3,0.1-0.6,0.2-0.9c0.3-0.5,1-0.5,1.4-0.5
				c0.5-0.1,1-0.2,1.5-0.3c0.7-0.2,1.5-0.4,2.2-0.5c0.6-0.1,1.2-0.2,1.8-0.3C247.3,424.4,248,424.3,248.6,424.3L248.6,424.3z
				 M241.3,426.2L241.3,426.2C241.3,426.3,241.4,426.3,241.3,426.2L241.3,426.2L241.3,426.2L241.3,426.2L241.3,426.2
				C241.4,426.3,241.3,426.2,241.3,426.2L241.3,426.2z M255.4,430.2C255.4,430.3,255.4,430.3,255.4,430.2L255.4,430.2
				C255.4,430.3,255.4,430.3,255.4,430.2L255.4,430.2L255.4,430.2L255.4,430.2L255.4,430.2L255.4,430.2
				C255.4,430.3,255.4,430.2,255.4,430.2L255.4,430.2z M406.2,431.4c-0.2,0.2-0.4,0.3-0.6,0.5c-0.4,0.3-0.7,0.6-1.1,0.9
				c-0.4,0.3-0.8,0.6-1.2,0.9c-0.1,0.1-0.3,0.2-0.4,0.3c0.2,0,0.5,0.1,0.7,0.1c0.6,0,1.1-0.3,1.5-0.7
				C405.7,432.8,406,432.1,406.2,431.4C406.3,431.4,406.2,431.4,406.2,431.4L406.2,431.4z M418.2,434.2c0,0-0.1,0-0.2,0
				c0,0-0.1,0-0.1,0v0v0v0v0v0v0C418,434.2,418.1,434.2,418.2,434.2C418.2,434.2,418.2,434.2,418.2,434.2L418.2,434.2z M256.1,437
				C256.1,437,256.1,437,256.1,437C256.1,437,256.1,437,256.1,437L256.1,437z M301.1,444.3L301.1,444.3L301.1,444.3c0,0,0,0.1,0,0.2
				c0,0,0,0,0,0C301.1,444.3,301.1,444.3,301.1,444.3L301.1,444.3C301.1,444.3,301.1,444.3,301.1,444.3L301.1,444.3z M286,449.6
				L286,449.6L286,449.6C286,449.6,286.1,449.7,286,449.6C286.1,449.7,286.1,449.6,286,449.6C286.1,449.6,286,449.6,286,449.6
				L286,449.6z"/>
		</defs>
		<clipPath id="SVGID_00000084512304430085625210000010941552467436692639_">
			<use xlink:href="#SVGID_1_"  style="overflow:visible;"/>
		</clipPath>
		
			<path id="path94" inkscape:label="Transverse Colon / Descending Colon / Small Intenstines / Sigmoid" style="clip-path:url(#SVGID_00000084512304430085625210000010941552467436692639_);fill-rule:evenodd;clip-rule:evenodd;fill:none;" d="
			M326,182.6c-75.9,0-137.5,61.4-137.5,137.1v0c0,75.7,61.6,137.1,137.5,137.1c0,0,0,0,0,0c75.9,0,137.5-61.4,137.5-137.1
			C463.5,244,402,182.6,326,182.6z M325.2,215.8c59,0,106.9,47.7,106.9,106.4c0,58.8-47.8,106.4-106.9,106.4
			c-59,0-106.9-47.7-106.9-106.4C218.3,263.5,266.2,215.8,325.2,215.8z"/>
	</g>
</g>
</svg>
