<?xml version="1.0" encoding="UTF-8" standalone="no"?>
<svg
   viewBox="784.5277 70.7432 639.5405 639.0577"
   width="639.54px"
   height="639.058px"
   version="1.1"
   id="svg47"
   sodipodi:docname="left_test.svg"
   inkscape:version="1.4.2 (ebf0e940d0, 2025-05-08)"
   xmlns:inkscape="http://www.inkscape.org/namespaces/inkscape"
   xmlns:sodipodi="http://sodipodi.sourceforge.net/DTD/sodipodi-0.dtd"
   xmlns="http://www.w3.org/2000/svg"
   xmlns:svg="http://www.w3.org/2000/svg">
  <defs
     id="defs47">
    <inkscape:path-effect
       effect="spiro"
       id="path-effect58"
       is_visible="true"
       lpeversion="1" />
    <inkscape:path-effect
       effect="spiro"
       id="path-effect58-3"
       is_visible="true"
       lpeversion="1" />
    <clipPath
       clipPathUnits="userSpaceOnUse"
       id="clipPath222">
      <path
         id="path223"
         style="fill:#ff0000;fill-opacity:1;fill-rule:nonzero;stroke:none"
         d="m 973.05324,253.39138 v 274.18187 h 92.62506 c -0.3408,-0.28489 -0.5802,-0.62303 -0.5586,-1.01953 0.032,-0.58129 0.1887,-1.14371 0.416,-1.6875 -2.3988,-2.14329 -1.4224,-5.08804 1.4903,-4.9961 0.6536,0.0206 1.4057,0.19464 2.2383,0.56445 0.2603,-0.47765 0.7014,-0.91564 1.0019,-1.24805 0.5517,-0.64118 1.2614,-1.1057 1.9219,-1.62305 0.6439,-0.57581 1.4244,-0.95163 2.1641,-1.38281 0.1,-0.0617 0.2007,-0.12305 0.3007,-0.18555 0.3138,-0.19702 0.2619,-0.17106 0.5782,-0.36328 0.2327,-0.14143 0.469,-0.27129 0.6933,-0.42578 0.2426,-0.16277 0.4373,-0.38311 0.6524,-0.57812 0.1927,-0.17477 0.2546,-0.22056 0.455,-0.38282 0.4321,-0.34339 0.8958,-0.64579 1.3497,-0.95898 0.4946,-0.3415 1.0113,-0.64433 1.5429,-0.92383 0.5487,-0.31345 1.1551,-0.46726 1.7715,-0.57617 0.5318,-0.0954 1.0708,-0.10925 1.6094,-0.12305 0.6745,-0.0134 1.3488,-0.0165 2.0234,-0.0195 0.3871,0.005 0.7752,-0.0151 1.1621,0.004 0.192,0.009 0.4789,0.0358 0.6719,0.0527 0.714,0.0561 1.4128,0.20593 2.0977,0.41016 0.6555,0.24861 1.2337,0.64478 1.7597,1.10156 0.3251,0.32124 0.6578,0.63332 0.9883,0.94922 0.3572,0.35739 0.6842,0.74542 1.0059,1.13476 0.4566,0.64378 0.8952,1.30151 1.3262,1.9629 0.2529,0.39321 0.5209,0.77913 0.7324,1.19726 0.1056,0.20861 0.196,0.42232 0.289,0.63672 0.1583,0.35804 0.3048,0.72715 0.5059,1.06446 0.094,0.15726 0.207,0.2841 0.3223,0.42578 0.4205,0.4532 0.7912,0.89665 1.1035,1.43164 0.087,0.17531 0.1669,0.35446 0.2422,0.53516 0.1643,0.0688 0.324,0.14786 0.4785,0.24023 0.2656,0.15882 0.4997,0.36289 0.75,0.54492 0.2982,0.47515 0.7187,0.89307 0.8945,1.42579 0.084,0.25517 0.1264,0.52451 0.1367,0.79687 1.2381,0.41506 1.9806,1.18152 2.2344,2.01563 h 146.0451 v -32.3262 c -0.045,0.0695 -0.091,0.13888 -0.1387,0.20703 -0.1912,0.27495 -0.4168,0.52484 -0.625,0.78711 -0.958,1.01653 -2.1322,1.73371 -3.4688,2.13672 -0.7802,0.23526 -1.2538,0.28703 -2.0508,0.41797 -1.5148,0.20844 -3.0377,0.32622 -4.5664,0.32422 -1.2585,-0.0365 -2.5117,-0.0672 -3.7675,0.0312 -1.3066,0.11146 -2.5879,0.3643 -3.8633,0.6582 -0.8483,0.20285 -1.6661,0.5159 -2.5098,0.73438 -0.2335,0.0605 -0.4658,0.16033 -0.707,0.16016 -0.5494,-4.1e-4 -1.0938,-0.0855 -1.6407,-0.14258 -0.445,0.29573 -0.8915,0.58848 -1.3496,0.86328 -1.5758,0.94533 -3.0084,1.63818 -4.6523,2.45313 -1.9267,0.95517 -3.8703,1.87465 -5.8184,2.78516 -2.0821,0.95336 -4.1665,1.89581 -6.2207,2.9082 -0.9845,0.46566 -1.973,0.9827 -3.0625,1.15235 -0.2473,0.0385 -0.4969,0.0444 -0.7461,0.0664 -1.8797,-0.001 -2.9136,-1.07168 -4.2324,-2.16016 -1.05,-0.89908 -2.1195,-1.77647 -3.1875,-2.6543 -0.5706,1.03531 -1.2422,1.97898 -2.2285,2.77149 -0.307,0.21851 -0.6005,0.4566 -0.92,0.65625 -1.4067,0.8789 -3.0198,1.32246 -4.6757,1.22266 -1.1004,-0.10874 -2.187,-0.3062 -3.2207,-0.71485 -1.4446,-0.57776 -2.8117,-1.31143 -3.6895,-2.65429 -0.858,-1.43019 -1.4097,-2.87859 -1.3437,-4.57423 0.055,-0.30666 0.089,-0.61764 0.164,-0.91992 0.2816,-1.13141 0.9408,-2.1346 1.6387,-3.0586 0.1085,-0.23389 0.2308,-0.461 0.3574,-0.68554 0.1912,-0.29548 0.3319,-0.61735 0.4961,-0.92774 0.1456,-0.34359 0.2369,-0.70586 0.3359,-1.06445 0.038,-0.13717 0.075,-0.27461 0.1114,-0.41211 -0.1225,-1.11448 0.3069,-1.9526 1.0273,-2.6543 0.1043,-0.12771 0.2219,-0.24427 0.3574,-0.3457 0.053,-0.0392 0.1096,-0.0722 0.1661,-0.10547 0.8844,-0.67851 1.6391,-1.32979 2.7128,-1.62891 0.1171,-0.0621 0.2443,-0.11162 0.3809,-0.1543 0.099,-0.0311 0.2048,-0.0445 0.3066,-0.0664 0.4875,-0.0788 0.9822,-0.0819 1.4747,-0.0899 0.5053,-0.006 1.0103,-0.007 1.5156,-0.008 0.5354,-0.007 1.0465,0.15319 1.5664,0.25391 0.5508,0.11162 1.1106,0.17773 1.6641,0.27343 0.5699,0.09 1.1451,0.1299 1.7187,0.1875 0.639,0.06 1.2763,0.12624 1.916,0.17774 0.3461,0.021 0.696,0.042 1.0293,0.14648 0.2819,0.0883 0.3678,0.13919 0.625,0.25977 0.4682,0.20483 0.9007,0.47192 1.3047,0.7832 0.117,0.11916 0.214,0.2083 0.291,0.30469 0.1598,-0.0614 0.3235,-0.11452 0.4922,-0.14844 0.8588,-0.17267 0.6563,0.21195 0.2988,0.69532 0.5398,0.31004 1.0504,0.66579 1.4903,1.11914 0.2346,0.36203 0.559,0.68002 0.7051,1.08594 0.7562,2.10139 -0.2163,3.69479 -1.8477,4.88867 -0.6354,0.45604 -1.2878,0.882 -1.9551,1.28516 0.8947,0.7359 1.7879,1.47346 2.668,2.22656 0.4112,0.34105 0.452,0.37123 0.7598,0.64063 0.3152,-0.14078 0.6248,-0.29922 0.9375,-0.44336 2.0906,-1.03033 4.2104,-1.99181 6.33,-2.96094 3.7098,-1.73362 7.4564,-3.43885 10.9571,-5.57227 -0.4344,-1.18598 -0.9267,-2.34165 -1.4297,-3.50391 -0.053,-0.12317 -0.1039,-0.24784 -0.1563,-0.37109 -1.8525,1.00952 -3.7843,1.85136 -5.9199,2.08789 -1.4858,-0.0363 -2.2047,0.1414 -3.5566,-0.80469 -1.4559,-1.01877 -1.8209,-2.68471 -1.8496,-4.31641 -0.035,0.0276 -0.07,0.0537 -0.1055,0.0801 -0.2784,0.15667 -0.4126,0.25856 -0.7442,0.32226 -0.6009,0.11544 -1.0976,-0.0808 -1.5351,-0.47851 -0.1911,-0.19669 -0.2379,-0.23315 -0.4063,-0.46289 -0.1883,-0.25697 -0.3274,-0.54677 -0.4921,-0.81836 -0.1997,-0.33542 -0.5264,-0.5767 -0.7266,-0.91407 -0.27,-0.41049 -0.5423,-0.82345 -0.7383,-1.27539 -0.2206,-0.58093 -0.3742,-1.18129 -0.5019,-1.78906 -0.1506,-0.57432 -0.2888,-1.15164 -0.4122,-1.73243 -0.088,-0.4267 -0.1605,-0.85719 -0.2695,-1.27929 -0.1179,-0.46235 -0.2158,-0.93001 -0.3613,-1.38477 -0.029,-0.10652 -0.062,-0.21072 -0.086,-0.31836 -0.105,-0.44413 -0.096,-0.90718 -0.096,-1.35938 0,-0.41157 -0,-0.82299 0.016,-1.23437 0.016,-0.4494 0.042,-0.89963 0.1015,-1.34571 0.076,-0.56527 0.168,-1.12847 0.291,-1.68554 0.1258,-0.54648 0.2647,-1.09044 0.4473,-1.6211 0.029,-0.0819 0.06,-0.16261 0.09,-0.24414 -0.6466,0.005 -1.272,-0.27088 -1.2403,-1.08594 0,-0.0768 0.022,-0.15367 0.022,-0.23047 0.062,-0.44899 0.1681,-0.893 0.3965,-1.28906 0.055,-0.0765 0.1099,-0.15632 0.1699,-0.22852 0.2574,-0.30778 0.5973,-0.50885 0.957,-0.67383 0.2732,-0.13163 0.5491,-0.26493 0.793,-0.44726 0.2349,-0.17987 0.4685,-0.36471 0.6953,-0.55469 0.022,-0.0321 0.04,-0.0621 0.061,-0.0937 v -0.002 -0.002 c 0.095,-0.18123 0.1697,-0.37132 0.2422,-0.5625 0.063,-0.20988 0.074,-0.42422 0.1191,-0.63867 0.1104,-0.52818 0.2625,-0.86206 0.6602,-1.25 0.093,-0.0656 0.1823,-0.13461 0.2793,-0.19531 0.527,-0.33122 1.13,-0.51848 1.7031,-0.75 0.2416,-0.0898 0.4451,-0.16944 0.6914,-0.24414 0.345,-0.10456 0.7026,-0.16016 1.0566,-0.22266 0.6923,-0.10639 1.3823,-0.2281 2.0703,-0.35938 0.8607,-0.15609 1.7181,-0.35772 2.5918,-0.42382 0.1595,0.003 0.3175,-10e-4 0.4766,0.01 0.6294,0.0403 1.2501,0.20279 1.8262,0.45508 0.2147,0.0924 0.4274,0.18863 0.6426,0.28125 0,-4.2e-4 0.011,-10e-4 0.014,-0.002 0.6697,-0.34457 1.3803,-0.61007 2.1504,-0.75782 0.7288,-0.0959 1.4601,-0.14454 2.1914,-0.16406 0.7313,-0.0195 1.463,-0.0107 2.1973,0.0137 0.9126,0.0199 1.8277,0.0342 2.7383,0.10743 0.055,-0.0348 0.1074,-0.0741 0.1562,-0.11719 l -0.014,0.002 c 0.4284,-0.37789 0.8432,-0.5458 1.1894,-0.55859 0.5818,-0.002 0.9557,0.4362 0.836,1.03515 0.8896,0.2504 1.6864,0.63558 2.4335,1.31251 0.7758,0.70428 1.4817,1.47671 2.2227,2.21679 0.9123,0.87325 1.8079,1.76208 2.7129,2.64258 1.0664,0.96878 2.1357,1.93883 3.2949,2.79688 0.9066,0.67872 1.8303,1.33853 2.7832,1.95117 1.0898,0.72633 2.1544,1.49561 3.1172,2.38673 1.303,1.27187 2.5123,2.65175 2.7539,4.5332 0.01,0.28467 0.042,0.56932 0.024,0.85352 -0.019,0.29696 -0.061,0.59057 -0.1231,0.87695 0.082,0.0815 0.161,0.16587 0.2383,0.25196 v -89.58797 c -0.5272,0.25866 -1.0645,0.4954 -1.5957,0.7461 -0.033,-0.0797 -0.068,-0.15885 -0.1016,-0.23829 -0.061,-0.007 -0.087,-0.10299 -0.125,-0.32617 -0.02,-0.11612 -0.025,-0.12835 -0.08,-0.21875 -0.1812,-0.27077 -0.3808,-0.52673 -0.6016,-0.76562 -0.161,0.0258 -0.3273,0.0519 -0.4981,0.0801 -0.1599,0.0264 -0.3774,-0.51176 -0.5625,-1.08204 -0.2609,-0.28111 -0.495,-0.58377 -0.7421,-0.87695 -0.2026,-0.23197 -0.3988,-0.47194 -0.625,-0.68164 -0.3695,-0.31988 -0.792,-0.57471 -1.2012,-0.83985 -0.418,-0.25409 -0.8052,-0.54616 -1.1817,-0.85742 -0.3914,-0.3405 -0.7923,-0.66735 -1.2089,-0.97656 -0.4673,-0.35723 -0.9713,-0.66304 -1.4707,-0.97266 -0.4351,-0.25427 -0.8597,-0.52577 -1.2754,-0.81055 -0.4702,-0.3287 -0.8916,-0.7211 -1.295,-1.12695 -0.3257,-0.33145 -0.6299,-0.68389 -0.9511,-1.01953 -0.3595,-0.36957 -0.7157,-0.7406 -1.0411,-1.14063 -0.3749,-0.52349 -0.7092,-1.07561 -1.0175,-1.64063 -0.2853,-0.53319 -0.4933,-1.10307 -0.6836,-1.67578 -0.2043,-0.62134 -0.2606,-1.27583 -0.3106,-1.92383 -0.037,-0.51462 -0.053,-1.02902 -0.053,-1.54492 -10e-4,-0.56149 0.082,-1.11739 0.2031,-1.66406 0.1579,-0.60492 0.4332,-1.171 0.6778,-1.74415 0.2464,-0.58784 0.55,-1.1483 0.8886,-1.6875 0.2527,-0.38453 0.5248,-0.75467 0.7949,-1.12695 0.2378,-0.33519 0.4927,-0.65794 0.7422,-0.98438 0.2218,-0.26422 0.4205,-0.54625 0.6348,-0.8164 0.1878,-0.24909 0.3897,-0.48651 0.5977,-0.71876 0.2605,-0.28757 0.5508,-0.5454 0.83,-0.81445 0.3014,-0.29973 0.645,-0.55397 0.9844,-0.80859 0.5264,-0.38132 1.1382,-0.60709 1.709,-0.90821 0.3995,-0.22287 0.7958,-0.45106 1.1738,-0.70898 0.344,-0.23311 0.6548,-0.50939 0.961,-0.78907 0.093,-0.26304 0.1955,-0.52278 0.3125,-0.77734 0.2641,-0.57464 0.505,-0.95239 0.8203,-1.48047 1.2108,-1.8874 2.7966,-2.99776 5.1914,-2.2168 0.033,0.0108 0.068,0.022 0.1,0.0352 V 253.39138 h -149.1993 c 0.1838,0.18558 0.3451,0.39022 0.4082,0.63477 0.1356,0.52531 -0.2672,0.76637 -0.5664,0.99805 -0.3622,0.19083 -0.7489,0.32993 -1.1368,0.46094 -0.018,0.0865 -0.055,0.17299 -0.08,0.25781 -0.095,0.32267 -0.3173,0.59897 -0.4512,0.9043 -0.2026,0.37429 -0.4255,0.73752 -0.6035,1.125 -0.3045,0.59845 -0.6116,1.20052 -1.0371,1.72461 -0.342,0.42526 -0.6945,0.84163 -1.0782,1.23047 -0.3876,0.40455 -0.79,0.79462 -1.2675,1.09375 -0.049,0.0353 -0.098,0.0717 -0.1465,0.10742 -0.103,0.14257 -0.2091,0.28112 -0.3282,0.41016 -0.7437,0.80552 -1.6682,1.29871 -2.6562,1.66015 -0.032,0.035 -0.062,0.0701 -0.096,0.10352 -0.1096,0.10959 -0.4737,0.41013 -0.6016,0.51172 -0.1705,0.13541 -0.4866,0.38142 -0.6738,0.47852 -0.2009,0.10421 -0.4155,0.18118 -0.623,0.27148 -0.2215,0.0668 -0.4439,0.12833 -0.668,0.18555 -0.4463,0.35509 -0.8813,0.7255 -1.2813,1.13281 -0.1656,0.1779 -0.291,0.38285 -0.4531,0.56445 -0.2844,0.31861 -0.6114,0.57536 -1.0019,0.75391 -0.1885,0.0604 -0.3736,0.13529 -0.5665,0.17969 -0.1506,0.0347 -0.3071,0.0416 -0.4609,0.0566 -0.7481,0.0732 -1.4999,0.0857 -2.248,0.1582 -0.1322,0.015 -0.2643,0.0299 -0.3965,0.0449 -0.06,0.007 -0.1198,0.005 -0.1778,0.0195 -0.073,0.0179 -0.1419,0.0519 -0.2129,0.0762 -0.2383,0.0816 -0.4804,0.15604 -0.7265,0.21094 -0.5858,0.1173 -1.1741,0.21452 -1.7617,0.32226 -0.3637,0.0588 -0.5169,0.0919 -0.8907,0.12305 -0.5217,0.0433 -1.0456,0.0253 -1.5683,0.0293 -0.6738,0 -1.3477,0.002 -2.0215,0.004 -0.7888,0.002 -1.5784,0.005 -2.3672,0.0137 -0.694,0.008 -1.388,0.0246 -2.082,0.0137 -0.7335,-0.0318 -1.4655,-0.0787 -2.1953,-0.16016 -0.6927,-0.0881 -1.3808,-0.20849 -2.0567,-0.38672 -0.74,-0.18756 -1.4863,-0.37224 -2.1914,-0.66992 -0.442,-0.19446 -0.8844,-0.39391 -1.3477,-0.53321 -0.6782,-0.19425 -1.382,-0.29495 -2.0429,-0.54687 -0.471,-0.18522 -0.9294,-0.41596 -1.4317,-0.50586 -0.4495,-0.0854 -0.9003,-0.14697 -1.3593,-0.13477 -0.202,0.005 -0.3869,-0.009 -0.5528,-0.0391 -0.5665,0.9041 -1.1685,1.73603 -2.0761,2.36328 v 0.18164 c -0.034,0.6013 -0.2495,1.16464 -0.4571,1.72266 -0.1274,0.38402 -0.2505,0.76801 -0.3711,1.1543 -0.1307,0.44406 -0.2696,0.88525 -0.4277,1.32031 -0.1669,0.50236 -0.3761,0.98452 -0.625,1.45118 -0.2055,0.34852 -0.4219,0.70173 -0.7285,0.97265 -0.2363,0.20878 -0.3974,0.30091 -0.6524,0.4668 -0.049,0.0337 -0.098,0.066 -0.1484,0.0976 0.016,0.2745 0.038,0.55015 -0.047,0.80664 -0.067,0.20219 -0.3102,0.29554 -0.4844,0.41797 -0.075,0.0523 -0.1679,0.0721 -0.2539,0.10156 -0.271,0.0929 -0.5559,0.13856 -0.8359,0.19336 -0.7033,0.12427 -1.4055,0.2507 -2.1055,0.39258 -0.4299,0.0808 -0.8616,0.1594 -1.2949,0.2207 -0.3414,0.0483 -0.7347,0.10052 -1.0801,0.10352 -0.1949,0.001 -0.3893,-0.018 -0.584,-0.0274 -0.1293,-0.0277 -0.2613,-0.0465 -0.3886,-0.082 -0.421,-0.1173 -0.9772,-0.38792 -1.2578,-0.73242 -0.094,-0.11508 -0.1634,-0.24716 -0.2364,-0.37695 -0.1222,-0.0184 -0.2113,-0.0418 -0.4023,-0.082 -0.4164,-0.10031 -0.7824,-0.32067 -1.1602,-0.51171 -0.1583,-0.08 -0.2791,-0.13073 -0.4414,-0.20313 -0.3998,-0.17176 -0.81,-0.32111 -1.2148,-0.48047 -0.2134,-0.084 -0.423,-0.17261 -0.6289,-0.27344 -1.2613,-0.61769 -1.2102,-1.7109 -0.4746,-2.0332 0,-0.0419 -9e-4,-0.0831 0.01,-0.125 0,-0.04 0.044,-0.0746 0.1055,-0.10352 -0.8629,-0.3531 -1.6989,-0.77254 -2.3711,-1.39648 -0.1501,-0.13937 -0.2846,-0.29543 -0.416,-0.45313 -0.7957,-0.18634 -1.57,-0.45981 -2.3086,-0.82226 -0.4502,-0.41527 -1.0091,-0.73834 -1.3516,-1.2461 -0.8361,-1.23956 -0.6136,-2.79254 0.1289,-3.98438 0.3681,-0.59073 0.7932,-0.85875 1.3106,-1.20703 -5e-4,-0.0127 0,-0.0245 0,-0.0371 -0.9408,-1.18013 -1.6412,-2.62899 -1.6094,-4.17383 0.01,-0.44777 0.139,-0.88569 0.209,-1.32813 0.3634,-0.86305 0.4088,-1.13818 0.9941,-1.87695 0.8971,-1.13228 2.1141,-1.8465 3.4746,-2.28125 1.0196,-0.24864 1.1961,-0.35073 2.293,-0.36133 1.187,-0.0115 2.3493,0.36166 3.4785,0.67383 1.6402,0.57207 3.2585,1.21189 4.7403,2.13281 0.7955,0.46588 1.7918,0.98086 2.6738,1.59375 0.2986,-0.008 0.5962,-0.011 0.8945,-0.0137 h 0.8828 c -1.7069,-1.2846 -1.3265,-3.80689 1.5039,-4.79102 0.045,-0.0831 0.092,-0.16616 0.1387,-0.24805 z m 63.77156,7.10548 c -0.052,-7.8e-4 -0.1039,5.6e-4 -0.1563,0.006 v 0.002 0.002 c 0.01,0.0373 0,0.061 0,0.0723 v 0.002 0.002 0.002 0.002 c 0.01,-6e-4 0.026,-0.004 0.057,-0.008 0.052,-0.0152 0.081,-0.0454 0.1,-0.082 z m 0.582,0.1289 v 0.002 c 10e-4,-1e-5 0.01,4e-5 0.01,0 v -0.002 z m 0.01,0.004 c 0.051,0.0532 0.087,0.089 0.094,0.0957 0.033,0.007 0.2493,0.12534 0.2813,0.13477 v -0.002 -0.002 -0.002 -0.002 -0.002 c -0.1158,-0.0892 -0.2382,-0.16416 -0.3653,-0.2207 z m 5.8984,16.50392 c -0.014,0.002 -0.029,0.004 -0.039,0.01 v 0.002 0.002 0.002 0.002 0.002 0.002 0.002 0.002 c 0,-3e-5 0.01,6e-5 0.01,0 v -0.002 c 0.013,-0.009 0.026,-0.0153 0.039,-0.0234 z m 194.9787,90.41218 c -0.01,0.0503 -0.019,0.10248 -0.025,0.1543 0.015,-0.0531 0.024,-0.10516 0.025,-0.1543 z m -13.1152,100.27157 c -0.066,0.0852 -0.1327,0.16956 -0.1993,0.25391 -0.4785,0.58513 -0.9652,1.163 -1.4863,1.71094 -0.2923,0.31687 -0.6006,0.61732 -0.8887,0.9375 -0.2946,0.35964 -0.535,0.75783 -0.8008,1.13867 -0.395,0.5772 -0.7981,1.14827 -1.1972,1.72266 -0.2956,0.42454 -0.5906,0.84855 -0.8399,1.30273 -0.2964,0.47483 -0.5899,0.95179 -0.8906,1.42383 -0.2995,0.45696 -0.6133,0.90614 -0.9629,1.32617 1.5361,1.40505 2.9186,2.98189 3.959,4.79493 0.3249,0.5871 0.635,1.18161 0.9336,1.78125 0.3286,-0.0101 0.6609,0.0138 0.9961,0.0781 -0.2369,-0.97386 0.035,-1.71589 0.2734,-2.8086 0.6223,-1.66782 1.2437,-3.28546 2.6133,-4.52539 1.2243,-1.10839 2.5061,-1.51712 4.1817,-1.47852 0.5864,0.0135 1.1259,0.32549 1.6894,0.48828 0.4098,0.23259 0.8352,0.44071 1.2305,0.69727 1.3225,0.85834 2.5299,1.97093 3.416,3.2793 0.1533,0.22638 0.2917,0.47262 0.418,0.72851 0.5741,-0.2893 1.1614,-0.5204 1.7734,-0.73633 0.4629,-0.13644 0.9313,-0.22768 1.4043,-0.27929 -0.6336,-0.53546 -1.313,-1.01422 -2.0039,-1.47266 -1.0432,-0.67195 -2.051,-1.3942 -3.0449,-2.13672 -1.3098,-0.96857 -2.5218,-2.06035 -3.7266,-3.1543 -0.9472,-0.9108 -1.8788,-1.83734 -2.8281,-2.7461 -0.7183,-0.67174 -1.3421,-1.44132 -2.082,-2.08984 -0.023,-0.0174 -0.1341,-0.12786 -0.2071,-0.13086 v 0.002 0.002 0.002 0.002 0.002 0.002 0.002 0.002 l 0,0.002 v 0.002 c 0,0.008 0.012,0.0158 0.016,0.0215 v 0.002 0.002 0.002 c -0.1318,0.0199 -0.2646,-0.0339 -0.3965,-0.0527 -0.4434,-0.051 -0.8881,-0.0804 -1.334,-0.0996 z m -19.1856,3.9961 c -0.02,0.0254 -0.041,0.0527 -0.061,0.0781 0.051,-0.011 0.1005,-0.0213 0.1465,-0.0312 -0.029,-0.0153 -0.058,-0.0313 -0.086,-0.0469 z m 37.9024,7.83594 c -0.1693,0.007 -0.3632,0.0378 -0.5821,0.0937 0.4449,0.0776 0.8873,0.18693 1.3203,0.32422 0.074,0.0236 0.1475,0.0477 0.2207,0.0742 -0.1549,-0.32217 -0.4512,-0.51213 -0.9589,-0.49219 z m -38.4239,1.76953 c 0.02,0.10159 0.039,0.2032 0.06,0.30469 -7e-4,-0.0938 0,-0.18749 0,-0.28125 -0.019,-0.008 -0.038,-0.0154 -0.058,-0.0234 z m 36.1172,4.03907 c -0.091,0.005 -0.181,0.0165 -0.2715,0.0332 -0.208,0.0681 -0.486,0.15314 -0.6894,0.24414 -0.5026,0.22471 -0.9576,0.54337 -1.4395,0.8086 0.074,1.46669 -0.1393,2.93415 -0.8769,4.24805 -0.283,0.50406 -0.7382,0.88918 -1.1074,1.33398 -0.7272,0.52822 -1.056,0.81513 -1.5391,1.08008 0.5275,0.003 1.0553,0.0155 1.584,0.0352 1.2166,0.006 2.4282,-0.0956 3.6347,-0.25195 0.6558,-0.0968 1.3452,-0.1482 1.918,-0.50977 0.6907,-0.69361 0.89,-1.7133 1.2598,-2.5918 0.098,-0.37704 0.2676,-0.82044 0.2676,-1.21875 0,-0.56359 -0.1563,-1.114 -0.2715,-1.66016 -0.044,-0.14247 -0.093,-0.28394 -0.1328,-0.42773 -0.1086,-0.39218 -0.041,-0.48434 -0.4942,-0.68946 -0.4945,-0.2119 -1.0289,-0.40627 -1.5703,-0.43359 -0.09,-0.005 -0.1809,-0.005 -0.2715,0 z m -13.5762,2.61328 c 0.068,0.12547 0.1337,0.25317 0.1973,0.38086 0.1922,0.019 0.3813,0.0359 0.5645,0.0547 1.1573,-0.007 2.7511,0.12113 3.9218,-0.37305 -0.4104,0.10145 -0.8053,0.17623 -1.1211,0.25196 -0.5777,0.004 -1.1566,0.0565 -1.7324,0.01 -0.4948,-0.0403 -1.1687,-0.15389 -1.8301,-0.32422 z m -13.6914,1.01758 c 0.01,0.0196 0.019,0.0388 0.027,0.0586 -6e-4,-0.0197 -0,-0.0389 -0,-0.0586 z m 0.027,0.0586 c 8e-4,0.0317 0,0.064 0.01,0.0957 0.01,0.11402 2e-4,0.25094 0.074,0.33594 h 0 c 0.022,-0.0369 0.019,-0.16983 -0,-0.22266 -0.026,-0.0699 -0.052,-0.14015 -0.082,-0.20898 z m -181.2131,5.9043 c 0.6539,-0.021 1.2889,0.0463 1.9239,0.19922 0.3666,0.10777 0.7331,0.22509 1.0722,0.40429 0.2543,0.13434 0.3257,0.19401 0.5586,0.35547 0.3996,0.29412 0.8097,0.57308 1.2149,0.85938 0.34,0.23433 0.6725,0.48495 0.8925,0.84375 0.1927,0.31421 0.2029,0.44194 0.2989,0.79102 0.08,0.40153 0.1165,0.81173 0.1738,1.21679 0.03,0.006 0.059,0.012 0.088,0.0176 0.306,0.0582 0.5765,0.32492 0.789,0.53125 0.3473,0.41979 0.5897,0.92118 0.7168,1.45117 0.029,0.12362 0.05,0.25025 0.074,0.37501 0.097,0.6564 0.1394,1.31937 0.1504,1.98242 -0.01,0.57592 0.01,1.15182 -0.037,1.72656 -0.046,0.39419 -0.1924,0.72164 -0.4218,1.00782 10e-4,0.0143 9e-4,0.0267 0,0.041 0.014,0.20498 0.014,0.41195 0,0.61719 0,0.0374 -0.01,0.0744 -0.01,0.11133 0.6027,0.63222 -0.054,1.04666 -0.9141,1.74414 v 0.002 c -0.078,0.0436 -0.5708,-0.19113 -0.6875,-0.23828 -0.4863,-0.15771 -0.884,-0.39232 -1.3046,-0.67969 -0.5487,-0.36553 -1.0054,-0.8432 -1.4688,-1.30664 -0.4707,-0.43639 -0.9604,-0.85094 -1.4551,-1.25976 -0.4104,-0.33149 -0.8334,-0.64779 -1.2676,-0.94727 -0.5475,-0.371 -1.1182,-0.70347 -1.6796,-1.05274 -0.34,0.33184 -0.7692,0.64614 -1.3438,0.30274 -0.6634,-0.39641 -0.6217,-0.94123 -0.5488,-1.48047 -0.5645,-0.33101 -1.0913,-0.71943 -1.6407,-1.07422 -0.6062,-0.38598 -1.1826,-0.81707 -1.7324,-1.2793 -0.4468,-0.3933 -0.8724,-0.80767 -1.3359,-1.18164 -0.2111,-0.18339 -0.4638,-0.32056 -0.6699,-0.50977 -0.076,-0.0696 -0.1628,-0.13145 -0.2168,-0.21875 -0.1011,-0.16222 -0.1632,-0.34657 -0.2442,-0.51953 0.069,-0.29483 0.051,-0.62523 0.2071,-0.88477 0.2877,-0.47853 0.9527,-0.47262 1.4257,-0.54492 0.4937,-0.0773 0.9806,-0.19458 1.4649,-0.3164 0.7244,-0.20989 1.4619,-0.3653 2.2051,-0.49024 0.6036,-0.1226 1.2088,-0.23376 1.8144,-0.3457 0.6311,-0.12358 1.2659,-0.2154 1.9082,-0.25 z m -7.2851,1.93164 v 0.002 c 0.025,0.0214 0.052,0.0419 0.078,0.0625 v -0.002 -0.002 -0.002 -0.002 c -0.013,-0.0188 -0.059,-0.0502 -0.072,-0.0566 z m 14.0273,4.00196 c 0,0.008 -10e-5,0.0166 0,0.0273 h 0 c 9e-4,-5.3e-4 0.01,-0.003 0.01,-0.004 l 0,-0.002 v -0.002 -0.002 -0.002 -0.002 c -0,-0.003 -0.01,-0.009 -0.01,-0.0117 z m 150.8537,1.15039 c -0.1936,0.1659 -0.3865,0.33206 -0.5801,0.49805 -0.3505,0.31048 -0.7118,0.60879 -1.0781,0.90039 -0.3919,0.31437 -0.7979,0.60407 -1.2208,0.875 -0.1377,0.0868 -0.2715,0.17843 -0.4023,0.27343 0.2376,0.044 0.478,0.0723 0.7207,0.0898 0.5983,-6e-5 1.1084,-0.34577 1.543,-0.73047 0.4949,-0.53223 0.7928,-1.19511 1.0898,-1.85156 -0.024,-0.0183 -0.048,-0.0364 -0.072,-0.0547 z m 12.0312,2.76953 c -0.04,0.003 -0.094,0.008 -0.1699,0.0137 -0.03,0.0151 -0.05,0.026 -0.059,0.0332 l -0,0.002 v 0.002 0.002 0.002 0.002 0.002 c 0.024,0.005 0.1184,-0.0172 0.1778,-0.0391 0.017,-0.006 0.036,-0.0131 0.053,-0.0195 z m -162.1661,2.81641 c 0,0.0276 0.01,0.0565 0.012,0.0859 -6e-4,-0.029 -7e-4,-0.0572 0,-0.0859 z m 44.9981,7.27344 v 0.002 0.002 c -0.01,0.0358 5e-4,0.10666 0.031,0.17773 4e-4,-0.0114 0,-0.0238 0,-0.0351 0,-0.0759 6e-4,-0.12237 -0.01,-0.14649 h -0.01 c 0,-6e-5 7e-4,-1.6e-4 -0.01,0 z m -15.043,5.38087 v 0.002 0.002 c 0.011,0.004 0.043,0.0135 0.1,0.0273 -0.01,-0.01 -0.021,-0.019 -0.031,-0.0293 -0.03,-7e-4 -0.045,-0.003 -0.06,-0.002 z" />
    </clipPath>
  </defs>
  <sodipodi:namedview
     id="namedview47"
     pagecolor="#ffffff"
     bordercolor="#000000"
     borderopacity="0.25"
     inkscape:showpageshadow="2"
     inkscape:pageopacity="0.0"
     inkscape:pagecheckerboard="0"
     inkscape:deskcolor="#d1d1d1"
     showguides="false"
     inkscape:zoom="4.7632612"
     inkscape:cx="191.88534"
     inkscape:cy="313.33575"
     inkscape:window-width="1920"
     inkscape:window-height="1012"
     inkscape:window-x="2240"
     inkscape:window-y="40"
     inkscape:window-maximized="1"
     inkscape:current-layer="svg47">
    <sodipodi:guide
       position="321.62866,644.09626"
       orientation="1,0"
       id="guide47"
       inkscape:locked="false" />
    <sodipodi:guide
       position="-141.07993,319.10897"
       orientation="0,-1"
       id="guide48"
       inkscape:locked="false" />
    <sodipodi:guide
       position="217.49823,617.22393"
       orientation="1,0"
       id="guide49"
       inkscape:locked="false" />
    <sodipodi:guide
       position="188.10658,601.26848"
       orientation="1,0"
       id="guide50"
       inkscape:locked="false" />
  </sodipodi:namedview>
  <g
     transform="translate(-7.3117924,-8.9741507)"
     id="g47"
     style="display:inline">
    <path
       fill="none"
       opacity="1"
       stroke="#000000"
       stroke-linecap="round"
       stroke-linejoin="round"
       stroke-width="3"
       d="m 1224.38,407.275 c -0.86,-12.277 -1.26,-24.57 -4.93,-36.521 -4.66,-15.152 -11.92,-28.684 -22.53,-40.51 -10.46,-11.651 -22.61,-20.756 -37.02,-27.02 -17.48,-7.602 -35.7,-10.499 -54.51,-8.352 -25.08,2.863 -46.98,13.06 -64.43,31.478 -16.3,17.2 -26.51,37.482 -29.14,61.419 -4.5,40.927 9.77,73.899 41.6,99.459 14.01,11.25 30.37,17.554 47.97,20.487 13.04,2.172 26.14,1.4 38.98,-1.506 28.5,-6.457 50.69,-22.705 66.8,-46.578 9.47,-14.042 14.84,-30.185 16.24,-47.353 0.12,-1.517 0.64,-3.003 0.97,-4.503"
       id="path1" />
    <path
       fill="none"
       opacity="1"
       stroke="#000000"
       stroke-linecap="round"
       stroke-linejoin="round"
       stroke-width="3"
       d="m 1170.88,528.275 c 5.5,13 11,26.003 16.5,39 8.83,20.835 17.69,41.659 26.49,62.504 4.71,11.148 9.13,22.424 14.08,33.464 3.43,7.633 5.96,15.629 9.77,23.114 0.84,1.652 1.89,3.22 2.66,4.918"
       id="path2" />
    <path
       fill="none"
       opacity="1"
       stroke="#000000"
       stroke-linecap="round"
       stroke-linejoin="round"
       stroke-width="3"
       d="m 1253.88,119.775 c -10.67,22 -21.34,43.999 -32,66.001 -10.34,21.331 -20.65,42.672 -31.01,63.996 -4.29,8.852 -8.66,17.67 -12.99,26.503"
       id="path3" />
    <path
       fill="none"
       opacity="1"
       stroke="#000000"
       stroke-linecap="round"
       stroke-linejoin="round"
       stroke-width="3"
       d="m 1069.38,559.775 c -3.79,2.474 -4.4,6.933 -5.3,10.55 -4.02,16.045 -9.67,31.576 -14.34,47.408 -7.81,26.488 -16.71,52.653 -24.62,79.113 -1.01,3.355 -3.36,6.583 -2.74,10.429"
       id="path4" />
    <path
       fill="none"
       opacity="1"
       stroke="#000000"
       stroke-linecap="round"
       stroke-linejoin="round"
       stroke-width="3"
       d="m 941.543,418.577 c -10.667,1.5 -21.34,2.955 -31.998,4.513 -11.009,1.61 -21.957,3.817 -33.017,4.827 -8.547,0.781 -16.928,2.54 -25.475,3.277 -8.214,0.709 -16.333,2.455 -24.514,3.61 -6.149,0.868 -12.332,1.505 -18.495,2.28 -3.672,0.462 -7.335,0.993 -11.001,1.493"
       id="path5" />
    <path
       fill="none"
       opacity="1"
       stroke="#000000"
       stroke-linecap="round"
       stroke-linejoin="round"
       stroke-width="3"
       d="m 945.88,131.775 c 11.272,19.298 23.959,37.694 36.021,56.487 17.254,26.885 34.579,53.722 52.039,80.476 3.24,4.962 8.4,8.694 9.44,15.037"
       id="path6" />
    <path
       fill="none"
       opacity="1"
       stroke="#000000"
       stroke-linecap="round"
       stroke-linejoin="round"
       stroke-width="3"
       d="m 983.38,434.775 c -9.166,2.667 -18.379,5.185 -27.491,8.027 -34.521,10.767 -69,21.666 -103.512,32.462 -15.145,4.737 -30.33,9.345 -45.497,14.011"
       id="path7" />
    <path
       fill="none"
       opacity="1"
       stroke="#000000"
       stroke-linecap="round"
       stroke-linejoin="round"
       stroke-width="3"
       d="m 1288.88,140.775 c -11.95,19.687 -24.97,38.686 -37.48,58.015 -11.27,17.43 -22.26,35.044 -33.55,52.464 -6.99,10.782 -14.3,21.355 -21.47,32.022"
       id="path8" />
    <path
       fill="none"
       opacity="1"
       stroke="#000000"
       stroke-linecap="round"
       stroke-linejoin="round"
       stroke-width="3"
       d="m 1033.88,542.275 c 0.75,2.18 -0.16,4.185 -1.05,5.978 -12.26,24.867 -24.67,49.661 -36.93,74.532 -8.765,17.785 -17.319,35.674 -26.059,53.471 -1.215,2.474 -2.96,4.686 -4.46,7.02"
       id="path9" />
    <path
       fill="none"
       opacity="1"
       stroke="#000000"
       stroke-linecap="round"
       stroke-linejoin="round"
       stroke-width="3"
       d="m 945.38,363.275 c -10.142,-3.53 -20.672,-5.644 -31.003,-8.487 -25.961,-7.144 -52.161,-13.379 -78.05,-20.827 -9.211,-2.649 -18.605,-4.886 -27.953,-7.159 -1.454,-0.354 -2.994,-0.36 -4.494,-0.527"
       id="path10" />
    <path
       fill="none"
       opacity="1"
       stroke="#000000"
       stroke-linecap="round"
       stroke-linejoin="round"
       stroke-width="3"
       d="m 910.88,156.775 c 3.252,5.905 8.3,10.372 12.56,15.45 18.695,22.283 37.55,44.433 56.458,66.535 15.747,18.408 31.652,36.682 47.482,55.015"
       id="path11" />
    <path
       fill="none"
       opacity="1"
       stroke="#000000"
       stroke-linecap="round"
       stroke-linejoin="round"
       stroke-width="3"
       d="m 986.38,354.775 c -10.032,-1.822 -19.44,-5.74 -28.958,-9.117 -22.207,-7.881 -44.341,-15.979 -66.49,-24.024 -21.012,-7.632 -42.059,-15.172 -63.018,-22.948 -4.239,-1.573 -8.898,-2.37 -12.534,-5.411"
       id="path12" />
    <path
       fill="none"
       opacity="1"
       stroke="#000000"
       stroke-linecap="round"
       stroke-linejoin="round"
       stroke-width="3"
       d="m 1153.38,534.275 c 0.81,7.501 3.15,14.673 4.78,21.993 4.82,21.521 9.8,43.009 14.72,64.507 3.32,14.503 6.62,29.011 10.01,43.497 2.94,12.516 6.12,24.976 8.89,37.527 0.55,2.531 2.2,4.489 2.6,6.976"
       id="path13" />
    <path
       fill="none"
       opacity="1"
       stroke="#000000"
       stroke-linecap="round"
       stroke-linejoin="round"
       stroke-width="3"
       d="m 884.88,182.275 c 11.157,11.521 23.062,22.276 34.445,33.557 30.898,30.623 62.886,60.107 94.055,90.443"
       id="path14" />
    <path
       fill="none"
       opacity="1"
       stroke="#000000"
       stroke-linecap="round"
       stroke-linejoin="round"
       stroke-width="3"
       d="m 1204.88,535.775 c 0.08,3.557 2.32,6.252 4.07,8.952 18.22,28.079 36.62,56.031 54.92,84.057 7.91,12.117 15.68,24.325 23.51,36.492"
       id="path15" />
    <path
       fill="none"
       opacity="1"
       stroke="#000000"
       stroke-linecap="round"
       stroke-linejoin="round"
       stroke-width="3"
       d="m 1341.38,187.276 c -15.5,14.666 -30.99,29.344 -46.5,43.997 -20.66,19.511 -41.2,39.146 -62.1,58.396 -4.86,4.478 -9.59,9.081 -14.4,13.606"
       id="path16" />
    <path
       fill="none"
       opacity="1"
       stroke="#000000"
       stroke-linecap="round"
       stroke-linejoin="round"
       stroke-width="3"
       d="m 1235.88,470.275 c 1.5,1.334 2.8,3.063 4.54,3.928 5.8,2.898 10.62,6.922 14.42,12.103 2.33,3.178 5.64,4.377 8.94,6.149 11.26,6.031 22.1,12.815 33.1,19.322 20.84,12.329 41.66,24.673 62.5,36.995 7.66,4.524 15.33,9.003 23,13.503"
       id="path17" />
    <path
       fill="none"
       opacity="1"
       stroke="#000000"
       stroke-linecap="round"
       stroke-linejoin="round"
       stroke-width="3"
       d="m 1242.38,460.275 c 11.87,6.283 23.85,12.055 36.92,15.798 6.54,1.876 12.71,5.777 19.05,8.778 26.15,12.395 52.59,24.154 79.03,35.933 7.35,3.278 14.67,6.658 22,9.991"
       id="path18" />
    <path
       fill="none"
       opacity="1"
       stroke="#000000"
       stroke-linecap="round"
       stroke-linejoin="round"
       stroke-width="3"
       d="m 1210.38,502.275 c -0.14,1.988 0.93,3.562 2.04,4.972 2.38,3.034 4.76,5.97 6.61,9.449 1.51,2.849 5.17,3.861 7.46,6.486 12.94,14.86 26.25,29.406 39.39,44.099 16.52,18.478 33.07,36.933 49.44,55.548 3.12,3.551 6.23,7.096 9.56,10.446"
       id="path19" />
    <path
       fill="none"
       opacity="1"
       stroke="#000000"
       stroke-linecap="round"
       stroke-linejoin="round"
       stroke-width="3"
       d="m 1107.38,262.775 c 7.17,-0.167 14.62,-1.27 21.45,-0.157 14.44,2.354 28.92,5.201 42.57,11.11 27.37,11.849 48.48,30.813 63.89,56.101 6.97,11.431 11.45,24.067 15.06,36.955 0.56,1.998 -0.89,3.067 -2.46,4.008 -5.28,3.172 -8.26,8.095 -8.88,13.997 -0.5,4.796 2.63,8.93 6.47,10.79 8.34,4.051 9.92,10.461 8.95,18.702 -1.1,9.332 -2.32,18.807 -5.82,27.385 -3.53,8.645 -6.23,17.759 -11.56,25.72 -1.64,2.436 -3.29,3.197 -5.67,3.353 -2.49,0.163 -5,0.026 -7.5,0.038 -11.92,0.059 -18.29,9.667 -13.45,20.478 1.16,2.605 2.16,5.183 2.49,7.822 1.18,0.581 2.56,0.894 3.42,1.738 5.6,5.511 12.88,8.25 19.6,11.846 2.57,1.374 2.7,4.108 4.86,5.719 8.36,6.243 16.43,12.876 24.58,19.4 17.67,14.153 35.31,28.362 53.01,42.483 10.95,8.733 21.99,17.346 32.99,26.012"
       id="path20" />
    <path
       fill="none"
       opacity="1"
       stroke="#000000"
       stroke-linecap="round"
       stroke-linejoin="round"
       stroke-width="3"
       d="m 1432.38,390.275 c -19.67,0.167 -39.38,-0.422 -58.99,0.706 -21.02,1.209 -42.01,0.341 -63.01,0.723 -3.03,0.055 -5.89,2.368 -9,0.571"
       id="path21" />
    <path
       fill="none"
       opacity="1"
       stroke="#000000"
       stroke-linecap="round"
       stroke-linejoin="round"
       stroke-width="3"
       d="m 1386.38,249.275 c -26.5,16.167 -52.96,32.393 -79.52,48.472 -10.88,6.589 -21.46,13.863 -32.67,19.671 -11.6,6.016 -22.9,12.883 -35.31,17.357"
       id="path22" />
    <path
       fill="none"
       opacity="1"
       stroke="#000000"
       stroke-linecap="round"
       stroke-linejoin="round"
       stroke-width="3"
       d="m 1015.88,527.775 c -5.4,3.149 -8.65,8.428 -12.42,13.062 -14.689,18.016 -29.096,36.259 -43.575,54.442 -14.188,17.817 -28.338,35.663 -42.505,53.496 -0.664,0.836 -1.333,1.667 -2,2.5"
       id="path23" />
    <path
       fill="none"
       opacity="1"
       stroke="#000000"
       stroke-linecap="round"
       stroke-linejoin="round"
       stroke-width="3"
       d="m 1014.88,495.275 c -9.27,9.565 -19.31,18.349 -28.8,27.695 -7.25,7.14 -15.108,13.898 -22.647,20.862 -15.674,14.479 -30.893,29.45 -46.606,43.885 -11.38,10.455 -22.534,21.125 -33.447,32.058"
       id="path24" />
    <path
       fill="none"
       opacity="1"
       stroke="#000000"
       stroke-linecap="round"
       stroke-linejoin="round"
       stroke-width="3"
       d="m 1322.88,420.775 c 0.19,1.181 -0.1,1.763 -1.49,2.047 -10.68,2.178 -15.75,9.452 -14.48,20.95 0.86,7.776 9.81,14.646 17.97,14.042 10.17,-0.752 16.93,-8.976 17.14,-17.535 0.21,-8.864 -8.82,-19.11 -17.14,-17.526 -0.47,0.089 -1,-0.144 -1.5,-0.228"
       id="path25" />
    <path
       fill="none"
       opacity="1"
       stroke="#000000"
       stroke-linecap="round"
       stroke-linejoin="round"
       stroke-width="3"
       d="m 816.38,394.525 c 40,0.084 80,0.162 120,0.271 1.334,0.004 2.667,0.313 4,0.479"
       id="path26" />
    <path
       fill="none"
       opacity="1"
       stroke="#000000"
       stroke-linecap="round"
       stroke-linejoin="round"
       stroke-width="3"
       d="m 1090.88,85.775 c -0.39,11.755 1.81,23.323 2.55,34.997 0.59,9.349 1.68,18.672 2.61,27.988 1.24,12.505 1.75,25.087 3.74,37.532 0.68,4.253 0.54,8.651 0.97,12.997 1.66,16.634 2.39,33.37 4.42,49.951 0.5,4.12 -2.56,8.923 1.66,12.593 0.28,0.244 0.04,1.24 -0.4,1.972 -9.15,15.183 -28.83,21.4 -44.4,10.75 -2.88,-1.968 -5.48,-5.148 -8.23,-7.692 -5.71,-5.278 -10.52,-3.874 -13.42,3.411 -0.47,1.179 -1,2.335 -1.5,3.501"
       id="path27" />
    <path
       fill="none"
       opacity="1"
       stroke="#000000"
       stroke-linecap="round"
       stroke-linejoin="round"
       stroke-width="3"
       d="m 1254.88,403.275 c 3.93,-2.446 8.31,-1.229 12.5,-1.489 8.23,-0.509 15.34,-3.139 20.52,-9.992 5.46,-7.202 2.24,-15.114 -3.08,-18.934 -8.22,-5.9 -17.46,-7.605 -27.46,-5.179 -2.01,0.487 -4.37,0.537 -6.48,-0.406"
       id="path28" />
    <path
       fill="none"
       opacity="1"
       stroke="#000000"
       stroke-linecap="round"
       stroke-linejoin="round"
       stroke-width="3"
       d="m 834.38,252.275 c 7.218,5.572 15.596,9.124 23.5,13.501 13.835,7.664 27.436,15.792 41.558,22.886 18.609,9.348 36.384,20.19 54.903,29.69 12.871,6.602 25.373,13.923 38.039,20.923"
       id="path29" />
    <path
       fill="none"
       opacity="1"
       stroke="#000000"
       stroke-linecap="round"
       stroke-linejoin="round"
       stroke-width="3"
       d="m 1274.38,318.775 c 0.5,1.167 0.73,2.575 1.54,3.464 10.74,11.842 13.49,27.379 18.68,41.637 3.23,8.848 4.68,18.584 5.87,27.951 0.83,6.502 -0.93,13.632 -1.75,20.429 -1.31,10.79 -3.19,21.539 -6.3,32.032 -3.18,10.75 -6.99,21.25 -11.54,31.487"
       id="path30" />
    <path
       fill="none"
       opacity="1"
       stroke="#000000"
       stroke-linecap="round"
       stroke-linejoin="round"
       stroke-width="3"
       d="m 1061.88,275.275 c -0.41,1.695 -1.33,3.171 -1.57,4.991 -0.78,5.828 -5.4,8.795 -10.32,5.825 -4.55,-2.743 -7.59,-1.477 -11.12,1.167 -13.46,10.078 -25.52,21.555 -34.95,35.545 -5.809,8.619 -10.922,17.7 -14.487,27.492 -5.047,13.861 -7.897,28.114 -8.77,42.968 -0.799,13.605 0.542,26.934 3.488,39.951 2.359,10.424 6.635,20.43 11.558,30.148 5.621,11.102 13.061,20.797 20.771,30.335 3.6,4.458 8.23,8.078 12.4,12.078"
       id="path31" />
    <path
       fill="none"
       opacity="1"
       stroke="#000000"
       stroke-linecap="round"
       stroke-linejoin="round"
       stroke-width="3"
       d="m 858.88,214.275 c 10.773,9.553 22.636,17.709 34.022,26.472 9.059,6.973 18.52,13.436 27.426,20.593 11.419,9.177 23.578,17.34 35.112,26.36 11.732,9.175 23.937,17.747 35.943,26.573 3.653,2.685 7.331,5.336 10.997,8.002"
       id="path32" />
    <path
       fill="none"
       opacity="1"
       stroke="#000000"
       stroke-linecap="round"
       stroke-linejoin="round"
       stroke-width="3"
       d="m 1136.38,85.775 c -0.37,14.505 -1.18,28.994 -1.68,43.494 -0.54,15.666 -1.13,31.351 -2.06,46.992 -0.47,7.851 -0.24,15.694 -0.8,23.512 -1.17,16.316 -1.74,32.646 -2.14,48.998 -0.11,4.288 -0.8,8.647 -0.82,13.004"
       id="path33" />
    <path
       fill="none"
       opacity="1"
       stroke="#000000"
       stroke-linecap="round"
       stroke-linejoin="round"
       stroke-width="3"
       d="m 1135.88,564.775 c -1.48,-0.146 -2.25,0.497 -1.99,1.998 1.45,8.274 1.43,16.664 2.13,24.99 1.09,12.831 1.06,25.725 2.73,38.53 0.81,6.248 0.53,12.648 0.98,18.993 1.41,19.638 1.99,39.334 3.3,58.979 0.23,3.48 0.82,6.982 0.85,10.51"
       id="path34" />
    <path
       fill="none"
       opacity="1"
       stroke="#000000"
       stroke-linecap="round"
       stroke-linejoin="round"
       stroke-width="3"
       d="m 1102.88,563.275 c -3.56,1.451 -5.12,5.153 -8.42,7.127 -8.68,5.18 -15.81,1.666 -20.71,-5.031 -5.62,-7.676 -2.93,-15.65 -2.28,-23.588 0.26,-3.179 2.03,-6.175 1.91,-9.508 -0.01,-0.499 -0.16,-1.369 0.02,-1.446 5.42,-2.311 8.2,-8.035 13.93,-10.197 5.89,-2.225 13.34,1.197 16.55,7.643 1.33,2.669 2.55,5.406 4.07,7.96 0.5,0.849 1.41,1.746 0.88,2.503 -3.76,5.326 -0.65,12.035 -3.82,17.611 -1.95,3.436 -0.67,7.506 -0.42,11.445 0.49,7.596 1.33,15.374 -0.65,22.997 -0.41,1.561 -0.07,3.318 -0.06,4.984 0.15,16.677 -0.05,33.345 -0.96,50.003 -0.09,1.648 -0.51,3.411 0.46,4.997"
       id="path35" />
    <path
       fill="none"
       opacity="1"
       stroke="#000000"
       stroke-linecap="round"
       stroke-linejoin="round"
       stroke-width="3"
       d="m 1103.88,256.775 c -6.76,-3.508 -13.76,-5.153 -21.51,-4.083 -11.41,1.575 -19.31,8.138 -21.99,19.083"
       id="path36" />
    <path
       fill="none"
       opacity="1"
       stroke="#000000"
       stroke-linecap="round"
       stroke-linejoin="round"
       stroke-width="3"
       d="m 1258.88,491.775 c -0.17,1.167 -0.57,2.356 -0.46,3.497 1.04,11.259 -5.77,15.535 -14.54,16.453 -2.12,0.221 -4.24,0.105 -6,1.55"
       id="path37" />
    <path
       fill="none"
       opacity="1"
       stroke="#000000"
       stroke-linecap="round"
       stroke-linejoin="round"
       stroke-width="3"
       d="m 954.054,344.775 c -2.307,3.667 -2.342,7.997 -3.492,12.002 -0.38,1.32 -0.246,3.374 -1.08,3.878 -4.052,2.448 -3.269,6.88 -3.689,10.151 -1.575,12.258 -4.412,24.568 -3.02,36.944 0.788,7.01 0.736,14.291 3.65,21.082 1.069,2.491 0.126,5.579 0.92,8.501 0.71,2.615 1.595,4.873 3.211,6.942"
       id="path38" />
    <path
       fill="none"
       opacity="1"
       stroke="#000000"
       stroke-linecap="round"
       stroke-linejoin="round"
       stroke-width="3"
       d="m 1016.88,528.275 c 0.9,1.731 0.88,3.605 1.05,5.496 0.59,6.452 5.02,8.783 11.47,8.177 9.75,-0.917 11.73,-9.442 16.32,-15.299 1.52,-1.946 2.98,-4.007 4.74,-6.162 -1.03,-2.122 -1.67,-4.531 -1.63,-7.212 0.11,-7.742 -5.05,-11.822 -12.39,-9.323 -2.36,0.803 -4.84,0.767 -6.95,2.218 -3.82,7.307 -9.82,13.655 -13.11,21.605"
       id="path39" />
    <path
       fill="none"
       opacity="1"
       stroke="#000000"
       stroke-linecap="round"
       stroke-linejoin="round"
       stroke-width="3"
       d="m 1212.38,499.775 c -2.83,3.75 -5.55,1.137 -8.53,0.08 -4,-1.422 -8.14,-2.514 -12.02,0.863 -1.51,1.31 -2.22,2.75 -3.11,4.473 -2.19,4.236 -1.25,9.121 -0.32,12.441 1.27,4.573 5.94,8.353 9.63,11.989 0.87,0.855 2.46,1.644 3.29,2.704 2.71,3.499 5.98,3.349 9.56,1.941 3.88,-1.529 6.59,-3.814 7.16,-8.471 0.28,-2.296 -0.58,-4.991 1.34,-7.02"
       id="path40" />
    <path
       fill="none"
       opacity="1"
       stroke="#000000"
       stroke-linecap="round"
       stroke-linejoin="round"
       stroke-width="3"
       d="m 1104.88,650.775 c -3.02,-0.179 -1.95,2.121 -1.96,3.501 -0.27,21.834 -1.54,43.653 -1.04,65.499"
       id="path41" />
    <path
       fill="none"
       opacity="1"
       stroke="#000000"
       stroke-linecap="round"
       stroke-linejoin="round"
       stroke-width="3"
       d="m 1187.88,518.775 c -10.68,5.423 -21.35,10.819 -32.98,14.055 -4.63,1.287 -9.4,1.861 -13.99,3.072 -10.44,2.761 -21.01,1.556 -31.53,1.873"
       id="path42" />
    <path
       fill="none"
       opacity="1"
       stroke="#000000"
       stroke-linecap="round"
       stroke-linejoin="round"
       stroke-width="3"
       d="m 1050.88,520.775 c 7.16,3.727 14.46,7.114 22,10"
       id="path43" />
    <path
       fill="none"
       opacity="1"
       stroke="#000000"
       stroke-linecap="round"
       stroke-linejoin="round"
       stroke-width="3"
       d="m 1132.38,538.775 c 0.67,8.667 1.33,17.334 2,26"
       id="path44" />
    <path
       fill="none"
       opacity="1"
       stroke="#000000"
       stroke-linecap="round"
       stroke-linejoin="round"
       stroke-width="3"
       d="m 986.38,524.275 c 5.834,5.167 11.667,10.334 17.5,15.5"
       id="path45" />
    <path
       fill="none"
       opacity="1"
       stroke="#000000"
       stroke-linecap="round"
       stroke-linejoin="round"
       stroke-width="3"
       d="m 795.38,393.775 c 5.931,1.593 12.082,-1.221 18.023,0.939 1.234,0.449 2.856,0.243 2.477,-1.939"
       id="path46" />
    <path
       fill="none"
       opacity="1"
       stroke="#000000"
       stroke-linecap="round"
       stroke-linejoin="round"
       stroke-width="3"
       d="m 1084.39,82.395 c -7.3,-1.433 -14.46,0.634 -21.47,1.73 -13.84,2.164 -27.57,5.205 -41.04,9.238 -13.26,3.969 -26.35,8.511 -38.93,14.179 -15.77,7.112 -31.073,15.325 -45.53,24.902 -16.06,10.638 -31.048,22.607 -45.122,35.856 -23.304,21.938 -42.582,46.87 -58.423,74.588 -13.433,23.505 -23.298,48.414 -30.632,74.466 -3.259,11.577 -5.97,23.272 -7.663,35.068 -3.183,22.183 -3.02,44.572 -2.331,66.977 0.442,14.375 2.454,28.446 5.127,42.498 3.429,18.018 8.876,35.397 15.406,52.538 7.35,19.296 16.673,37.534 27.667,54.921 8.025,12.694 17.214,24.531 26.688,36.241 9.139,11.298 19.495,21.268 29.904,31.135 14.303,13.559 30.484,24.848 47.298,35.241 16.721,10.334 34.281,18.857 52.591,25.821 9.74,3.708 19.82,6.51 29.86,9.434 13.07,3.807 26.28,6.762 39.63,8.395 12.22,1.494 24.58,2.501 36.96,3.024 9.91,0.419 19.73,-0.388 29.49,-0.996 21,-1.307 41.8,-4.783 61.98,-10.862 18.3,-5.512 36.45,-11.628 53.54,-20.402 20.69,-10.629 40.61,-22.351 58.65,-37.311 10.03,-8.315 20.2,-16.457 29.28,-25.751 24.77,-25.368 45.36,-53.787 60.55,-85.938 7.28,-15.394 13.76,-31.094 18.58,-47.476 4.4,-14.975 8.09,-30.142 10.19,-45.55 1.12,-8.218 1.83,-16.616 2.52,-24.944 0.92,-11.206 0.59,-22.362 0.6,-33.522 0,-8.5 -0.8,-17.057 -1.97,-25.486 -1.6,-11.555 -3.18,-23.201 -6.09,-34.465 -3.37,-13.038 -6.99,-26.029 -12.07,-38.645 -4.34,-10.759 -8.39,-21.653 -13.85,-31.844 -8.35,-15.573 -17.2,-30.799 -27.61,-45.261 -11.94,-16.585 -25.71,-31.277 -40.38,-45.192 -13.91,-13.191 -29.23,-24.792 -45.44,-35.038 -22.57,-14.266 -46.54,-25.797 -71.98,-34.01 -16.02,-5.173 -32.39,-9.302 -49,-11.946 -23.67,-3.766 -47.6,-3.397 -71.48,-3.144 -1.88,0.02 -3.31,1.125 -5,1.531"
       style="stroke-width:3"
       id="path47" />
  </g>
  <g
     id="region"
     inkscape:label="region"
     style="display:inline;fill:none">
    <path
       style="fill:none;fill-opacity:0.465455;fill-rule:evenodd"
       d="M 902.69401,144.37407 1020.2665,284.511 1035.1115,273.82259 935.94684,120.62204 Z"
       id="path49"
       inkscape:label="frontalsinus">
      <title
         id="title49">Frontal Sinus</title>
    </path>
    <path
       style="fill:none;fill-opacity:0.465455;fill-rule:evenodd"
       d="m 1084.397,73.118 15.4388,179.92157 20.1892,-1.1876 8.907,-177.546369 z"
       id="path50"
       inkscape:label="Hypothalmus">
      <title
         id="title196">Hypothalmus</title>
    </path>
    <path
       style="fill:none;fill-opacity:0.465455;fill-rule:evenodd"
       d="m 1248.2859,107.55843 35.0343,20.78302 -95.6019,147.55944 -16.3295,-9.50081 z"
       id="path52"
       inkscape:label="Medulla">
      <title
         id="title195">Medulla</title>
    </path>
    <path
       id="path51"
       style="fill:none;fill-opacity:0.465455;fill-rule:evenodd"
       d="m 1130.7135,73.117799 -0.025,0.60547 c -0.3748,-0.01032 -0.5683,-0.01172 -0.5683,-0.01172 l 0.5605,0.164063 -7.6855,177.976708 48.6914,14.84376 77.7872,-160.32435 -10.8106,-3.02734 v -0.002 c -48.2671,-24.869018 -93.3366,-28.873417 -105.3965,-29.51174 0,-9.6e-5 0,9.5e-5 0,0 z"
       inkscape:label="Midbrain / Hindbrain">
      <title
         id="title194">Midbrain / Hindbrain</title>
    </path>
    <path
       id="path53"
       style="fill:none;fill-opacity:0.465455;fill-rule:evenodd"
       d="m 1283.9148,129.23308 -0.2988,0.46289 c -0.1947,-0.11022 -0.2949,-0.16602 -0.2949,-0.16602 l 0.2597,0.22071 -94.9727,147.63488 21.6739,17.81447 127.0118,-119.95517 0.3594,0.30468 c -0.094,-0.12547 -0.1886,-0.25184 -0.2833,-0.37695 l 1.1739,-1.10938 -6.2168,-5.10156 c -16.2752,-18.78622 -37.5531,-32.57358 -45.6661,-37.4766 0,-8.8e-4 -0.01,-0.003 -0.01,-0.004 z"
       inkscape:label="Ear">
      <title
         id="title193">Ear</title>
    </path>
    <path
       id="path54"
       style="fill:none;fill-opacity:0.465455;fill-rule:evenodd"
       d="m 1337.6532,176.14327 -128.2619,119.65049 21.9707,29.68948 8.3711,-4.85157 c 15.0945,-7.24183 50.3455,-25.47099 109.2013,-63.13872 l -14.6465,8.3379 48.1973,-27.93362 -0.7246,-0.99805 c -2.382,-5.39386 -14.9504,-31.86357 -43.8106,-60.45903 l 9.5157,13.21876 z"
       inkscape:label="Neck / Shoulder">
      <title
         id="title192">Neck / Shoulder</title>
    </path>
    <path
       id="path55"
       style="fill:none;fill-opacity:0.465455;fill-rule:evenodd"
       d="m 1382.1883,238.78786 -0.7832,0.47461 c -0.071,-0.11806 -0.1074,-0.17774 -0.1074,-0.17774 l 0.059,0.20703 -114.3653,69.26764 2.9687,5.04688 2.9688,2.37695 5.0469,9.50001 13.0644,35.92581 2.9688,20.78127 4.1562,0.89062 2.9688,-1.78125 120.8399,-1.48437 -0.6308,-2.23633 c -1.3988,-65.16374 -30.3498,-121.23173 -38.1329,-135.17004 -4e-4,-7.6e-4 0,-0.003 0,-0.004 z"
       inkscape:label="Lung">
      <title
         id="title191">Lung</title>
    </path>
    <path
       id="path56"
       style="fill:none;fill-opacity:0.465455;fill-rule:evenodd"
       d="m 1420.7841,381.89344 -0.1211,0.59571 -127.545,1.78125 -0.1016,0.42578 -6.7266,48.26566 c 0,0 -7.7058,20.24737 -11.7012,29.7012 -5e-4,10e-4 0,0.003 0,0.004 l -0.7676,3.25 118.7599,55.2227 0.2988,-1.46875 c 33.8097,-65.75623 27.9063,-137.77746 27.9063,-137.77746 z m -104.4591,33.19144 c 3.5804,0.0278 7.1498,1.25996 9.9649,3.47656 3.2172,2.53326 5.4155,6.32437 6.0156,10.37501 0.6001,4.05063 -0.4055,8.31857 -2.75,11.67579 -2.3445,3.35722 -6.0041,5.76815 -10.0137,6.59961 -1.4614,0.30306 -2.9644,0.40326 -4.4531,0.29688 -4.0221,-0.2874 -7.9126,-2.13768 -10.6739,-5.07618 -2.7612,-2.93849 -4.3653,-6.93467 -4.4023,-10.9668 -0.037,-4.03213 1.4943,-8.05822 4.2012,-11.04689 2.7069,-2.98866 6.562,-4.91034 10.5781,-5.27148 0.5098,-0.0458 1.0217,-0.0665 1.5332,-0.0625 z"
       inkscape:label="Chest">
      <title
         id="title190">Chest</title>
    </path>
    <path
       style="fill:none;fill-opacity:0.465455;fill-rule:evenodd"
       d="m 1314.7916,415.14712 c -4.0161,0.36115 -7.8717,2.28222 -10.5786,5.27089 -2.7069,2.98866 -4.238,7.015 -4.201,11.04713 0.037,4.03213 1.6417,8.0297 4.403,10.9682 2.7613,2.93849 6.6515,4.78851 10.6735,5.07591 1.4887,0.10638 2.9921,0.006 4.4535,-0.2969 4.0095,-0.83146 7.669,-3.24382 10.0136,-6.60104 2.3445,-3.35722 3.3492,-7.62358 2.7491,-11.67422 -0.6001,-4.05064 -2.7986,-7.84246 -6.0158,-10.37572 -3.2172,-2.53326 -7.4189,-3.781 -11.4973,-3.41425 z"
       id="path58"
       inkscape:path-effect="#path-effect58-3"
       inkscape:original-d="m 1314.7916,415.14712 c -1.5835,-10.68841 0.2969,21.37682 0.2969,32.36213 0,10.98531 2.969,-0.19793 4.4535,-0.2969 1.4845,-0.099 -3.1669,-21.37682 -4.7504,-32.06523 z"
       transform="translate(0.05241986,-0.1423534)"
       inkscape:label="Breast">
      <title
         id="title189">Breast</title>
    </path>
    <path
       style="fill:none;fill-opacity:0.465455;fill-rule:evenodd"
       d="m 1234.6285,452.25965 159.1386,70.66227 -16.3295,30.58073 -127.6672,-74.22507 c 0,0 -7.4225,-9.50081 -9.2039,-10.39151 -1.7814,-0.8907 -11.2822,-8.61011 -11.2822,-8.61011 z"
       id="path59"
       inkscape:label="Arm">
      <title
         id="title188">Arm</title>
    </path>
    <path
       style="fill:none;fill-opacity:0.465455;fill-rule:evenodd"
       d="m 1252.1456,481.65278 122.6198,72.74057 -29.0962,42.45674 -112.2283,-88.47628 -2.6721,-4.15661 13.9543,-3.2659 5.938,-5.34421 z"
       id="path60"
       inkscape:label="Spleen">
      <title
         id="title187">Spleen</title>
    </path>
    <path
       style="fill:none;fill-opacity:0.465455;fill-rule:evenodd"
       d="m 1228.0967,460.86976 -16.3295,1.1876 -10.3915,8.90701 5.0473,19.59542 23.752,14.25121 17.814,-5.6411 4.4535,-17.51712 z"
       id="path61"
       inkscape:label="Liver">
      <title
         id="title186">Liver</title>
    </path>
    <path
       style="fill:none;fill-opacity:0.465455;fill-rule:evenodd"
       d="m 1206.7199,490.85669 22.2675,13.65741 3.5628,4.75041 111.3376,88.77318 -24.6427,26.12722 -101.243,-111.6345 -5.3442,-5.0473 -10.3915,-13.36052 z"
       id="path62"
       inkscape:label="Dlaphragm">
      <title
         id="title185">Dlaphragm</title>
    </path>
    <path
       style="fill:none;fill-opacity:0.465455;fill-rule:evenodd"
       d="m 1212.6579,509.26451 6.2349,4.7504 98.8678,111.63451 -37.1125,28.50242 -81.9445,-124.10431 v -3.85971 l 9.7977,-2.0783 z"
       id="path63"
       inkscape:label="Ovary/Testes">
      <title
         id="title184">Ovary/Testes</title>
    </path>
    <path
       style="fill:none;fill-opacity:0.465455;fill-rule:evenodd"
       d="m 1196.6253,525.29712 0.5938,5.34421 82.2414,125.29191 -46.0196,24.93963 -69.4746,-163.88896 17.2202,-6.5318 6.8287,9.20391 z"
       id="path64"
       inkscape:label="Pelvis">
      <title
         id="title183">Pelvis</title>
    </path>
    <path
       style="fill:none;fill-opacity:0.465455;fill-rule:evenodd"
       d="m 1188.3121,490.55979 c 0,0 -13.9543,5.3442 -4.4535,21.37682 9.5008,16.03261 18.4078,14.84501 24.9396,10.39151 6.5318,-4.4535 1.1876,-34.73733 -20.4861,-31.76833 z"
       id="path65"
       inkscape:label="Pancreas">
      <title
         id="title182">Pancreas</title>
    </path>
    <path
       style="fill:none;fill-opacity:0.465455;fill-rule:evenodd"
       d="m 1145.8553,524.10952 40.9723,174.57736 45.1288,-16.92331 -69.1777,-162.70135 z"
       id="path66"
       inkscape:label="Abdominal Wall">
      <title
         id="title181">Abdominal Wall</title>
    </path>
    <path
       style="fill:none;fill-opacity:0.465455;fill-rule:evenodd"
       d="m 1125.3692,528.56303 11.5791,179.62466 49.5824,-10.39151 -40.9723,-173.98356 z"
       id="path67"
       inkscape:label="Groin">
      <title
         id="title180">Groin</title>
    </path>
    <path
       style="fill:none;fill-opacity:0.465455;fill-rule:evenodd"
       d="m 1123.5878,528.85993 12.7667,180.21846 -40.9722,0.8907 2.3752,-160.62305 4.1566,-21.37682 z"
       id="path68"
       inkscape:label="Leg">
      <title
         id="title179">Leg</title>
    </path>
    <path
       style="fill:none;fill-opacity:0.465455;fill-rule:evenodd"
       d="m 1063.0202,551.42435 -3.2659,2.969 -44.5351,142.51213 40.9723,9.50081 37.7063,3.5628 2.0783,-127.66711 2.6721,-10.09461 -1.7814,-18.70472 c 0,0 -23.752,25.23652 -33.8466,-2.0783 z"
       id="path69"
       inkscape:label="Kidney">
      <title
         id="title178">Kidney</title>
    </path>
    <path
       style="fill:none;fill-opacity:0.465455;fill-rule:evenodd"
       d="m 1065.3954,522.03122 16.6264,-10.98531 9.2039,2.3752 10.0946,15.73572 -5.0473,25.83032 -6.5318,5.3442 -12.7667,4.15661 -12.7667,-10.98531 z"
       id="path70"
       inkscape:label="Adrenals">
      <title
         id="title177">Adrenals</title>
    </path>
    <path
       style="fill:none;fill-opacity:0.465455;fill-rule:evenodd"
       d="m 1042.8309,512.82731 21.9707,9.79771 -2.3752,28.20553 -4.1566,2.969 -43.6444,143.10593 -55.22344,-22.26752 68.28704,-138.94933 -1.4845,-4.1566 4.1566,-1.7814 z"
       id="path71"
       inkscape:label="Anus">
      <title
         id="title176">Anus</title>
    </path>
    <path
       style="fill:none;fill-opacity:0.465455;fill-rule:evenodd"
       d="m 909.22582,641.97893 49.58234,32.36213 67.39634,-137.16793 -0.2969,-4.1566 -12.1729,-0.5938 -4.4535,-13.06361 -6.8287,3.5628 z"
       id="path72"
       inkscape:label="Vagina/Penis">
      <title
         id="title175">Vagina/Penis</title>
    </path>
    <path
       style="fill:none;fill-opacity:0.465455;fill-rule:evenodd"
       d="m 1023.2355,496.2009 11.876,-1.18761 5.3442,3.26591 2.3752,14.54811 -13.0636,18.11092 -13.6574,1.4845 -5.0473,-4.75041 -1.1876,-10.68841 z"
       id="path73"
       inkscape:label="Prostate/Uterus">
      <title
         id="title174">Prostate/Uterus</title>
    </path>
    <path
       style="fill:none;fill-opacity:0.465455;fill-rule:evenodd"
       d="M 1021.1572,286.2924 901.80331,145.56167 874.78538,169.90749 1008.3905,298.46531 Z"
       id="path74"
       inkscape:label="eye">
      <title
         id="title173">Eye</title>
    </path>
    <path
       style="fill:none;fill-opacity:0.465455;fill-rule:evenodd"
       d="M 847.17366,200.78512 997.4052,314.20103 1008.0936,299.35601 874.78538,170.20439 Z"
       id="path75"
       inkscape:label="Upper Jaw">
      <title
         id="title172">Upper Jaw</title>
    </path>
    <path
       style="fill:none;fill-opacity:0.465455;fill-rule:evenodd"
       d="M 822.82784,241.16356 987.60749,331.71814 996.8114,314.79483 846.87676,202.26962 Z"
       id="path76"
       inkscape:label="Nose">
      <title
         id="title171">Nose</title>
    </path>
    <path
       style="fill:none;fill-opacity:0.465455;fill-rule:evenodd"
       d="m 803.82622,283.0265 177.24946,63.23976 5.04731,-15.14192 -163.29515,-89.36698 z"
       id="path77"
       inkscape:label="Mouth L. Jaw">
      <title
         id="title170">Mouth L. Jaw</title>
    </path>
    <path
       style="fill:none;fill-opacity:0.465455;fill-rule:evenodd"
       d="m 794.02851,315.98243 145.48113,38.30013 3.56281,-2.969 3.5628,-16.62641 -143.40283,-51.06685 z"
       id="path78"
       inkscape:label="Voice Box Tonsile">
      <title
         id="title169">Voice Box Tonsile</title>
    </path>
    <path
       style="fill:none;fill-opacity:0.465455;fill-rule:evenodd"
       d="m 784.5277,384.56639 150.82534,1.4845 3.8597,-31.47143 -139.54313,-37.11253 -6.5318,-0.2969 z"
       id="path79"
       inkscape:label="Thyroid">
      <title
         id="title168">Thyroid</title>
    </path>
    <path
       style="fill:none;fill-opacity:0.465455;fill-rule:evenodd"
       d="m 788.0905,429.99213 147.55944,-21.07992 -1.1876,-22.26752 -149.63774,-1.1876 z"
       id="path80"
       inkscape:label="throat">
      <title
         id="title167">Throat</title>
    </path>
    <path
       style="fill:none;fill-opacity:0.465455;fill-rule:evenodd"
       d="m 787.1998,430.58593 10.68841,50.47305 143.69974,-45.72264 -5.04731,-25.53343 z"
       id="path81"
       inkscape:label="Scapula">
      <title
         id="title166">Scapula</title>
    </path>
    <path
       style="fill:none;fill-opacity:0.465455;fill-rule:evenodd"
       d="m 798.77891,481.05898 178.73397,-54.03585 10.98531,31.17453 20.78301,26.72102 -134.19892,126.47952 c 0,0 -57.00485,-55.22345 -76.30337,-130.33922 z"
       id="path82"
       inkscape:label="back">
      <title
         id="title165">Back</title>
    </path>
    <path
       style="fill:none;fill-opacity:0.465455;fill-rule:evenodd"
       d="m 978.40358,515.79631 -103.6182,96.78949 32.36213,29.39313 89.36699,-111.9314 z"
       id="path83"
       inkscape:label="Bladder">
      <title
         id="title164">Bladder</title>
    </path>
    <path
       style="fill:none;fill-opacity:0.465455;fill-rule:evenodd"
       d="m 1008.0936,485.51249 -29.69002,28.20552 18.40782,17.81402 25.2365,-33.25283 z"
       id="path84"
       inkscape:label="hip">
      <title
         id="title163">Hip</title>
    </path>
    <path
       style="fill:none;fill-opacity:0.465455;fill-rule:evenodd"
       d="m 946.93215,335.28095 -2.969,15.73571 -4.45351,4.1566 -3.2659,33.84664 1.1876,24.93962 6.23491,21.37682 33.25283,-10.09461 -4.75041,-23.75202 1.78141,-34.14353 6.2349,-20.78302 z"
       id="path85"
       inkscape:label="Bronchials">
      <title
         id="title162">Bronchials</title>
    </path>
    <path
       style="display:inline;fill:none;fill-opacity:0.465455;fill-rule:evenodd"
       d="m 936.83754,118.84064 94.71116,146.96564 3.2659,-9.79771 8.3132,-0.5938 9.5009,8.31321 c 0,0 5.6411,-29.09623 43.6443,-16.03262 L 1082.6158,72.524201 c 0,0 -75.1161,1.78132 -145.77826,46.316439 z"
       id="path86"
       inkscape:label="forebrain">
      <title
         id="title161">Forebrain</title>
    </path>
    <path
       style="fill:none;fill-opacity:0.465455;fill-rule:evenodd"
       d="m 1031.8456,265.50938 c 0,0 2.969,-22.86132 21.9706,0.5938 0,0 -6.8289,28.50229 -21.9706,-0.5938 z"
       id="path87"
       inkscape:label="P">
      <title
         id="title160">Pineal Gland</title>
    </path>
    <path
       id="path90"
       style="fill:none;fill-opacity:0.465455;fill-rule:evenodd"
       d="m 1079.2291,243.59059 c -18.1496,-0.28881 -26.3027,20.73049 -26.3027,20.73049 22.3372,12.01471 33.4852,5.60761 38.9433,-2.125 l 7.9669,-7.37501 -3.2325,-3.63477 v -0.002 c 0.1933,-0.88548 0.2617,-1.41016 0.2617,-1.41016 -6.6895,-4.35144 -12.5548,-6.10273 -17.6367,-6.1836 z"
       inkscape:label="pituitary">
      <title
         id="title159">Pituitary</title>
    </path>
    <path
       style="fill:none;fill-opacity:0.465455;fill-rule:evenodd"
       d="m 1267.5845,310.34132 -35.3312,15.73572 11.2822,32.95593 21.6738,-2.0783 15.1419,8.6101 3.5628,10.39151 -5.938,12.46981 -15.7358,5.34421 -10.6884,-0.8907 -4.7504,2.6721 1.7814,8.31321 -3.5628,18.40782 -10.6884,27.61172 38.0033,16.92332 c 0,0 47.2071,-73.03747 -4.7504,-156.46645 z"
       id="path91"
       inkscape:label="bronchials">
      <title
         id="title158">Bronchials</title>
    </path>
    <path
       id="path92"
       style="display:inline;fill:none;fill-opacity:0.465455;fill-rule:evenodd"
       d="m 1256.8328,358.69616 c -3.9493,-0.25283 -8.4635,-0.25735 -13.5938,0.0391 0,0 -26.7211,19.2998 1.1875,31.17581 0.07,0.0299 0.1406,0.0587 0.211,0.0879 5e-4,2.3e-4 0,-2.3e-4 0,0 l 2.7559,4.36524 30.5801,-6.23438 5.9394,-13.36134 -5.0488,-8.60939 -0.3359,0.2168 c -3.083,-3.91524 -9.8495,-6.92122 -21.6973,-7.67969 z"
       inkscape:label="heart">
      <title
         id="title157">Heart</title>
    </path>
    <path
       id="path94-5"
       style="display:inline;fill:none;fill-opacity:0.465455;fill-rule:evenodd;stroke-width:0.948654"
       d="m 1110.7838,285.83477 a 106.85956,106.43967 0 0 0 -106.8594,106.43954 106.85956,106.43967 0 0 0 106.8594,106.43954 106.85956,106.43967 0 0 0 106.8595,-106.43954 106.85956,106.43967 0 0 0 -106.8595,-106.43954 z m -0.2187,24.459 a 81.237434,81.237434 0 0 1 81.2364,81.23835 81.237434,81.237434 0 0 1 -81.2364,81.2364 81.237434,81.237434 0 0 1 -81.2384,-81.2364 81.237434,81.237434 0 0 1 81.2384,-81.23835 z"
       inkscape:label="stomach">
      <title
         id="title156">Stomach</title>
    </path>
    <path
       style="display:inline;fill:none;fill-opacity:0.465455;fill-rule:evenodd;stroke-width:0.948654"
       d="M 1110.5651,253.39138 A 137.51083,137.09096 0 0 0 973.05324,390.48134 137.51083,137.09096 0 0 0 1110.5651,527.57325 137.51083,137.09096 0 0 0 1248.075,390.48134 137.51083,137.09096 0 0 0 1110.5651,253.39138 Z m -0.8399,33.16995 a 106.85956,106.43967 0 0 1 106.8595,106.43954 106.85956,106.43967 0 0 1 -106.8595,106.43954 106.85956,106.43967 0 0 1 -106.8594,-106.43954 106.85956,106.43967 0 0 1 106.8594,-106.43954 z"
       id="path94"
       clip-path="url(#clipPath222)"
       inkscape:label="Transverse Colon / Descending Colon / Small Intenstines / Sigmoid">
      <title
         id="title197">Transverse Colon / Descending Colon / Small Intenstines / Sigmoid</title>
    </path>
  </g>
</svg>
