<?xml version="1.0" encoding="UTF-8" standalone="no"?>
<svg
   viewBox="56.3931 78.4039 636.9667 638.0455"
   width="636.967px"
   height="638.045px"
   version="1.1"
   id="svg50"
   sodipodi:docname="right.svg"
   inkscape:version="1.4.2 (ebf0e940d0, 2025-05-08)"
   xmlns:inkscape="http://www.inkscape.org/namespaces/inkscape"
   xmlns:sodipodi="http://sodipodi.sourceforge.net/DTD/sodipodi-0.dtd"
   xmlns="http://www.w3.org/2000/svg"
   xmlns:svg="http://www.w3.org/2000/svg">
  <defs
     id="defs50" />
  <sodipodi:namedview
     id="namedview50"
     pagecolor="#ffffff"
     bordercolor="#000000"
     borderopacity="0.25"
     inkscape:showpageshadow="2"
     inkscape:pageopacity="0.0"
     inkscape:pagecheckerboard="0"
     inkscape:deskcolor="#d1d1d1"
     inkscape:zoom="1.6867408"
     inkscape:cx="262.04381"
     inkscape:cy="169.85419"
     inkscape:window-width="1920"
     inkscape:window-height="1012"
     inkscape:window-x="2240"
     inkscape:window-y="40"
     inkscape:window-maximized="1"
     inkscape:current-layer="svg50" />
  <g
     transform="matrix(1, 0, 0, 1, 39.896602630615234, 16.623584747314567)"
     id="g50">
    <path
       fill="none"
       opacity="1.000000"
       stroke="#000000"
       stroke-linecap="round"
       stroke-linejoin="round"
       stroke-width="3"
       d="M 308.044 63.458 C 300.743 62.025 293.591 64.092 286.58 65.188 C 272.74 67.352 259.01 70.393 245.535 74.426 C 232.276 78.395 219.184 82.937 206.611 88.605 C 190.833 95.717 175.534 103.93 161.077 113.507 C 145.017 124.145 130.029 136.114 115.955 149.363 C 92.651 171.301 73.373 196.233 57.532 223.951 C 44.099 247.456 34.234 272.365 26.9 298.417 C 23.641 309.994 20.93 321.689 19.237 333.485 C 16.054 355.668 16.217 378.057 16.906 400.462 C 17.348 414.837 19.36 428.908 22.033 442.96 C 25.462 460.978 30.909 478.357 37.439 495.498 C 44.789 514.794 54.112 533.032 65.106 550.419 C 73.131 563.113 82.32 574.95 91.794 586.66 C 100.933 597.958 111.289 607.928 121.698 617.795 C 136.001 631.354 152.182 642.643 168.996 653.036 C 185.714 663.37 203.28 671.893 221.583 678.857 C 231.325 682.565 241.41 685.367 251.447 688.291 C 264.517 692.098 277.726 695.053 291.078 696.686 C 303.296 698.18 315.653 699.187 328.034 699.71 C 337.951 700.129 347.768 699.322 357.529 698.714 C 378.523 697.407 399.331 693.931 419.512 687.852 C 437.811 682.34 455.956 676.224 473.04 667.45 C 493.736 656.821 513.651 645.099 531.695 630.139 C 541.723 621.824 551.895 613.682 560.973 604.388 C 585.748 579.02 606.332 550.601 621.527 518.45 C 628.803 503.056 635.282 487.356 640.1 470.974 C 644.503 455.999 648.197 440.832 650.295 425.424 C 651.413 417.206 652.127 408.808 652.814 400.48 C 653.739 389.274 653.401 378.118 653.411 366.958 C 653.418 358.458 652.617 349.901 651.446 341.472 C 649.84 329.917 648.267 318.271 645.355 307.007 C 641.985 293.969 638.364 280.978 633.282 268.362 C 628.948 257.603 624.896 246.709 619.431 236.518 C 611.08 220.945 602.231 205.719 591.823 191.257 C 579.886 174.672 566.11 159.98 551.443 146.065 C 537.538 132.874 522.211 121.273 506.001 111.027 C 483.43 96.761 459.466 85.23 434.025 77.017 C 418.004 71.844 401.641 67.715 385.026 65.071 C 361.361 61.305 337.432 61.674 313.544 61.927 C 311.666 61.947 310.239 63.052 308.544 63.458"
       id="path1" />
    <path
       fill="none"
       opacity="1.000000"
       stroke="#000000"
       stroke-linecap="round"
       stroke-linejoin="round"
       stroke-width="3"
       d="M 292.044 512.458 C 290.749 525.035 286.892 537.093 284.41 549.431 C 281.303 564.877 277.14 580.108 273.563 595.462 C 269.647 612.276 265.985 629.15 262.011 645.95 C 258.699 659.955 256.169 674.146 252.044 687.958"
       id="path2" />
    <path
       fill="none"
       opacity="1.000000"
       stroke="#000000"
       stroke-linecap="round"
       stroke-linejoin="round"
       stroke-width="3"
       d="M 273.044 506.458 C 263.211 530.958 253.82 555.648 243.414 579.902 C 233.868 602.153 225.063 624.705 215.448 646.916 C 212.043 654.783 209.592 663.093 205.044 670.458"
       id="path3" />
    <path
       fill="none"
       opacity="1.000000"
       stroke="#000000"
       stroke-linecap="round"
       stroke-linejoin="round"
       stroke-width="3"
       d="M 190.044 98.458 C 198.211 114.458 206.526 130.384 214.511 146.474 C 228.131 173.915 241.659 201.402 254.974 228.992 C 258.958 237.246 263.621 245.206 266.544 253.958"
       id="path4" />
    <path
       fill="none"
       opacity="1.000000"
       stroke="#000000"
       stroke-linecap="round"
       stroke-linejoin="round"
       stroke-width="3"
       d="M 376.544 536.458 C 380.817 541.704 381.582 548.317 383.535 554.461 C 389.893 574.453 396.233 594.451 402.538 614.46 C 409.232 635.701 415.867 656.961 422.56 678.203 C 423.28 680.489 424.211 682.708 425.044 684.958"
       id="path5" />
    <path
       fill="none"
       opacity="1.000000"
       stroke="#000000"
       stroke-linecap="round"
       stroke-linejoin="round"
       stroke-width="3"
       d="M 504.044 402.458 C 513.211 403.624 522.389 404.711 531.541 405.981 C 540.389 407.208 549.174 409.036 558.055 409.84 C 566.597 410.613 575.04 411.997 583.538 413.009 C 592.066 414.025 600.529 415.579 609.05 416.664 C 614.559 417.366 620.064 418.009 625.56 418.857 C 633.499 420.083 641.544 420.624 649.544 421.458"
       id="path6" />
    <path
       fill="none"
       opacity="1.000000"
       stroke="#000000"
       stroke-linecap="round"
       stroke-linejoin="round"
       stroke-width="3"
       d="M 155.044 119.458 C 167.878 138.958 180.723 158.45 193.542 177.96 C 211.386 205.119 229.216 232.288 247.031 259.467 C 247.969 260.898 248.711 262.458 249.544 263.958"
       id="path7" />
    <path
       fill="none"
       opacity="1.000000"
       stroke="#000000"
       stroke-linecap="round"
       stroke-linejoin="round"
       stroke-width="3"
       d="M 398.544 498.458 C 402.878 504.958 408.799 510.931 411.169 518.082 C 414.656 528.597 419.791 538.164 424.615 547.923 C 443.442 586.008 462.544 623.958 481.544 661.958"
       id="path8" />
    <path
       fill="none"
       opacity="1.000000"
       stroke="#000000"
       stroke-linecap="round"
       stroke-linejoin="round"
       stroke-width="3"
       d="M 462.044 413.958 C 471.044 416.624 480.047 419.283 489.044 421.96 C 504.712 426.62 520.357 431.362 536.05 435.94 C 556.862 442.012 577.805 447.656 598.512 454.064 C 612.318 458.336 626.205 462.31 640.044 466.458"
       id="path9" />
    <path
       fill="none"
       opacity="1.000000"
       stroke="#000000"
       stroke-linecap="round"
       stroke-linejoin="round"
       stroke-width="3"
       d="M 500.044 109.458 C 474.878 148.124 449.712 186.792 424.543 225.457 C 419.55 233.128 414.864 241.029 409.417 248.363 C 406.453 252.353 403.371 256.087 402.044 260.958"
       id="path10" />
    <path
       fill="none"
       opacity="1.000000"
       stroke="#000000"
       stroke-linecap="round"
       stroke-linejoin="round"
       stroke-width="3"
       d="M 643.044 302.458 C 634.42 303.245 626.349 306.356 618.055 308.5 C 593.358 314.883 568.692 321.386 544.052 327.985 C 529.678 331.835 515.378 335.958 501.044 339.958"
       id="path11" />
    <path
       fill="none"
       opacity="1.000000"
       stroke="#000000"
       stroke-linecap="round"
       stroke-linejoin="round"
       stroke-width="3"
       d="M 535.044 134.458 C 512.544 160.624 489.987 186.742 467.564 212.974 C 450.966 232.391 434.544 251.958 418.044 271.458"
       id="path12" />
    <path
       fill="none"
       opacity="1.000000"
       stroke="#000000"
       stroke-linecap="round"
       stroke-linejoin="round"
       stroke-width="3"
       d="M 561.044 158.958 C 549.544 170.124 538.047 181.293 526.544 192.457 C 509.713 208.793 492.953 225.203 476.022 241.434 C 461.298 255.548 446.378 269.458 431.544 283.458"
       id="path13" />
    <path
       fill="none"
       opacity="1.000000"
       stroke="#000000"
       stroke-linecap="round"
       stroke-linejoin="round"
       stroke-width="3"
       d="M 256.044 498.458 C 251.872 503.44 247.355 508.063 242.707 512.624 C 239.173 516.092 237.359 521.209 234.661 525.531 C 219.017 550.598 202.513 575.104 186.548 599.96 C 177.029 614.781 167.544 629.624 158.044 644.458"
       id="path14" />
    <path
       fill="none"
       opacity="1.000000"
       stroke="#000000"
       stroke-linecap="round"
       stroke-linejoin="round"
       stroke-width="3"
       d="M 354.544 62.958 C 353.64 73.467 352.69 83.975 351.757 94.477 C 351.286 99.769 350.722 105.116 350.378 110.447 C 349.752 120.13 349.212 129.849 347.635 139.473 C 346.964 143.567 347.274 147.78 346.708 151.98 C 345.506 160.908 345.305 169.966 344.522 178.956 C 343.446 191.297 342.072 203.614 341.103 215.962 C 340.622 222.103 338.749 228.149 340.429 234.488 C 341.423 238.239 338.389 240.888 334.544 240.459 C 322.348 239.096 310.412 241.092 298.554 243.504 C 287.805 245.69 277.458 249.386 267.599 254.073 C 257.684 258.787 248.635 265.071 240.038 271.95 C 226.181 283.039 215.392 296.87 206.791 312.097 C 201.235 321.932 197.161 332.773 194.547 343.958 C 194.197 345.455 193.878 346.958 193.544 348.458"
       id="path15" />
    <path
       fill="none"
       opacity="1.000000"
       stroke="#000000"
       stroke-linecap="round"
       stroke-linejoin="round"
       stroke-width="3"
       d="M 632.544 268.958 C 621.467 275.097 609.249 278.422 597.497 282.832 C 574.157 291.591 550.528 299.578 527.056 307.99 C 521.146 310.108 515.487 312.993 509.489 314.771 C 507.194 315.45 505.618 316.482 504.044 317.958"
       id="path16" />
    <path
       fill="none"
       opacity="1.000000"
       stroke="#000000"
       stroke-linecap="round"
       stroke-linejoin="round"
       stroke-width="3"
       d="M 208.544 448.958 C 207.562 450.873 205.888 451.961 204.059 452.983 C 198.479 456.101 193.51 459.906 190.019 465.442 C 187.033 470.177 181.306 470.689 176.961 473.32 C 147.621 491.084 118.038 508.447 88.548 525.964 C 79.357 531.423 70.211 536.958 61.044 542.458"
       id="path17" />
    <path
       fill="none"
       opacity="1.000000"
       stroke="#000000"
       stroke-linecap="round"
       stroke-linejoin="round"
       stroke-width="3"
       d="M 103.044 166.458 C 144.044 204.458 185.044 242.458 226.044 280.458"
       id="path18" />
    <path
       fill="none"
       opacity="1.000000"
       stroke="#000000"
       stroke-linecap="round"
       stroke-linejoin="round"
       stroke-width="3"
       d="M 203.044 439.458 C 193.711 443.624 184.588 448.37 175.004 451.846 C 149.11 461.238 124.783 474.131 99.667 485.235 C 82.172 492.97 64.502 500.492 47.534 509.438 C 46.614 509.923 45.544 510.124 44.544 510.458"
       id="path19" />
    <path
       fill="none"
       opacity="1.000000"
       stroke="#000000"
       stroke-linecap="round"
       stroke-linejoin="round"
       stroke-width="3"
       d="M 256.544 497.708 C 258.825 493.919 257.584 482.595 254.544 479.458 C 251.42 476.234 247.211 476.552 240.982 478.785 C 236.981 480.22 234.403 482.291 232.493 485.931 C 229.7 491.252 225.321 495.255 221.168 499.577 C 200.141 521.458 180.825 544.893 160.557 567.469 C 146.992 582.578 133.544 597.791 120.044 612.958"
       id="path20" />
    <path
       fill="none"
       opacity="1.000000"
       stroke="#000000"
       stroke-linecap="round"
       stroke-linejoin="round"
       stroke-width="3"
       d="M 208.044 491.958 C 206.818 495.818 203.259 497.612 200.479 499.878 C 176.593 519.35 152.539 538.618 128.547 557.961 C 117.199 567.11 105.878 576.291 94.544 585.458"
       id="path21" />
    <path
       fill="none"
       opacity="1.000000"
       stroke="#000000"
       stroke-linecap="round"
       stroke-linejoin="round"
       stroke-width="3"
       d="M 205.544 312.958 C 196.544 308.458 187.652 303.724 178.52 299.511 C 163.593 292.624 150.185 283.167 136.073 274.91 C 116.461 263.434 97.036 251.639 77.549 239.95 C 70.686 235.833 63.878 231.624 57.044 227.458"
       id="path22" />
    <path
       fill="none"
       opacity="1.000000"
       stroke="#000000"
       stroke-linecap="round"
       stroke-linejoin="round"
       stroke-width="3"
       d="M 418.044 482.958 C 419.638 488.954 425.384 492.23 427.635 497.922 C 430.876 506.119 438.513 511.021 443.678 517.857 C 455.252 533.178 467.6 547.914 479.53 562.969 C 493.093 580.086 506.545 597.291 520.044 614.458 C 523.713 619.123 527.378 623.791 531.044 628.458"
       id="path23" />
    <path
       fill="none"
       opacity="1.000000"
       stroke="#000000"
       stroke-linecap="round"
       stroke-linejoin="round"
       stroke-width="3"
       d="M 313.044 516.958 C 312.473 529.475 312.119 541.994 310.661 554.471 C 309.948 560.575 309.919 566.826 309.784 572.963 C 309.59 581.816 308.687 590.617 308.354 599.451 C 307.947 610.281 307.027 621.112 306.386 631.948 C 305.765 642.448 304.836 652.925 304.449 663.454 C 304.039 674.637 302.878 685.791 302.044 696.958"
       id="path24" />
    <path
       fill="none"
       opacity="1.000000"
       stroke="#000000"
       stroke-linecap="round"
       stroke-linejoin="round"
       stroke-width="3"
       d="M 431.044 471.458 C 442.655 482.172 454.324 492.784 465.373 504.138 C 470.347 509.25 476.174 513.985 481.521 518.983 C 496.421 532.911 511.194 546.976 526.05 560.951 C 536.186 570.485 546.406 579.928 556.523 589.48 C 558.834 591.661 560.878 594.124 563.044 596.458"
       id="path25" />
    <path
       fill="none"
       opacity="1.000000"
       stroke="#000000"
       stroke-linecap="round"
       stroke-linejoin="round"
       stroke-width="3"
       d="M 613.044 228.458 C 594.184 239.516 574.845 249.698 555.577 260.019 C 534.931 271.08 514.553 282.64 494.041 293.952 C 480.391 301.481 466.711 308.958 453.044 316.458"
       id="path26" />
    <path
       fill="none"
       opacity="1.000000"
       stroke="#000000"
       stroke-linecap="round"
       stroke-linejoin="round"
       stroke-width="3"
       d="M 383.544 252.458 C 384.044 254.124 384.785 255.76 385.002 257.463 C 385.895 264.464 390.873 265.292 394.974 263.311 C 399.705 261.026 402.81 261.851 407.171 264.769 C 421.406 274.294 433.394 286.448 442.652 300.222 C 455.2 318.891 463.008 340.11 465.041 362.958 C 466.434 378.61 465.658 394.147 462.019 409.452 C 455.306 437.684 440.641 461.215 419.617 481.035 C 416.785 483.705 414.181 482.571 411.564 481.885 C 404.311 479.982 400.624 482.15 399 489.448 C 398.372 492.271 398.795 495.257 397.319 497.916 C 393.412 498.319 390.221 501.012 386.603 502.591 C 383.409 503.985 380.207 505.455 377.067 507.003 C 373.229 508.893 370.252 508.604 367.465 505.019 C 365.905 503.011 363.726 501.315 361.512 500.013 C 353.412 495.25 345.698 498.386 341.07 508.47 C 339.979 510.848 339.792 513.665 337.544 515.458"
       id="path27" />
    <path
       fill="none"
       opacity="1.000000"
       stroke="#000000"
       stroke-linecap="round"
       stroke-linejoin="round"
       stroke-width="3"
       d="M 590.044 192.458 C 541.378 228.124 492.711 263.791 444.044 299.458"
       id="path28" />
    <path
       fill="none"
       opacity="1.000000"
       stroke="#000000"
       stroke-linecap="round"
       stroke-linejoin="round"
       stroke-width="3"
       d="M 310.294 102.458 C 310.306 113.64 311.41 124.774 311.717 135.953 C 312.157 151.953 313.022 167.953 313.72 183.95 C 314.338 198.116 315.167 212.277 315.576 226.457 C 315.706 230.963 316.211 235.458 316.544 239.958"
       id="path29" />
    <path
       fill="none"
       opacity="1.000000"
       stroke="#000000"
       stroke-linecap="round"
       stroke-linejoin="round"
       stroke-width="3"
       d="M 186.044 469.958 C 187.185 472.05 186.465 474.299 186.5 476.459 C 186.624 484.021 192.365 489.841 200.045 489.953 C 202.425 489.987 204.861 489.688 207.037 490.97 C 208.548 491.86 209.681 491.204 211.067 490.503 C 218.239 486.874 224.932 482.451 231.468 477.849 C 234.203 475.922 234.309 471.921 235.38 468.899 C 238.876 459.034 234.431 449.968 221.544 448.963 C 221.047 448.924 220.544 448.958 220.044 448.958 C 208.333 448.942 208.018 449.007 203.611 438.43 C 198.554 426.296 193.179 414.216 191.54 400.958 C 191.066 397.122 190.564 393.288 190.04 389.458 C 189.364 384.525 190.678 380.755 195.507 378.382 C 198.27 377.024 200.472 374.631 201.997 371.931 C 204.247 367.945 205.823 363.996 202.626 359.401 C 198.773 353.861 195.09 348.832 187.559 347.846 C 178.369 346.643 169.675 346.688 161.496 351.881 C 158.534 353.761 156.206 355.98 154.557 358.965 C 150.894 365.594 153.397 373.521 161.087 377.883 C 168.15 381.89 175.661 384.508 184.064 382.023 C 186.065 381.431 187.833 382.956 189.544 383.958"
       id="path30" />
    <path
       fill="none"
       opacity="1.000000"
       stroke="#000000"
       stroke-linecap="round"
       stroke-linejoin="round"
       stroke-width="3"
       d="M 170.044 296.958 C 168.196 302.223 163.818 305.912 161.494 310.934 C 154.148 326.803 149.609 343.566 145.617 360.475 C 142.786 372.464 145.187 384.542 146.699 396.438 C 148.298 409.032 151.141 421.476 155.574 433.447 C 158.249 440.672 161.211 447.791 164.044 454.958"
       id="path31" />
    <path
       fill="none"
       opacity="1.000000"
       stroke="#000000"
       stroke-linecap="round"
       stroke-linejoin="round"
       stroke-width="3"
       d="M 624.544 368.958 C 624.833 372.171 622.351 370.891 621.044 370.901 C 609.378 370.998 597.711 370.893 586.045 370.975 C 572.877 371.067 559.711 371.292 546.544 371.457 C 542.207 371.512 537.879 370.753 533.511 371.821 C 532.383 372.097 529.415 373.55 529.544 369.958"
       id="path32" />
    <path
       fill="none"
       opacity="1.000000"
       stroke="#000000"
       stroke-linecap="round"
       stroke-linejoin="round"
       stroke-width="3"
       d="M 339.044 240.958 C 346.947 256.034 364.186 259.37 375.591 255.597 C 378.453 254.65 380.517 252.46 383.515 251.821 C 384.953 251.515 384.859 249.578 384.595 247.95 C 383.124 238.896 377.049 234.353 369.053 231.434 C 359.18 227.83 349.854 228.565 341.044 234.458"
       id="path33" />
    <path
       fill="none"
       opacity="1.000000"
       stroke="#000000"
       stroke-linecap="round"
       stroke-linejoin="round"
       stroke-width="3"
       d="M 258.544 497.458 C 263.52 500.335 268.571 503.868 273.676 505.56 C 284.242 509.063 294.825 512.873 306.016 514.637 C 315.055 516.062 324.032 516.012 333.042 515.839 C 336.763 515.767 338.337 517.491 338.452 520.461 C 338.689 526.53 340.816 532.137 341.987 537.969 C 342.283 539.446 342.335 541.257 343.584 541.878 C 348.382 544.262 350.542 550.518 356.547 550.918 C 364.754 551.464 366.985 550.615 372.62 542.51 C 378.232 534.439 375.546 526.225 373.998 517.966 C 373.436 514.97 371.717 512.142 373.044 508.958"
       id="path34" />
    <path
       fill="none"
       opacity="1.000000"
       stroke="#000000"
       stroke-linecap="round"
       stroke-linejoin="round"
       stroke-width="3"
       d="M 342.544 542.458 C 342.211 543.791 341.552 545.135 341.595 546.456 C 341.995 558.788 340.696 571.139 342.431 583.474 C 343.121 588.377 342.592 593.458 342.536 598.458 C 342.307 618.967 344.296 639.441 343.519 659.957 C 343.462 661.444 344.052 662.647 344.484 663.977 C 344.956 665.43 344.109 666.189 342.544 665.958"
       id="path35" />
    <path
       fill="none"
       opacity="1.000000"
       stroke="#000000"
       stroke-linecap="round"
       stroke-linejoin="round"
       stroke-width="3"
       d="M 56.044 369.708 C 70.711 369.791 85.378 369.835 100.044 369.969 C 114.382 370.1 128.693 371.401 143.044 370.958"
       id="path36" />
    <path
       fill="none"
       opacity="1.000000"
       stroke="#000000"
       stroke-linecap="round"
       stroke-linejoin="round"
       stroke-width="3"
       d="M 308.544 63.958 C 308.655 74.798 310.223 85.598 309.49 96.454 C 309.394 97.883 310.247 98.789 310.512 99.965 C 310.852 101.474 310.109 102.189 308.544 101.958"
       id="path37" />
    <path
       fill="none"
       opacity="1.000000"
       stroke="#000000"
       stroke-linecap="round"
       stroke-linejoin="round"
       stroke-width="3"
       d="M 55.544 367.958 C 55.833 371.171 53.302 370.005 52.052 369.884 C 40.566 368.769 29.054 368.978 17.544 368.958"
       id="path38" />
    <path
       fill="none"
       opacity="1.000000"
       stroke="#000000"
       stroke-linecap="round"
       stroke-linejoin="round"
       stroke-width="3"
       d="M 510.544 319.458 C 508.516 319.294 506.479 321.055 504.425 318.556 C 502.909 316.713 500.617 318.143 498.517 318.88 C 485.738 323.369 472.878 327.627 460.04 331.945 C 459.741 332.046 459.378 331.958 459.044 331.958"
       id="path39" />
    <path
       fill="none"
       opacity="1.000000"
       stroke="#000000"
       stroke-linecap="round"
       stroke-linejoin="round"
       stroke-width="3"
       d="M 493.544 321.958 C 495.917 325.247 496.253 329.312 497.356 333.014 C 498.119 335.577 498.415 338.04 500.516 339.988 C 502.836 342.139 502.02 345.504 502.265 347.985 C 503.432 359.796 506.757 371.535 505.363 383.437 C 504.522 390.627 504.327 398.033 501.628 404.99 C 500.806 407.107 501.739 409.588 501.137 411.981 C 500.136 415.963 498.642 419.716 497.044 423.458"
       id="path40" />
    <path
       fill="none"
       opacity="1.000000"
       stroke="#000000"
       stroke-linecap="round"
       stroke-linejoin="round"
       stroke-width="3"
       d="M 524.044 242.458 C 530.219 250.17 535.419 258.539 540.544 266.958"
       id="path41" />
    <path
       fill="none"
       opacity="1.000000"
       stroke="#000000"
       stroke-linecap="round"
       stroke-linejoin="round"
       stroke-width="3"
       d="M 225.544 496.958 C 226.846 499.466 227.146 502.219 227.557 504.956 C 228.213 509.334 231.698 512.686 236.047 512.907 C 237.808 512.997 239.459 513.22 241.044 513.958"
       id="path42" />
    <path
       fill="none"
       opacity="1.000000"
       stroke="#000000"
       stroke-linecap="round"
       stroke-linejoin="round"
       stroke-width="3"
       d="M 344.294 666.458 C 344.378 673.624 344.421 680.792 344.561 687.957 C 344.63 691.459 344.878 694.958 345.044 698.458"
       id="path43" />
    <path
       fill="none"
       opacity="1.000000"
       stroke="#000000"
       stroke-linecap="round"
       stroke-linejoin="round"
       stroke-width="3"
       d="M 431.544 506.458 C 430.806 508.044 430.73 509.741 430.475 511.447 C 429.383 518.751 424.614 521.69 417.566 519.39 C 415.837 518.826 414.219 519.048 412.544 518.958"
       id="path44" />
    <path
       fill="none"
       opacity="1.000000"
       stroke="#000000"
       stroke-linecap="round"
       stroke-linejoin="round"
       stroke-width="3"
       d="M 465.044 505.958 C 459.378 511.291 453.711 516.624 448.044 521.958"
       id="path45" />
    <path
       fill="none"
       opacity="1.000000"
       stroke="#000000"
       stroke-linecap="round"
       stroke-linejoin="round"
       stroke-width="3"
       d="M 406.544 250.958 C 406.044 249.791 405.444 248.656 405.061 247.452 C 402.947 240.805 398.043 238.964 392.573 242.997 C 390.11 244.813 388.51 247.696 385.544 248.958"
       id="path46" />
    <path
       fill="none"
       opacity="1.000000"
       stroke="#000000"
       stroke-linecap="round"
       stroke-linejoin="round"
       stroke-width="3"
       d="M 529.044 371.708 C 521.544 371.791 514.044 371.874 506.544 371.958"
       id="path47" />
    <path
       fill="none"
       opacity="1.000000"
       stroke="#000000"
       stroke-linecap="round"
       stroke-linejoin="round"
       stroke-width="3"
       d="M 652.544 370.458 C 643.369 369.613 634.223 371.926 625.044 370.708"
       id="path48" />
    <path
       fill="none"
       opacity="1.000000"
       stroke="#000000"
       stroke-linecap="round"
       stroke-linejoin="round"
       stroke-width="3"
       d="M 116.544 402.958 C 113.878 404.291 110.883 405.216 108.609 407.039 C 103.072 411.479 101.574 417.76 102.631 424.444 C 103.675 431.043 109.912 436.962 116.551 437.912 C 130.834 439.957 137.937 431.257 138.271 420.949 C 138.573 411.611 131.518 403.418 121.544 402.967 C 120.047 402.9 118.544 402.958 117.044 402.958"
       id="path49" />
    <path
       fill="none"
       opacity="1.000000"
       stroke="#000000"
       stroke-linecap="round"
       stroke-linejoin="round"
       stroke-width="3"
       d="M 434.436 384.069 C 433.576 371.792 433.176 359.499 429.506 347.548 C 424.846 332.396 417.586 318.864 406.976 307.038 C 396.516 295.387 384.366 286.282 369.956 280.018 C 352.476 272.416 334.256 269.519 315.446 271.666 C 290.368 274.529 268.468 284.726 251.018 303.144 C 234.718 320.344 224.508 340.626 221.878 364.563 C 217.378 405.49 231.648 438.462 263.478 464.022 C 277.488 475.272 293.846 481.576 311.446 484.509 C 324.486 486.681 337.586 485.909 350.426 483.003 C 378.926 476.546 401.116 460.298 417.226 436.425 C 426.696 422.383 432.066 406.24 433.466 389.072 C 433.586 387.555 434.106 386.069 434.436 384.569"
       style="stroke-width: 3;"
       id="path50" />
  </g>
  <g
     id="region"
     inkscape:label="region"
     style="fill:none">
    <path
       style="fill:none;fill-opacity:0.465455;fill-rule:evenodd"
       d="m 229.50762,113.67903 77.961,157.997 c 0,0 25.83494,-11.07758 48.91089,-15.11791 1.48883,-0.26068 -8.30003,-176.672072 -8.30003,-176.079212 0,0.592859 -66.40024,1.778578 -118.57186,33.200122 z"
       id="path51"
       sodipodi:nodetypes="ccssc"
       inkscape:label="Midbrain / Hindbrain">
      <title
         id="title198">Midbrain / Hindbrain</title>
    </path>
    <path
       style="fill:none;fill-opacity:0.465455;fill-rule:evenodd"
       d="m 349.56163,79.293189 7.41074,178.154221 23.12152,-1.48215 -0.29643,-8.0036 14.82148,-168.668471 z"
       id="path52"
       sodipodi:nodetypes="cccccc"
       inkscape:label="Hypothalmus">
      <title
         id="title197">Hypothalmus</title>
    </path>
    <path
       style="display:inline;fill:none;fill-opacity:0.465455;fill-rule:evenodd"
       d="m 395.50822,78.70033 -15.41434,172.22563 c 0,0 32.90406,-17.4176 45.05731,15.71077 0,0 10.66296,-19.53414 22.23222,2.07501 1.46334,2.73323 93.67178,-143.47196 93.67178,-143.47196 0,0 -64.9181,-42.982295 -145.54697,-46.53945 z"
       id="path53"
       sodipodi:nodetypes="ccsscc"
       inkscape:label="Forebrain">
      <title
         id="title196">Forebrain</title>
    </path>
    <path
       style="display:inline;fill:none;fill-opacity:0.465455;fill-rule:evenodd"
       d="m 541.05519,124.64693 -100.19323,154.43985 16.30363,9.78217 118.86829,-138.43264 z"
       id="path54"
       inkscape:label="Frontal Sinus">
      <title
         id="title195">Frontal Sinus</title>
    </path>
    <path
       style="display:inline;fill:none;fill-opacity:0.465455;fill-rule:evenodd"
       d="m 380.39031,251.51882 c 0,0 34.53043,-18.74194 44.16802,16.0072 2.07952,7.49787 -49.50375,12.45006 -44.16802,-16.0072 z"
       id="path55"
       sodipodi:nodetypes="csc"
       inkscape:label="Pituitary">
      <title
         id="title194">Pituitary</title>
    </path>
    <path
       style="fill:none;fill-opacity:0.465455;fill-rule:evenodd"
       d="m 424.85476,266.3403 c 0,0 15.59008,-19.8908 21.9358,2.66787 2.01334,7.15729 -23.71437,23.71438 -21.9358,-2.66787 z"
       id="path57"
       sodipodi:nodetypes="csc"
       inkscape:label="Pineal Gland">
      <title
         id="title193">Pineal Gland</title>
    </path>
    <path
       style="fill:none;fill-opacity:0.465455;fill-rule:evenodd"
       d="M 576.03388,149.54702 457.46202,289.46181 470.50493,301.319 601.82326,174.15068 Z"
       id="path58"
       inkscape:label="Eye">
      <title
         id="title192">Eye</title>
    </path>
    <path
       style="fill:none;fill-opacity:0.465455;fill-rule:evenodd"
       d="M 602.41612,173.85425 471.09779,300.72614 482.65854,316.14048 632.05909,207.05437 Z"
       id="path59"
       inkscape:label="Upper Jaw">
      <title
         id="title191">Upper Jaw</title>
    </path>
    <path
       style="fill:none;fill-opacity:0.465455;fill-rule:evenodd"
       d="m 631.76266,208.24009 -68.47525,49.50375 19.26793,26.9751 71.73597,-41.50015 z"
       id="path60"
       inkscape:label="Nose">
      <title
         id="title190">Nose</title>
    </path>
    <path
       style="fill:none;fill-opacity:0.465455;fill-rule:evenodd"
       d="m 562.69455,258.92956 -79.14672,58.39664 9.18932,16.0072 88.33604,-49.20732 z"
       id="path61"
       inkscape:label="Sinus">
      <title
         id="title189">Sinus</title>
    </path>
    <path
       style="fill:none;fill-opacity:0.465455;fill-rule:evenodd"
       d="m 654.29131,244.10808 -161.55416,89.52175 6.52145,15.11792 174.59707,-63.13952 z"
       id="path62"
       inkscape:label="Mouth L. Jaw">
      <title
         id="title188">Mouth L. Jaw</title>
    </path>
    <path
       style="fill:none;fill-opacity:0.465455;fill-rule:evenodd"
       d="m 672.96638,285.60823 -139.9148,51.87519 7.41075,19.26793 144.36124,-38.83229 z"
       id="path63"
       inkscape:label="Tonsila / Voice Box">
      <title
         id="title187">Tonsila / Voice Box</title>
    </path>
    <path
       style="fill:none;fill-opacity:0.465455;fill-rule:evenodd"
       d="m 683.04499,319.10478 -141.39695,36.75728 2.9643,32.90369 148.80769,-1.48215 c 0,0 -2.37144,-50.68947 -10.37504,-68.17882 z"
       id="path64"
       inkscape:label="Thyroid">
      <title
         id="title186">Thyroid</title>
    </path>
    <path
       style="fill:none;fill-opacity:0.465455;fill-rule:evenodd"
       d="m 693.1236,386.69074 -147.32554,2.07501 -2.66787,29.64296 147.32554,19.86079 z"
       id="path65"
       inkscape:label="Throat">
      <title
         id="title185">Throat</title>
    </path>
    <path
       style="fill:none;fill-opacity:0.465455;fill-rule:evenodd"
       d="m 690.1593,439.45522 -147.02911,-21.04651 -6.22502,23.12152 144.9541,42.09301 z"
       id="path66"
       inkscape:label="Scapula">
      <title
         id="title184">Scapula</title>
    </path>
    <path
       style="fill:none;fill-opacity:0.465455;fill-rule:evenodd"
       d="m 499.85146,349.04417 c 0,0 13.80056,45.22359 1.48215,81.22173 -0.40717,1.18989 35.57156,10.9679 35.57156,10.9679 0,0 23.36556,-56.18193 -4.74287,-102.26823 -2.49221,-4.0862 -32.31084,10.0786 -32.31084,10.0786 z"
       id="path67"
       sodipodi:nodetypes="cscsc"
       inkscape:label="Bronchials">
      <title
         id="title183">Bronchials</title>
    </path>
    <path
       style="fill:none;fill-opacity:0.465455;fill-rule:evenodd"
       d="m 501.33361,430.85876 179.9328,53.9502 c 0,0 -21.38095,75.80131 -74.40384,130.13262 -1.30938,1.34169 -136.65407,-128.9469 -136.65407,-128.9469 0,0 21.0465,-22.23223 31.12511,-55.13592 z"
       id="path68"
       sodipodi:nodetypes="ccscc"
       inkscape:label="Back">
      <title
         id="title182">Back</title>
    </path>
    <path
       style="fill:none;fill-opacity:0.465455;fill-rule:evenodd"
       d="m 457.75845,498.74115 12.74648,-11.26433 35.27513,34.08941 -16.89649,16.60006 c 0,0 -17.78578,-13.93219 -31.12512,-39.42514 z"
       id="path69"
       inkscape:label="Hip">
      <title
         id="title181">Hip</title>
    </path>
    <path
       style="fill:none;fill-opacity:0.465455;fill-rule:evenodd"
       d="M 605.38042,615.83086 505.1872,522.15909 487.10499,539.64844 572.47673,647.25241 Z"
       id="path70"
       inkscape:label="Bladder">
      <title
         id="title180">Bladder</title>
    </path>
    <path
       style="fill:none;fill-opacity:0.465455;fill-rule:evenodd"
       d="m 472.57994,522.75195 100.48965,123.9076 -50.39304,32.90369 -71.73598,-144.06481 c 0,0 18.67507,8.0036 21.63937,-12.74648 z"
       id="path71"
       inkscape:label="Vagina / Penis">
      <title
         id="title179">Vagina / Penis</title>
    </path>
    <path
       style="fill:none;fill-opacity:0.465455;fill-rule:evenodd"
       d="m 437.89767,514.74835 14.52505,19.86079 c 0,0 17.19299,9.0406 19.26793,-11.85719 0.23431,-2.35981 -14.52506,-23.71437 -14.52506,-23.71437 0,0 -21.34293,-7.70717 -19.26792,15.71077 z"
       id="path72"
       sodipodi:nodetypes="ccscc"
       inkscape:label="Prostate/Uterus">
      <title
         id="title178">Prostate/Uterus</title>
    </path>
    <path
       style="fill:none;fill-opacity:0.465455;fill-rule:evenodd"
       d="m 437.00838,514.45192 11.26432,14.82148 74.40385,151.77199 -56.32164,21.0465 -50.09661,-152.06841 -3.85358,-25.78938 z"
       id="path73"
       inkscape:label="Rectum / Anus">
      <title
         id="title177">Rectum / Anus</title>
    </path>
    <path
       style="fill:none;fill-opacity:0.465455;fill-rule:evenodd"
       d="m 417.14759,553.28421 48.0216,149.9934 c 0,0 -77.23762,17.75039 -80.33243,11.56076 -1.77858,-3.55716 -3.55716,-157.70058 -3.55716,-157.70058 0,0 19.56436,25.78938 35.86799,-3.85358 z"
       id="path74"
       sodipodi:nodetypes="ccscc"
       inkscape:label="Kidney">
      <title
         id="title176">Kidney</title>
    </path>
    <path
       style="fill:none;fill-opacity:0.465455;fill-rule:evenodd"
       d="m 376.2403,533.12699 6.81788,25.49295 -1.48215,2.37144 3.26073,154.73628 -42.68587,-1.77858 11.26432,-182.60067 z"
       id="path75"
       inkscape:label="Foot / Leg">
      <title
         id="title175">Foot / Leg</title>
    </path>
    <path
       style="fill:none;fill-opacity:0.465455;fill-rule:evenodd"
       d="m 353.11878,531.34841 -11.26432,183.19353 -49.80018,-10.07861 40.61086,-176.9685 z"
       id="path76"
       inkscape:label="Groin">
      <title
         id="title174">Groin</title>
    </path>
    <path
       style="fill:none;fill-opacity:0.465455;fill-rule:evenodd"
       d="M 332.36871,528.38412 291.75785,705.35262 244.3291,687.86327 313.39721,522.45552 Z"
       id="path77"
       inkscape:label="Abdominal Wall">
      <title
         id="title173">Abdominal Wall</title>
    </path>
    <path
       style="fill:none;fill-opacity:0.465455;fill-rule:evenodd"
       d="M 313.10078,523.04838 244.3291,688.1597 196.90036,661.48103 281.38281,531.34841 297.39001,514.15549 Z"
       id="path78"
       inkscape:label="Pelvis">
      <title
         id="title172">Pelvis</title>
    </path>
    <path
       style="fill:none;fill-opacity:0.465455;fill-rule:evenodd"
       d="m 281.67924,531.34841 -83.88959,129.53976 c 0,0 -30.09257,-19.57093 -38.83229,-30.53225 -1.848,-2.31775 105.52896,-117.68258 105.52896,-117.68258 0,0 2.37144,18.37865 17.19292,18.67507 z"
       id="path79"
       sodipodi:nodetypes="ccscc"
       inkscape:label="Ovary / Testes">
      <title
         id="title171">Ovary / Testes</title>
    </path>
    <path
       style="fill:none;fill-opacity:0.465455;fill-rule:evenodd"
       d="m 377.12959,532.53413 c 0,0 16.72713,-36.52363 34.9787,-6.22502 16.41782,27.25447 -9.78218,40.90729 -9.78218,40.90729 0,0 -20.15722,6.52145 -25.19652,-34.68227 z"
       id="path80"
       sodipodi:nodetypes="cscc"
       inkscape:label="Adrenals">
      <title
         id="title170">Adrenals</title>
    </path>
    <path
       style="fill:none;fill-opacity:0.465455;fill-rule:evenodd"
       d="m 265.96847,513.56263 c 0,0 7.41074,-14.22862 8.59646,-14.52505 1.18571,-0.29643 16.60006,-5.0393 16.60006,-5.0393 l 5.0393,4.74287 0.59286,15.11791 -14.52505,16.89649 -11.85719,-3.26072 z"
       id="path81"
       inkscape:label="Pancreas">
      <title
         id="title169">Pancreas</title>
    </path>
    <path
       style="fill:none;fill-opacity:0.465455;fill-rule:evenodd"
       d="M 275.15779,498.44472 158.95736,630.94878 131.68583,603.08439 246.99697,510.00548 270.71134,494.88756 Z"
       id="path82"
       inkscape:label="Diaphragm">
      <title
         id="title168">Diaphragm</title>
    </path>
    <path
       style="fill:none;fill-opacity:0.465455;fill-rule:evenodd"
       d="m 249.96127,507.63404 -117.68258,96.33964 -31.42154,-45.05731 119.16472,-70.25383 5.63216,-1.48215 c 0,0 -2.96429,20.15722 24.30724,20.45365 z"
       id="path83"
       sodipodi:nodetypes="cccccc"
       inkscape:label="Liver">
      <title
         id="title167">Liver</title>
    </path>
    <path
       style="fill:none;fill-opacity:0.465455;fill-rule:evenodd"
       d="m 242.84695,455.75885 -157.997001,71.73598 15.710771,31.71797 126.27903,-74.10741 10.37504,-10.9679 11.85719,-8.59646 z"
       id="path84"
       inkscape:label="Hand / Arm">
      <title
         id="title166">Hand / Arm</title>
    </path>
    <path
       style="fill:none;fill-opacity:0.465455;fill-rule:evenodd"
       d="m 248.47912,464.65174 c 1.18571,0 21.0465,2.66787 21.0465,2.66787 l 6.52145,7.70717 -2.66786,18.9715 -24.30723,15.11791 -6.52146,-2.9643 -10.07861,-1.77858 -5.33573,-9.48575 -0.88929,-10.67146 z"
       id="path85"
       inkscape:label="Gali Bladder">
      <title
         id="title165">Gali Bladder</title>
    </path>
    <path
       id="path86"
       style="fill:none;fill-opacity:0.465455;fill-rule:evenodd"
       d="M 57.57825 386.39438 C 49.574649 455.16606 83.367333 527.49411 83.367333 527.49411 C 83.367333 527.49411 206.37232 475.27656 204.90454 472.06242 C 184.08656 426.47532 184.44945 387.87681 184.44945 387.87681 L 57.57825 386.39438 z M 160.56661 420.06433 A 18.235844 17.083004 0 0 1 178.80296 437.14638 A 18.235844 17.083004 0 0 1 160.56661 454.23038 A 18.235844 17.083004 0 0 1 142.33222 437.14638 A 18.235844 17.083004 0 0 1 160.56661 420.06433 z "
       inkscape:label="Chest / Ribs">
      <title
         id="title164">Chest / Ribs</title>
    </path>
    <ellipse
       style="fill:none;fill-opacity:0.465455;fill-rule:evenodd;stroke-width:1.1061"
       id="path88"
       ry="17.921434"
       rx="18.131041"
       cy="437.14697"
       cx="160.46278"
       inkscape:label="Breast">
      <title
         id="title163">Breast</title>
    </ellipse>
    <path
       style="fill:none;fill-opacity:0.465455;fill-rule:evenodd"
       d="m 96.637326,243.57455 113.607224,69.38005 -7.75548,12.78605 -10.48037,26.20093 -8.80351,35.42366 -126.393273,-2.30569 c 0,0 2.515289,-85.51982 39.825409,-141.485 z"
       id="path89"
       inkscape:label="Lung">
      <title
         id="title162">Lung</title>
    </path>
    <path
       style="fill:none;fill-opacity:0.465455;fill-rule:evenodd"
       d="m 233.72058,366.40449 4.40175,-19.28388 7.33626,-17.60702 -35.21404,-16.7686 -6.70744,10.68998 c -0.0255,-0.35751 -44.03231,56.11671 0.62882,148.82127 0.46388,0.96288 38.77737,-16.13977 38.77737,-16.13977 l -12.99566,-55.12675 -6.07861,-2.30568 c 0,0 -34.42554,2.49577 -31.86033,-18.23585 2.72546,-22.02672 41.71188,-14.0437 41.71188,-14.0437 z"
       id="path90"
       sodipodi:nodetypes="cccccscccsc"
       inkscape:label="Bronchials">
      <title
         id="title161">Bronchials</title>
    </path>
    <path
       style="fill:none;fill-opacity:0.465455;fill-rule:evenodd"
       d="m 225.12667,398.26482 c 0,0 -30.60268,3.14411 -32.69876,-16.9782 -2.09607,-20.12231 40.24463,-15.93016 40.24463,-15.93016 0,0 25.72322,12.06266 -2.51529,34.16601 -1.00398,0.78585 -5.03058,-1.25765 -5.03058,-1.25765 z"
       id="path91"
       sodipodi:nodetypes="cscsc"
       inkscape:label="Heart">
      <title
         id="title160">Heart</title>
    </path>
    <path
       style="fill:none;fill-opacity:0.465455;fill-rule:evenodd"
       d="m 140.86449,180.69232 127.65092,118.6378 -13.41488,16.13977 -8.80351,13.62448 -37.51973,-17.39741 -112.768786,-69.17045 c 0,0 28.925826,-47.79049 44.855986,-61.83419 z"
       id="path92"
       inkscape:label="Neck / Shoulder">
      <title
         id="title159">Neck / Shoulder</title>
    </path>
    <path
       style="fill:none;fill-opacity:0.465455;fill-rule:evenodd"
       d="M 141.28371,181.11154 268.3058,299.12051 289.26654,281.09427 193.89517,135.41712 c 0,0 -38.14855,27.66818 -52.61146,45.69442 z"
       id="path93"
       inkscape:label="Mastoid / Ear">
      <title
         id="title158">Mastoid / Ear</title>
    </path>
    <path
       style="fill:none;fill-opacity:0.465455;fill-rule:evenodd"
       d="m 194.52399,134.36908 96.0002,146.72519 15.93016,-10.27076 -77.34514,-157.62478 z"
       id="path94"
       inkscape:label="Medulla">
      <title
         id="title157">Medulla</title>
    </path>
    <path
       id="path88-6"
       style="fill:none;fill-opacity:0.465455;fill-rule:evenodd;stroke-width:8.43737"
       d="M 367.50233 257.61303 A 137.60738 137.39775 0 0 0 232.89089 366.49398 C 233.01587 366.56698 233.14435 366.65702 233.2737 366.76741 C 233.96976 367.36148 234.67906 367.92784 235.33816 368.56429 C 236.06597 369.202 236.7198 369.90375 237.34207 370.64242 C 237.8725 371.13805 238.36911 371.66334 238.84988 372.20687 C 239.30951 372.70356 239.74937 373.21716 240.12137 373.78305 C 240.47964 374.35273 240.78336 374.95197 241.1077 375.54086 C 241.46062 376.26148 242.01022 376.82813 242.53348 377.42172 C 243.13199 378.11201 243.62673 378.87611 244.01981 379.69907 C 244.30523 380.30986 244.43701 380.96673 244.51981 381.63071 C 244.58491 382.2122 244.59575 382.79625 244.60575 383.38071 C 244.69255 384.31541 244.44922 385.17011 244.03543 385.9979 C 243.55017 386.86807 242.79889 387.5128 242.04324 388.13853 C 241.73982 388.36299 241.44525 388.59989 241.16238 388.84946 C 241.12918 389.0533 241.09678 389.25904 241.00809 389.44321 C 240.78796 389.90039 240.22249 390.29663 239.59402 390.63072 C 239.33769 391.00686 239.0984 391.39326 238.85769 391.77915 C 238.36679 392.52644 237.87284 393.27325 237.32254 393.97837 C 236.61768 394.91129 235.66591 395.55821 234.70144 396.19127 C 233.75297 396.81105 232.75619 397.34815 231.74245 397.85142 C 231.21926 398.1247 230.58767 398.27388 230.22097 398.76549 C 230.12777 398.8952 230.03964 399.00236 229.95534 399.08971 A 137.60738 137.39775 0 0 0 249.73661 466.08585 C 249.99805 465.56601 250.60827 465.33376 251.15653 465.33195 C 251.51429 465.33095 251.88852 465.44321 252.2327 465.52921 C 252.48008 465.60721 252.72799 465.67987 252.97685 465.74796 C 253.14458 465.74696 253.33028 465.78776 253.52567 465.87882 C 253.62835 465.76856 253.76585 465.67433 253.9495 465.60343 C 254.30657 465.4656 254.70721 465.71029 255.08622 465.76359 C 255.23565 465.89928 255.36621 466.0483 255.48075 466.20695 C 255.57335 466.21495 255.66538 466.22289 255.7581 466.23039 C 255.8473 466.22039 255.93787 466.2126 256.02763 466.205 C 256.90593 466.1179 257.78621 466.03575 258.67021 466.08195 C 259.44087 466.14225 260.20668 466.23505 260.97685 466.29875 C 261.75348 466.37515 262.52743 466.49612 263.27568 466.72453 C 263.961 466.93028 264.6415 467.14526 265.30889 467.40422 C 265.88327 467.61162 266.4661 467.79724 267.00615 468.08781 C 267.50888 468.34024 268.02067 468.58476 268.55108 468.77336 C 269.1744 468.94983 269.77302 469.18316 270.29913 469.57023 C 270.89852 469.99887 271.37429 470.53751 271.77764 471.15422 C 271.91606 471.34425 272.05851 471.53195 272.20147 471.71867 C 272.78713 472.18021 273.40968 472.59167 273.99835 473.04875 C 274.70653 473.6675 275.21979 474.45645 275.65069 475.28313 C 276.00309 476.14811 276.36215 477.00967 276.63897 477.90227 C 276.93753 478.86358 277.0693 479.8614 277.17022 480.8593 C 277.30631 481.84201 277.21872 482.81707 277.06866 483.79095 C 276.97266 484.74113 276.71011 485.64442 276.35577 486.52728 C 276.04991 487.32981 275.40725 487.89382 274.85772 488.52337 C 274.39447 489.03122 274.01709 489.60627 273.67022 490.1972 C 273.36337 490.70894 273.19987 491.28388 272.97491 491.83197 C 272.761 492.44674 272.41321 492.9707 271.95147 493.42377 C 271.86307 493.49237 271.77183 493.55751 271.67803 493.61908 A 137.60738 137.39775 0 0 0 275.50616 497.1894 C 275.57336 496.78611 275.92451 496.35643 276.63116 496.08979 C 277.05249 495.9308 277.47902 495.78652 277.89093 495.60346 C 278.6629 495.28042 279.4361 494.95322 280.23273 494.69525 C 280.83002 494.49751 281.42994 494.30822 282.03742 494.14447 C 282.67264 493.97033 283.31877 493.8206 283.98273 493.8476 C 284.55301 493.84773 285.12339 493.84691 285.69367 493.8476 C 286.24198 493.8486 286.7899 493.84946 287.3382 493.85346 C 287.86609 493.85846 288.39484 493.86642 288.92219 493.89252 C 289.53069 493.92602 290.14342 493.96532 290.73664 494.11517 C 291.26181 494.25718 291.75571 494.46056 292.24836 494.68939 C 292.80028 494.91815 293.32394 495.21191 293.75813 495.62885 C 294.1981 496.12209 294.49817 496.6914 294.81868 497.26557 C 294.82468 497.27577 294.8287 497.28672 294.8343 497.29682 C 295.44661 497.56608 295.67127 498.22029 295.78157 499.02729 C 295.78657 499.10909 295.79059 499.19143 295.79329 499.27338 C 295.83389 499.36978 295.87339 499.46536 295.91243 499.56244 C 296.26307 500.32288 296.57225 501.0984 296.73469 501.92377 C 296.92661 502.67854 297.1413 503.42579 297.2386 504.20112 C 297.34035 504.93228 297.45915 505.66697 297.42805 506.40815 C 297.41805 507.06417 297.40941 507.72002 297.36751 508.37495 C 297.35651 508.52512 297.3432 508.67418 297.3304 508.82417 C 297.3571 508.91497 297.38458 509.00661 297.41048 509.09761 C 297.64723 509.82331 297.68091 510.57797 297.68391 511.33394 C 297.69481 512.06592 297.5586 512.73589 296.96907 512.98628 A 137.60738 137.39775 0 0 0 367.50233 532.40817 A 137.60738 137.39775 0 0 0 377.86757 532.01755 C 377.85197 531.88167 377.84139 531.74459 377.81679 531.6113 C 377.91569 531.40784 377.98678 531.18724 378.11367 530.99997 C 378.19567 530.87895 378.31244 530.7656 378.45156 530.65817 C 378.34162 530.37518 378.30858 530.00054 378.39882 529.54489 C 378.44622 529.30526 378.49602 529.06596 378.53163 528.82419 C 378.64121 528.28803 378.79291 527.76351 378.98281 527.24997 C 379.12621 526.74298 379.20962 526.22591 379.36171 525.72262 C 379.62365 525.08387 379.98156 524.5029 380.43789 523.98239 C 380.7694 523.61891 381.11987 523.27033 381.43789 522.89449 C 381.40159 522.46357 381.35748 522.2776 381.43398 522.19723 C 381.43311 522.17803 381.4334 522.15823 381.43203 522.13863 L 381.43203 522.13668 L 381.43203 522.13473 L 381.43203 522.13278 L 381.43398 522.13278 L 381.43398 522.13082 L 381.43398 522.12887 L 381.43593 522.12692 L 381.43789 522.12692 L 381.43984 522.12496 L 381.44179 522.12496 L 381.44375 522.12301 C 381.46715 522.12001 381.51676 522.13698 381.54336 522.13668 C 381.70703 522.13468 381.86071 522.13378 382.02383 522.13278 C 382.21977 521.8529 382.39565 521.55995 382.52773 521.24215 C 382.81954 520.62239 383.19229 520.07498 383.73281 519.64254 C 384.14059 519.29865 384.54549 518.95278 384.90664 518.55855 C 385.25499 518.18222 385.52011 517.74108 385.83242 517.3359 C 386.24371 516.85891 386.68007 516.39969 387.17617 516.00972 C 387.69987 515.60801 388.2475 515.23688 388.83828 514.93941 C 389.44509 514.609 390.0679 514.31278 390.76407 514.23628 C 391.00373 514.21088 391.24324 514.19832 391.48282 514.19722 C 391.7224 514.19622 391.96315 514.20727 392.20352 514.22457 C 392.65208 514.25247 393.09865 514.29117 393.54337 514.35738 C 393.95796 514.41198 394.37381 514.40648 394.79141 514.42378 C 395.34966 514.45258 395.90996 514.49168 396.45743 514.61128 C 397.07869 514.76935 397.67888 514.99261 398.22306 515.33785 C 398.70902 515.64252 399.1607 516.00243 399.67228 516.26558 C 400.18428 516.52525 400.69628 516.78157 401.19181 517.07222 C 401.69842 517.3113 402.24283 517.37902 402.7758 517.54293 C 403.19316 517.69324 403.59336 517.87431 403.97111 518.09566 C 404.34927 518.04106 404.73044 517.99257 405.10978 517.94918 C 405.36166 517.83715 405.66285 517.78658 406.02775 517.7773 C 406.09745 517.77703 406.16704 517.77674 406.23674 517.77535 C 406.30914 517.77435 406.40556 517.73177 406.48088 517.72457 C 406.52608 517.72057 406.56328 517.72954 406.58439 517.76754 C 407.46352 519.34535 407.74303 519.74208 406.45158 519.91207 C 406.38328 519.91907 406.31656 519.92635 406.24845 519.93355 C 406.31795 520.00285 406.38601 520.07328 406.45353 520.14449 C 406.71075 520.42846 406.81726 520.52626 407.03556 520.84957 C 407.05286 520.87517 407.06995 520.9016 407.08635 520.9277 C 407.79418 521.0701 408.57897 521.32531 408.69767 521.87106 C 408.76067 522.16075 408.65137 522.45011 408.53947 522.73824 C 408.78301 522.9406 409.0312 523.13804 409.27385 523.34567 C 409.39056 523.4819 409.52791 523.6033 409.62541 523.75387 C 409.77174 523.97983 409.85749 524.21383 409.88518 524.44137 C 410.6759 524.47537 411.11094 524.86231 411.18986 525.29489 A 137.60738 137.39775 0 0 0 437.84614 513.09371 C 437.76064 512.68288 437.87894 512.19147 438.19575 511.77534 C 438.37883 511.56543 438.57611 511.372 438.78168 511.18941 C 438.68868 511.06439 438.59996 510.93646 438.51996 510.80269 C 438.47796 510.73249 438.54017 510.63935 438.55317 510.55855 C 438.62987 510.08081 438.69187 509.6028 438.74067 509.12105 C 438.87663 508.18943 439.05986 507.26384 439.42426 506.39057 C 439.60286 505.95948 439.6749 505.5525 439.57465 505.08393 C 439.55185 504.89896 439.35521 503.56586 439.49262 503.41987 C 439.49462 503.41787 439.49939 503.41406 439.50239 503.41206 C 439.99939 503.12818 440.59336 503.06418 441.14106 502.89643 C 441.37366 502.46112 441.65908 502.09054 442.00825 501.89448 C 442.38739 500.85335 442.8518 499.92567 443.61177 499.09565 C 444.08384 498.63176 444.66911 498.34467 445.29536 498.35932 C 445.50411 498.36432 445.71699 498.40192 445.93208 498.47846 C 446.06502 498.52576 446.18633 498.60366 446.31294 498.66596 C 446.85851 499.11069 447.53504 499.15653 448.20943 499.23823 C 449.44848 499.34977 450.6921 499.29888 451.93208 499.24018 C 452.89919 499.19318 453.86402 499.25538 454.82271 499.3808 C 455.28566 499.52414 456.05982 499.463 456.49459 499.63471 C 456.53879 499.65211 456.58259 499.67075 456.62545 499.69135 A 137.60738 137.39775 0 0 0 505.10986 395.01158 A 137.60738 137.39775 0 0 0 439.8227 278.11695 C 439.8016 278.16545 439.78151 278.21445 439.76411 278.26344 C 439.63927 278.31064 439.51706 278.36606 439.38911 278.40406 C 438.90306 278.54853 438.37886 278.51455 437.90082 278.68922 C 437.21093 278.97232 436.5883 279.38145 435.93012 279.72828 C 434.98048 280.21318 434.01704 280.65942 432.9809 280.93141 C 432.07551 281.20622 431.14592 281.42345 430.20355 281.52125 C 429.56406 281.49945 428.95407 281.37691 428.39105 281.11891 C 428.25326 281.11291 428.14261 281.06361 428.04339 280.93922 C 427.88929 280.84912 427.7394 280.74676 427.59417 280.63258 C 427.46891 280.50457 427.33157 280.38566 427.21722 280.24781 C 426.54682 279.43954 426.28414 278.37344 426.03363 277.38062 C 426.02103 277.31232 426.00852 277.24389 425.99652 277.17555 C 425.91032 276.93189 425.83551 276.68446 425.77191 276.43336 C 425.68411 276.04932 425.63151 275.9005 425.61761 275.49976 C 425.60961 275.27344 425.62878 275.05141 425.66058 274.83179 C 425.57888 274.1992 425.49559 273.56679 425.38714 272.93726 C 425.19352 272.12404 424.91238 271.34651 424.62933 270.56226 L 424.62738 270.56226 C 424.54798 270.34223 424.50101 270.13628 424.48089 269.94507 A 137.60738 137.39775 0 0 0 421.97894 268.83765 C 421.96994 268.84465 421.96115 268.85108 421.95355 268.85718 C 421.74716 269.02379 421.54136 269.191 421.33245 269.35327 C 421.32945 269.44307 421.3209 269.53316 421.3012 269.62085 C 421.12771 270.39285 419.98952 271.20353 419.32659 271.5232 C 418.40556 271.82036 417.48022 272.12054 416.52971 272.3064 C 416.30826 272.3349 416.08704 272.35706 415.86565 272.37476 C 415.86265 272.37876 415.85988 272.38278 415.85588 272.38648 C 415.76258 272.50002 415.66793 272.61278 415.57463 272.72632 C 414.80559 273.30066 413.88282 273.59927 412.92619 273.66187 C 412.7348 273.65107 412.54241 273.65282 412.35197 273.63062 C 411.50208 273.53312 410.68044 273.22506 409.82463 273.15796 C 409.28387 273.08896 408.74195 273.01821 408.19963 272.9607 C 407.9557 273.22988 407.61304 273.26767 407.17814 273.38843 C 406.4194 273.42913 405.66375 273.31803 404.91252 273.20289 C 404.60657 273.5627 403.93137 273.70919 403.06486 273.33765 C 402.43741 273.06863 401.76333 272.92393 401.10001 272.75953 C 401.01471 272.75053 400.92943 272.74148 400.84415 272.73218 C 399.80871 272.59898 398.78089 272.40664 397.76212 272.17945 C 397.03466 272.01995 396.36418 271.74717 395.7797 271.31031 C 394.65439 270.94061 393.55891 270.48955 392.50235 269.95093 C 391.5409 269.40653 390.58782 268.84539 389.61563 268.32007 C 389.19991 268.1158 388.80107 267.88745 388.4086 267.64233 C 388.03595 267.4096 387.79341 267.14532 387.6586 266.88452 C 387.6267 266.86572 387.5922 266.84587 387.55508 266.82397 C 387.06955 266.53787 386.52099 266.27124 386.12148 265.86304 C 385.98757 265.72622 385.88938 265.55865 385.77383 265.406 C 385.73953 265.19 385.64355 264.97141 385.61758 264.75561 C 385.50104 264.65931 385.38729 264.55975 385.27578 264.45679 C 384.63397 263.76897 384.05458 263.0226 383.34414 262.40014 C 382.80862 261.91576 382.20873 261.52342 381.63906 261.08178 C 380.88444 260.49677 380.73969 259.82988 380.96523 259.40209 C 380.62521 258.93759 380.65575 258.52148 380.9125 258.26733 A 137.60738 137.39775 0 0 0 367.50233 257.61303 z M 389.41446 263.51147 C 389.42796 263.52147 389.44197 263.52922 389.45547 263.53882 C 389.46887 263.53082 389.48269 263.52318 389.49649 263.51538 C 389.46989 263.51338 389.44206 263.51347 389.41446 263.51147 z M 386.86367 265.63452 L 386.86172 265.63647 L 386.86172 265.63843 L 386.85977 265.63843 L 386.85781 265.63843 L 386.85586 265.63843 L 386.85586 265.64038 L 386.85586 265.64233 L 386.85586 265.64429 L 386.85781 265.64429 C 386.86581 265.64929 386.88723 265.656 386.89883 265.656 C 386.88983 265.65 386.88254 265.64022 386.87344 265.63452 L 386.87149 265.63452 L 386.86953 265.63452 L 386.86758 265.63452 L 386.86563 265.63452 L 386.86367 265.63452 z M 394.04923 265.74585 C 394.05823 265.76285 394.06612 265.77903 394.07462 265.79663 C 394.09552 265.81293 394.11757 265.82996 394.13907 265.84546 C 394.13307 265.83096 394.12624 265.81689 394.11954 265.80249 C 394.11054 265.78369 394.07913 265.76155 394.04923 265.74585 z M 416.66838 266.6814 C 416.56698 266.7088 416.46556 266.73607 416.3637 266.76147 C 416.52104 266.75847 416.6773 266.7525 416.83245 266.7439 A 137.60738 137.39775 0 0 0 416.66838 266.6814 z M 367.86952 288.01149 A 106.06137 106.8998 0 0 1 473.93015 394.91197 A 106.06137 106.8998 0 0 1 367.86952 501.81049 A 106.06137 106.8998 0 0 1 261.80888 394.91197 A 106.06137 106.8998 0 0 1 367.86952 288.01149 z M 233.28542 369.52328 C 233.31962 369.60138 233.35168 369.68054 233.38308 369.7596 C 233.39528 369.7576 233.40799 369.75575 233.42019 369.75375 C 233.44099 369.73545 233.46189 369.71736 233.48269 369.69906 C 233.41729 369.64016 233.35158 369.5812 233.28542 369.52328 z M 237.7991 374.17758 C 237.7623 374.20648 237.7232 374.23411 237.68386 374.25961 C 237.69866 374.27861 237.71389 374.29735 237.72879 374.31625 C 237.84543 374.36375 237.96123 374.43231 238.07644 374.51742 C 237.98734 374.40198 237.89421 374.28839 237.7991 374.17758 z M 230.49441 395.90611 C 230.48841 395.97661 230.48318 396.04833 230.47878 396.119 C 230.58162 396.0727 230.68717 396.0256 230.79714 395.97838 C 230.69339 395.96738 230.59111 395.94311 230.49441 395.90611 z M 251.55302 466.1757 C 251.55502 466.1787 251.5731 466.20602 251.6077 466.25382 C 251.60724 466.24982 251.60765 466.24385 251.6077 466.24015 L 251.6077 466.2382 C 251.5681 466.1918 251.55132 466.1725 251.55302 466.1757 z M 265.14287 470.22258 L 265.14092 470.22453 C 265.13792 470.22953 265.1319 470.24222 265.1292 470.24992 L 265.1292 470.25187 L 265.1292 470.25383 L 265.1292 470.25578 C 265.1302 470.27488 265.13206 470.29352 265.13506 470.31242 C 265.13806 470.28312 265.14182 470.25393 265.14482 470.22453 L 265.14482 470.22258 L 265.14287 470.22258 z M 273.22296 480.02337 C 273.22096 480.03457 273.2191 480.04507 273.2171 480.05657 C 273.2131 480.08457 273.208 480.13168 273.221 480.15618 C 273.22131 480.15667 273.22391 480.15908 273.22491 480.16008 L 273.22491 480.16204 L 273.22686 480.16399 C 273.22727 480.16434 273.22977 480.1669 273.23077 480.1679 L 273.23272 480.1679 L 273.23467 480.16985 L 273.23663 480.1718 L 273.23858 480.1718 L 273.24053 480.1718 C 273.24153 480.17177 273.24344 480.17177 273.24444 480.1718 C 273.24744 480.17195 273.25121 480.172 273.25421 480.1718 L 273.25616 480.1718 L 273.25616 480.16985 L 273.25811 480.16985 L 273.26007 480.1679 L 273.26202 480.16594 L 273.26788 480.16399 L 273.26983 480.16204 L 273.26983 480.16008 C 273.27583 480.13468 273.25296 480.07798 273.22686 480.02337 L 273.22296 480.02337 z M 273.23858 481.39055 C 273.28738 481.50201 273.33418 481.61532 273.37921 481.72845 C 273.39921 481.63035 273.4189 481.53185 273.4378 481.43352 C 273.3686 481.42262 273.30213 481.40785 273.23858 481.39055 z M 288.47687 498.1269 C 288.33576 498.1682 288.19491 498.2097 288.05305 498.24213 C 288.24793 498.22893 288.44223 498.20617 288.63508 498.17377 C 288.58278 498.15787 288.52947 498.1416 288.47687 498.1269 z M 294.24836 506.03315 C 294.20816 506.12675 294.16676 506.21185 294.12532 506.29097 C 294.19332 506.33737 294.26242 506.38587 294.33039 506.43354 C 294.31669 506.33087 294.30177 506.22713 294.28547 506.12495 C 294.27357 506.09405 294.26076 506.06375 294.24836 506.03315 z M 406.23869 517.85152 C 406.20699 517.85652 406.17414 517.86055 406.14494 517.86715 L 406.14299 517.8691 L 406.14103 517.8691 L 406.14103 517.87105 L 406.14299 517.87105 C 406.15559 517.87028 406.19519 517.86302 406.23869 517.85152 z M 397.45548 518.86715 C 397.48608 518.88525 397.51698 518.90143 397.54728 518.91793 C 397.57968 518.93553 397.66803 518.95147 397.69376 518.94527 L 397.69571 518.94527 L 397.69767 518.94332 L 397.69962 518.94332 L 397.69962 518.94137 L 397.70157 518.94137 L 397.70157 518.93941 L 397.69962 518.93941 L 397.69962 518.93746 L 397.69767 518.93551 L 397.69571 518.93355 L 397.69571 518.9316 L 397.69376 518.9316 C 397.64296 518.8927 397.55558 518.87445 397.45548 518.86715 z M 404.11759 522.56246 C 404.10959 522.57416 404.10351 522.58562 404.09611 522.59762 C 404.10011 522.60462 404.10313 522.61356 404.10783 522.62106 C 404.10883 522.61706 404.11073 522.61108 404.11173 522.60738 C 404.11473 522.59398 404.11775 522.57836 404.12345 522.56246 L 404.1215 522.56246 L 404.11955 522.56246 L 404.11759 522.56246 z M 397.67228 523.10153 C 397.39993 523.16412 397.12766 523.2316 396.85782 523.30465 C 397.15259 523.26705 397.44721 523.22495 397.74063 523.1777 C 397.71695 523.15301 397.69467 523.12781 397.67228 523.10153 z "
       inkscape:label="Transverse Colon / Ascending Colon / Cecum / Small Intestines">
      <title
         id="title156">Transverse Colon / Ascending Colon / Cecum / Small Intestines</title>
    </path>
    <path
       id="path118-5"
       style="fill:none;fill-opacity:0.465455;fill-rule:evenodd;stroke-width:1.28789"
       d="M 366.3578 288.29079 A 106.06137 106.8998 0 0 0 260.29716 395.18931 A 106.06137 106.8998 0 0 0 366.3578 502.08979 A 106.06137 106.8998 0 0 0 472.42038 395.18931 A 106.06137 106.8998 0 0 0 366.3578 288.29079 z M 366.19178 323.7498 A 72.000061 72.000061 0 0 1 438.19184 395.74986 A 72.000061 72.000061 0 0 1 366.19178 467.74992 A 72.000061 72.000061 0 0 1 294.19172 395.74986 A 72.000061 72.000061 0 0 1 366.19178 323.7498 z "
       inkscape:label="Stomach">
      <title
         id="title155">Stomach</title>
    </path>
  </g>
</svg>
